<svg width="500" height="456" viewBox="0 0 500 456" fill="none" xmlns="http://www.w3.org/2000/svg">
<path d="M330.339 15.0309C330.339 15.0309 250.545 -13.3402 172.226 31.835C93.9059 77.0102 54.3595 166.67 20.4213 238.495C-13.5169 310.319 5.9883 383.391 65.7822 416.7C125.576 450.01 166.226 400.907 250.102 398.515C333.978 396.123 356.566 408.113 426.216 360.731C495.865 313.35 508.391 201.443 453.494 118.649C398.597 35.8556 330.339 15.0309 330.339 15.0309Z" fill="#92E3A9"/>
<path opacity="0.7" d="M330.339 15.0309C330.339 15.0309 250.545 -13.3402 172.226 31.835C93.9059 77.0102 54.3595 166.67 20.4213 238.495C-13.5169 310.319 5.9883 383.391 65.7822 416.7C125.576 450.01 166.226 400.907 250.102 398.515C333.978 396.123 356.566 408.113 426.216 360.731C495.865 313.35 508.391 201.443 453.494 118.649C398.597 35.8556 330.339 15.0309 330.339 15.0309Z" fill="white"/>
<path d="M144.772 84.639C140.813 82.4741 139.009 84.2782 137.555 82.4741C136.102 80.67 141.524 75.9896 130.71 71.2989C130.71 71.2989 129.988 61.2061 115.246 60.8453C100.504 60.4845 104.39 70.9381 100.442 73.4638C96.4933 75.9896 95.3902 72.0205 91.4212 74.4948C87.4521 76.969 89.2665 82.0617 86.0191 82.7422C82.7717 83.4226 78.4521 79.4947 74.4831 82.0205C70.514 84.5463 70.5449 86.804 68.7099 86.804C66.8748 86.804 63.2975 85.3607 61.1326 86.804C58.9676 88.2473 56.4521 90.0411 56.4521 90.0411H147.648C147.648 90.0411 148.73 86.804 144.772 84.639Z" stroke="#263238" stroke-width="0.686672" stroke-linecap="round" stroke-linejoin="round"/>
<path d="M90.8128 83.1545C90.2976 83.4506 89.7598 83.7057 89.2046 83.9174" stroke="#263238" stroke-width="0.686672" stroke-linecap="round" stroke-linejoin="round"/>
<path d="M110.328 66.3196C109.434 66.7213 108.648 67.33 108.034 68.0954C107.421 68.8608 106.999 69.7609 106.802 70.7216C106.143 74.0206 104.607 76.2165 102.844 76.4329C101.081 76.6494 94.4828 76 93.3901 78.4123C93.0959 79.1237 92.8882 79.8679 92.7715 80.6288" stroke="#263238" stroke-width="0.686672" stroke-linecap="round" stroke-linejoin="round"/>
<path d="M412.813 135.309C409.72 133.629 408.328 135.031 407.215 133.629C406.101 132.227 410.307 128.588 401.885 124.948C401.885 124.948 401.328 117.093 389.833 116.814C378.339 116.536 381.431 124.66 378.349 126.629C375.266 128.598 374.431 125.505 371.349 127.464C368.267 129.423 369.658 133.35 367.143 133.907C364.627 134.464 361.256 131.392 358.174 133.35C355.091 135.309 355.081 136.99 353.689 136.99C352.298 136.99 349.483 135.876 347.803 136.99C346.122 138.103 344.164 139.515 344.164 139.515H415.06C415.06 139.515 415.905 136.99 412.813 135.309Z" stroke="#263238" stroke-width="0.686672" stroke-linecap="round" stroke-linejoin="round"/>
<path d="M370.876 134.165C370.472 134.386 370.055 134.583 369.627 134.753" stroke="#263238" stroke-width="0.686672" stroke-linecap="round" stroke-linejoin="round"/>
<path d="M386.009 121.072C385.314 121.385 384.704 121.858 384.229 122.453C383.754 123.048 383.428 123.748 383.277 124.495C382.761 127.051 381.566 128.763 380.184 128.938C378.803 129.113 373.689 128.598 372.834 130.474C372.605 131.026 372.446 131.604 372.359 132.196" stroke="#263238" stroke-width="0.686672" stroke-linecap="round" stroke-linejoin="round"/>
<path d="M363.782 133.546H368.699" stroke="#263238" stroke-width="0.686672" stroke-linecap="round" stroke-linejoin="round"/>
<path d="M407.215 133.546H440.349C440.349 133.546 443.008 125.556 433.246 120.227C423.483 114.897 419.039 119.34 415.493 114.897C411.947 110.453 425.256 98.9173 398.617 87.3812C398.617 87.3812 396.844 62.5153 360.472 61.6081C324.101 60.7009 333.844 86.4637 324.07 92.6802C314.297 98.8967 311.648 89.1338 301.875 95.3503C292.101 101.567 296.555 113.989 288.565 115.763C280.576 117.536 269.916 107.773 260.153 113.989C250.39 120.206 250.39 125.536 245.947 125.536C241.503 125.536 232.627 121.979 227.297 125.536C221.967 129.092 215.761 133.525 215.761 133.525H358.173" stroke="#263238" stroke-width="0.686672" stroke-linecap="round" stroke-linejoin="round"/>
<path d="M300.369 116.577C299.095 117.293 297.772 117.92 296.411 118.453" stroke="#263238" stroke-width="0.686672" stroke-linecap="round" stroke-linejoin="round"/>
<path d="M305.184 110.309C305.474 108.442 305.982 106.615 306.7 104.866C309.411 98.9071 325.669 100.526 329.999 99.9896C334.329 99.4535 338.122 94.0308 339.751 85.8968C340.231 83.5315 341.267 81.3146 342.775 79.4302C344.283 77.5458 346.219 76.0482 348.421 75.0618" stroke="#263238" stroke-width="0.686672" stroke-linecap="round" stroke-linejoin="round"/>
<path d="M17.3285 31.4742C24.2975 25.4811 31.136 19.3986 37.8439 13.2268C28.9436 10.5464 20.0845 7.6976 11.2666 4.68042C13.1291 13.6082 15.1498 22.5395 17.3285 31.4742Z" fill="#92E3A9"/>
<path d="M48.3489 40.7113C55.043 34.4227 61.5997 28.0687 68.019 21.6495C59.0499 19.3608 50.1152 16.9004 41.2148 14.2681C43.4279 23.0722 45.8059 31.8866 48.3489 40.7113Z" fill="#263238"/>
<path d="M78.524 48.3505C84.9501 41.7869 91.225 35.1478 97.3487 28.433C88.3247 26.5224 79.3178 24.4365 70.3281 22.1753C72.9054 30.9107 75.6374 39.6357 78.524 48.3505Z" fill="#92E3A9"/>
<path d="M110.04 54.9381C116.163 48.1133 122.149 41.213 127.998 34.2371C118.899 32.7182 109.823 31.0206 100.771 29.1443C103.713 37.7491 106.802 46.347 110.04 54.9381Z" fill="#263238"/>
<path d="M140.648 60.0103C146.483 52.9381 152.177 45.8007 157.73 38.598C148.562 37.4433 139.431 36.1203 130.338 34.6289C133.61 43.1169 137.046 51.5773 140.648 60.0103Z" fill="#92E3A9"/>
<path d="M172.473 63.9175C177.971 56.6048 183.349 49.2303 188.607 41.7939C179.431 41.031 170.273 40.0963 161.132 38.9897C164.761 47.3609 168.541 55.6701 172.473 63.9175Z" fill="#263238"/>
<path d="M203.287 66.464C208.503 58.9039 213.576 51.3197 218.503 43.7115C209.321 43.3197 200.139 42.7561 190.957 42.0208C194.916 50.2063 199.026 58.3541 203.287 66.464Z" fill="#92E3A9"/>
<path d="M235.297 67.7526C240.198 60.0001 244.944 52.1925 249.535 44.33C240.339 44.33 231.146 44.1547 221.957 43.8042C226.259 51.8454 230.706 59.8282 235.297 67.7526Z" fill="#263238"/>
<path d="M266.195 67.7113C270.772 59.7732 275.198 51.7938 279.473 43.7732C270.284 44.1443 261.091 44.3402 251.896 44.3608C256.514 52.1959 261.28 59.9794 266.195 67.7113Z" fill="#92E3A9"/>
<path d="M298.205 66.3402C302.445 58.2165 306.534 50.055 310.473 41.8557C301.297 42.6186 292.112 43.2062 282.916 43.6186C287.871 51.2475 292.968 58.8213 298.205 66.3402Z" fill="#263238"/>
<path d="M329.019 63.7422C332.923 55.4535 336.679 47.1339 340.287 38.7834C331.139 39.9175 321.981 40.8762 312.813 41.6597C318.078 49.0824 323.48 56.4432 329.019 63.7422Z" fill="#92E3A9"/>
<path d="M360.854 59.7217C364.421 51.2681 367.83 42.7939 371.081 34.2991C361.981 35.8248 352.868 37.1754 343.741 38.3506C349.308 45.5396 355.012 52.6633 360.854 59.7217Z" fill="#263238"/>
<path d="M391.431 54.5672C394.648 45.9692 397.713 37.361 400.627 28.7424C391.589 30.6393 382.517 32.3575 373.411 33.8971C379.28 40.8524 385.287 47.7424 391.431 54.5672Z" fill="#92E3A9"/>
<path d="M422.926 47.8867C425.806 39.1651 428.517 30.4194 431.06 21.6497C422.084 23.9383 413.074 26.0483 404.029 27.9795C410.194 34.7081 416.493 41.3438 422.926 47.8867Z" fill="#263238"/>
<path d="M453.091 40.2063C455.607 31.3679 457.971 22.5294 460.184 13.6909C451.249 16.3438 442.315 18.8249 433.38 21.1342C439.813 27.5603 446.383 33.9177 453.091 40.2063Z" fill="#92E3A9"/>
<path d="M484.091 30.8453C486.236 21.9106 488.232 12.976 490.081 4.04126C481.277 7.07906 472.425 9.94847 463.524 12.6495C470.267 18.8076 477.122 24.8728 484.091 30.8453Z" fill="#263238"/>
<path d="M499.266 1.15474C337.978 59.2162 161.492 59.2162 0.20459 1.15474L0.441703 0.525879C161.582 58.5364 337.909 58.5364 499.05 0.525879C499.111 0.732064 499.184 0.93825 499.266 1.15474Z" fill="#263238"/>
<path d="M155.483 391.412H195.081V439.865C195.081 443.693 193.56 447.364 190.854 450.071C188.147 452.777 184.476 454.298 180.648 454.298H169.916C166.088 454.298 162.417 452.777 159.71 450.071C157.004 447.364 155.483 443.693 155.483 439.865V391.412Z" fill="#263238" stroke="#263238" stroke-linecap="round" stroke-linejoin="round"/>
<path d="M417.143 391.412H456.741V439.865C456.741 443.693 455.22 447.364 452.513 450.071C449.807 452.777 446.136 454.298 442.308 454.298H431.576C427.748 454.298 424.077 452.777 421.37 450.071C418.663 447.364 417.143 443.693 417.143 439.865V391.412Z" fill="#263238" stroke="#263238" stroke-linecap="round" stroke-linejoin="round"/>
<path d="M471.751 260.824C468.751 257.319 456.72 255.814 450.699 255.309C444.679 254.804 443.184 260.319 443.184 265.34C443.184 270.361 444.215 277.866 443.184 279.876L442.153 281.876L430.648 251.804L404.72 199.928C403.329 197.093 401.018 194.814 398.163 193.464C396.785 192.827 395.344 192.333 393.864 191.99L302.05 189.691C299.48 189.629 296.909 189.629 294.339 189.691L212.813 191.99C211.645 192.557 210.699 193.496 210.122 194.66C210.122 194.66 179.04 257.319 175.535 266.34C172.029 275.361 170.019 282.835 170.019 282.835C169.375 282.277 168.862 281.584 168.516 280.805C168.17 280.027 168.001 279.181 168.019 278.33C168.019 275.319 168.019 258.742 166.988 256.268C165.957 253.794 148.432 256.268 140.926 260.783C133.421 265.299 137.916 273.814 144.432 277.33C148.983 279.564 153.914 280.925 158.968 281.34L165.493 290.855C165.493 290.855 156.968 299.886 155.968 302.886C154.968 305.886 150.947 337.938 150.947 348.01C150.947 358.082 152.452 392.113 154.957 397.133C157.462 402.154 163.978 408.247 167.452 409.205C170.926 410.164 311.318 414.216 311.318 414.216L440.184 411.205C440.184 411.205 451.72 414.711 456.225 391.618C460.73 368.525 459.73 349.01 459.73 335.948C459.73 322.886 458.7 304.866 456.73 300.897C454.761 296.927 448.71 291.876 447.71 290.371C446.71 288.866 450.215 279.34 450.215 279.34C450.215 279.34 468.256 277.835 471.761 275.33C475.266 272.824 474.761 264.33 471.751 260.824Z" fill="#92E3A9" stroke="#263238" stroke-linecap="round" stroke-linejoin="round"/>
<path d="M211.102 258.196C211.102 258.196 196.318 271.732 249.926 277.319C303.534 282.907 361.266 292.659 373.637 298.196L385.947 303.742L411.782 291.433C411.782 291.433 399.411 277.319 366.194 271.732C332.978 266.144 270.184 262.505 248.669 255.124C227.153 247.742 211.102 252.041 211.102 258.196Z" fill="white"/>
<path d="M240.865 357.196L246.133 374.175" stroke="#263238" stroke-linecap="round" stroke-linejoin="round"/>
<path d="M373.205 357.196L367.937 374.175" stroke="#263238" stroke-linecap="round" stroke-linejoin="round"/>
<path d="M177.689 270.02C177.689 270.02 180.287 284.082 193.978 290.742C207.669 297.402 239.865 316.278 239.865 316.278" stroke="#263238" stroke-linecap="round" stroke-linejoin="round"/>
<path d="M434.906 270.02C434.906 270.02 432.318 284.082 418.627 290.742C404.937 297.402 372.73 316.278 372.73 316.278" stroke="#263238" stroke-linecap="round" stroke-linejoin="round"/>
<path d="M186.947 345.155L210.999 371.794" stroke="#263238" stroke-linecap="round" stroke-linejoin="round"/>
<path d="M423.432 345.886L401.226 374.02" stroke="#263238" stroke-linecap="round" stroke-linejoin="round"/>
<path d="M378.287 323.68H389.05" stroke="#263238" stroke-linecap="round" stroke-linejoin="round"/>
<path d="M235.792 323.68H222.761" stroke="#263238" stroke-linecap="round" stroke-linejoin="round"/>
<path d="M152.164 376.793C152.844 386.298 153.792 394.855 154.947 397.175C157.463 402.185 163.978 408.195 167.483 409.205C170.988 410.216 311.349 414.216 311.349 414.216L440.215 411.205C440.215 411.205 451.751 414.711 456.256 391.618C457.287 386.463 457.988 381.515 458.514 376.752L152.164 376.793Z" fill="#757575" stroke="#263238" stroke-linecap="round" stroke-linejoin="round"/>
<path d="M255.349 391.752H243.164L228.824 411.659C267.999 412.937 311.298 414.175 311.298 414.175L384.586 412.463L369.731 391.752H357.545L306.442 392.649L255.349 391.752Z" fill="#ABABAB" stroke="#263238" stroke-linecap="round" stroke-linejoin="round"/>
<path d="M209.091 201.175C209.091 201.175 185.524 263.33 185.524 265.34C185.524 267.35 327.895 264.835 327.895 264.835H425.184C425.184 264.835 428.194 262.835 426.689 255.814C425.184 248.794 401.132 202.68 401.132 202.68C401.132 202.68 312.401 199.165 285.834 199.165C259.267 199.165 209.091 201.175 209.091 201.175Z" fill="#263238" stroke="#263238" stroke-linecap="round" stroke-linejoin="round"/>
<path opacity="0.2" d="M201.328 225.701L240.061 265.258H213.277L193.906 246.299L201.328 225.701Z" fill="white"/>
<path opacity="0.2" d="M280.04 202.804L423.431 253.886L417.276 237.886L335.431 202.804H280.04Z" fill="white"/>
<path d="M394.648 243.928H306.277L309.72 214.701H391.194L394.648 243.928Z" fill="white" stroke="#263238" stroke-linecap="round" stroke-linejoin="round"/>
<path d="M322.73 227.247L322.576 229.206H318.308L317.545 237.773H315.483L317.256 218.556H324.4L324.266 220.422H319.112L318.504 227.247H322.73Z" fill="#263238"/>
<path d="M325.535 223.01C325.73 220.185 327.215 218.381 329.968 218.381C332.72 218.381 334.029 220.185 333.895 223.01L333.431 232.99C333.287 236.01 331.751 238.02 328.823 238.02C325.895 238.02 324.617 235.959 324.834 232.99L325.535 223.01ZM326.885 233.051C326.772 234.866 327.431 235.928 328.947 235.928C330.462 235.928 331.236 234.897 331.339 233.051L331.864 222.907C331.957 221.237 331.339 220.237 329.864 220.237C328.39 220.237 327.648 221.268 327.545 222.907L326.885 233.051Z" fill="#263238"/>
<path d="M340.019 218.557C342.844 218.557 344.009 220.021 343.957 222.773V224.299C343.957 226.361 343.184 227.691 341.586 228.206C343.266 228.732 343.875 230.175 343.834 232.268L343.782 235.361C343.7 236.183 343.813 237.013 344.112 237.783H341.968C341.692 237 341.594 236.166 341.679 235.34L341.751 232.247C341.751 230.041 340.844 229.35 339.122 229.35H337.658L337.359 237.814H335.297L336.009 218.557H340.019ZM339.225 227.361C340.864 227.361 341.854 226.814 341.906 224.752V222.959C341.906 221.289 341.37 220.423 339.844 220.423H337.875L337.627 227.361H339.225Z" fill="#263238"/>
<path d="M358.019 222.99V223.495H356.112V222.876C356.112 221.206 355.442 220.237 353.999 220.237C352.555 220.237 351.937 221.206 351.937 222.856C351.937 227.093 358.122 227.495 358.277 232.969C358.339 235.979 356.999 237.969 354.091 237.969C351.184 237.969 349.833 235.979 349.844 232.969V231.845H351.792V233.082C351.792 234.866 352.514 235.928 354.019 235.928C355.524 235.928 356.215 234.897 356.194 233.082C356.122 228.732 349.926 228.319 349.937 222.99C349.937 220.124 351.225 218.381 353.926 218.381C356.627 218.381 357.957 220.185 358.019 222.99Z" fill="#263238"/>
<path d="M362.215 233.732L361.617 237.773H359.669L362.628 218.556H365.535L369.999 237.773H367.886L366.968 233.732H362.215ZM362.422 231.845H366.597L364.061 220.866L362.422 231.845Z" fill="#263238"/>
<path d="M371.658 237.773L370.545 218.556H372.607L373.638 235.721H379.03L379.195 237.783L371.658 237.773Z" fill="#263238"/>
<path d="M386.463 226.804L386.648 228.721H382.122L382.741 235.711H388.411L388.617 237.773H380.854L379.226 218.556H386.627L386.823 220.422H381.39L381.957 226.814L386.463 226.804Z" fill="#263238"/>
<path d="M433.153 295.876C433.153 295.876 414.112 300.886 405.091 306.896C396.071 312.907 392.05 316.422 389.05 324.422C386.05 332.422 386.009 345.536 386.009 345.536C386.009 345.536 435.133 338.525 443.659 333.505C452.184 328.484 452.679 317.474 453.174 313.463C453.463 310.945 453.296 308.396 452.679 305.938L433.153 295.876Z" fill="white" stroke="#263238" stroke-linecap="round" stroke-linejoin="round"/>
<path d="M401.112 327.515V339.845" stroke="#263238" stroke-linecap="round" stroke-linejoin="round"/>
<path d="M401.112 322.319V324.762" stroke="#263238" stroke-linecap="round" stroke-linejoin="round"/>
<path d="M406.803 320.123V337.649" stroke="#263238" stroke-linecap="round" stroke-linejoin="round"/>
<path d="M412.504 332.227V335.443" stroke="#263238" stroke-linecap="round" stroke-linejoin="round"/>
<path d="M412.504 317.927V329.68" stroke="#263238" stroke-linecap="round" stroke-linejoin="round"/>
<path d="M418.194 315.732V333.247" stroke="#263238" stroke-linecap="round" stroke-linejoin="round"/>
<path d="M423.885 328.69V331.051" stroke="#263238" stroke-linecap="round" stroke-linejoin="round"/>
<path d="M423.885 313.536V325.938" stroke="#263238" stroke-linecap="round" stroke-linejoin="round"/>
<path d="M429.586 311.34V328.855" stroke="#263238" stroke-linecap="round" stroke-linejoin="round"/>
<path d="M435.277 321.618V326.659" stroke="#263238" stroke-linecap="round" stroke-linejoin="round"/>
<path d="M435.277 309.134V318.278" stroke="#263238" stroke-linecap="round" stroke-linejoin="round"/>
<path d="M440.978 306.938V324.464" stroke="#263238" stroke-linecap="round" stroke-linejoin="round"/>
<path d="M178.648 295.876C178.648 295.876 197.699 300.886 206.72 306.896C215.74 312.907 219.751 316.422 222.761 324.422C225.771 332.422 225.771 345.474 225.771 345.474C225.771 345.474 176.648 338.463 168.122 333.443C159.596 328.422 159.101 317.412 158.596 313.402C158.313 310.883 158.485 308.334 159.101 305.876L178.648 295.876Z" fill="white" stroke="#263238" stroke-linecap="round" stroke-linejoin="round"/>
<path d="M209.359 327.515V339.845" stroke="#263238" stroke-linecap="round" stroke-linejoin="round"/>
<path d="M209.359 322.319V324.762" stroke="#263238" stroke-linecap="round" stroke-linejoin="round"/>
<path d="M203.668 320.123V337.649" stroke="#263238" stroke-linecap="round" stroke-linejoin="round"/>
<path d="M197.968 332.227V335.443" stroke="#263238" stroke-linecap="round" stroke-linejoin="round"/>
<path d="M197.968 317.927V329.68" stroke="#263238" stroke-linecap="round" stroke-linejoin="round"/>
<path d="M192.277 315.732V333.247" stroke="#263238" stroke-linecap="round" stroke-linejoin="round"/>
<path d="M186.576 328.69V331.051" stroke="#263238" stroke-linecap="round" stroke-linejoin="round"/>
<path d="M186.576 313.536V325.938" stroke="#263238" stroke-linecap="round" stroke-linejoin="round"/>
<path d="M180.885 311.34V328.855" stroke="#263238" stroke-linecap="round" stroke-linejoin="round"/>
<path d="M175.184 321.618V326.659" stroke="#263238" stroke-linecap="round" stroke-linejoin="round"/>
<path d="M175.184 309.134V318.278" stroke="#263238" stroke-linecap="round" stroke-linejoin="round"/>
<path d="M169.493 306.938V324.464" stroke="#263238" stroke-linecap="round" stroke-linejoin="round"/>
<path d="M240.648 354.773C238.262 344.554 236.639 334.171 235.792 323.711L249.122 317.793L303.638 318.515L364.957 317.793L378.287 323.711C377.456 334.18 375.847 344.573 373.473 354.804L240.648 354.773ZM247.772 378.092C251.432 387.371 255.133 393.412 258.081 395.113C262.452 397.659 272.896 401.979 303.782 400.381C341.339 401.979 351.792 397.659 356.164 395.113C359.071 393.412 362.772 387.412 366.473 378.092H247.772Z" fill="#263238" stroke="#263238" stroke-linecap="round" stroke-linejoin="round"/>
<path d="M378.287 323.711L364.957 317.793L303.638 318.515L249.122 317.793L235.792 323.711C235.792 323.711 235.844 324.443 235.957 325.773L279.473 331.505L286.133 335.206H327.576L334.246 331.505L378.112 325.773C378.236 324.443 378.287 323.711 378.287 323.711Z" fill="#757575" stroke="#263238" stroke-linecap="round" stroke-linejoin="round"/>
<path d="M364.957 317.763L303.638 318.484L249.122 317.763L244.122 319.979H270.957L277.617 322.577H337.947L342.751 320.35H370.792L364.957 317.763Z" fill="#263238" stroke="#263238" stroke-linecap="round" stroke-linejoin="round"/>
<path d="M238.019 340.34L241.72 335.897H251.339C257.313 337.425 263.386 338.538 269.514 339.227C279.514 340.34 351.308 339.227 351.308 339.227L364.256 336.268H371.576L375.277 342.185L327.906 347.34L319.772 350.299H291.679L284.648 346.227L238.019 340.34Z" fill="#757575" stroke="#263238" stroke-linecap="round" stroke-linejoin="round"/>
<path d="M366.421 348.113L353.112 352.577H260.596L247.266 348.134L239.019 347.216C239.483 349.649 240.05 352.185 240.627 354.794H373.473C373.998 352.515 374.504 350.288 374.906 348.134L366.421 348.113Z" fill="#757575" stroke="#263238" stroke-linecap="round" stroke-linejoin="round"/>
<path d="M213.957 401.401L217.658 394.742C213.821 388.897 208.064 384.576 201.38 382.525C189.906 378.824 177.318 376.979 173.246 378.453C169.174 379.927 168.091 390.669 168.813 393.628C169.534 396.587 172.937 399.185 172.937 399.185L213.957 401.401Z" fill="#474747"/>
<path d="M201.38 382.525C195.522 380.63 189.509 379.25 183.411 378.402C182.602 378.753 181.873 379.268 181.272 379.913C180.671 380.559 180.209 381.322 179.916 382.154C177.318 388.453 177.689 392.896 181.39 397.701C181.957 398.442 182.588 399.132 183.277 399.762L213.957 401.422L217.658 394.762C213.825 388.91 208.067 384.582 201.38 382.525Z" fill="#263238"/>
<path d="M196.565 389.742C196.565 391.243 196.12 392.71 195.287 393.957C194.453 395.205 193.268 396.178 191.881 396.752C190.495 397.326 188.969 397.476 187.497 397.184C186.026 396.891 184.674 396.168 183.612 395.107C182.551 394.046 181.829 392.694 181.536 391.222C181.243 389.75 181.393 388.225 181.968 386.838C182.542 385.452 183.515 384.267 184.762 383.433C186.01 382.599 187.477 382.154 188.978 382.154C189.975 382.153 190.962 382.348 191.883 382.729C192.804 383.11 193.641 383.669 194.346 384.374C195.051 385.078 195.61 385.915 195.991 386.837C196.371 387.758 196.567 388.745 196.565 389.742Z" fill="#ABABAB" stroke="#263238" stroke-linecap="round" stroke-linejoin="round"/>
<path d="M399.163 401.401L395.462 394.742C399.312 388.892 405.084 384.571 411.782 382.525C423.246 378.824 435.833 376.979 439.905 378.453C443.978 379.927 445.06 390.669 444.349 393.628C443.637 396.587 440.277 399.185 440.277 399.185L399.163 401.401Z" fill="#474747"/>
<path d="M411.782 382.525C417.639 380.627 423.652 379.247 429.751 378.402C430.56 378.754 431.287 379.269 431.889 379.915C432.49 380.56 432.952 381.322 433.246 382.154C435.834 388.453 435.462 392.896 431.761 397.701C431.195 398.442 430.564 399.132 429.875 399.762L399.194 401.422L395.493 394.762C399.332 388.911 405.093 384.583 411.782 382.525Z" fill="#263238"/>
<path d="M431.138 392.604C432.734 388.729 430.887 384.294 427.013 382.698C423.138 381.102 418.703 382.949 417.107 386.824C415.511 390.698 417.358 395.133 421.232 396.729C425.107 398.326 429.542 396.479 431.138 392.604Z" fill="#ABABAB" stroke="#263238" stroke-linecap="round" stroke-linejoin="round"/>
<path d="M210.627 200.814H216.555C216.555 200.814 218.38 192.959 224.122 191.144H228.761C228.761 191.144 225.06 186.752 219.483 187.495C213.906 188.237 210.627 192.67 210.627 200.814Z" fill="white" stroke="#263238" stroke-linecap="round" stroke-linejoin="round"/>
<path d="M223.968 187.959C214.576 190.35 216.555 200.814 216.555 200.814C216.555 200.814 218.38 192.959 224.122 191.144H228.761C227.446 189.709 225.8 188.616 223.968 187.959V187.959Z" fill="#263238" stroke="#263238" stroke-linecap="round" stroke-linejoin="round"/>
<path d="M400.493 200.814H394.565C394.565 200.814 392.741 192.959 386.988 191.144H382.349C382.349 191.144 386.05 186.752 391.627 187.495C397.205 188.237 400.493 192.67 400.493 200.814Z" fill="white" stroke="#263238" stroke-linecap="round" stroke-linejoin="round"/>
<path d="M387.153 187.959C396.545 190.35 394.565 200.814 394.565 200.814C394.565 200.814 392.74 192.959 386.988 191.144H382.349C383.669 189.71 385.318 188.617 387.153 187.959V187.959Z" fill="#263238" stroke="#263238" stroke-linecap="round" stroke-linejoin="round"/>
<path d="M221.061 265.845L276.731 261.855L287.215 258.247C287.215 258.247 327.359 256.793 355.205 261.134H284.689" stroke="#8A8A8A" stroke-linecap="round" stroke-linejoin="round"/>
<path d="M436.513 168.093L450.132 279.36L448.287 145.474" stroke="#263238" stroke-miterlimit="10"/>
<path d="M445.163 95.5051L450.132 279.36L465.019 132.608" stroke="#263238" stroke-miterlimit="10"/>
<path d="M422.926 115.381L450.607 277.391" stroke="#263238" stroke-miterlimit="10"/>
<path d="M470.916 78.3505C470.761 90.7216 460.493 110.825 448.112 110.67C435.73 110.515 425.638 90.1958 426.081 77.8144C426.648 61.8144 436.39 52.8866 448.761 53.0722C461.133 53.2577 471.091 63.134 470.916 78.3505Z" fill="#263238" stroke="#263238" stroke-linecap="round" stroke-linejoin="round"/>
<path opacity="0.5" d="M463.473 66.165C464.617 69.4949 463.143 73.0104 460.194 74.031C457.246 75.0516 453.906 73.1753 452.772 69.8454C451.638 66.5155 453.091 63.0001 456.05 61.9795C459.009 60.9588 462.297 62.8867 463.473 66.165Z" fill="white"/>
<path d="M436.029 93.7525C440.091 105.443 437.256 127.825 425.565 131.897C413.875 135.969 397.472 120.268 393.679 108.484C388.771 93.237 394.926 81.5257 406.617 77.4535C418.308 73.3814 431.009 79.3814 436.029 93.7525Z" fill="#92E3A9" stroke="#263238" stroke-linecap="round" stroke-linejoin="round"/>
<path opacity="0.5" d="M422.823 84.0308C425.225 86.5978 425.329 90.4019 423.05 92.5462C420.772 94.6906 416.968 94.3297 414.566 91.773C412.163 89.2163 412.06 85.3916 414.339 83.2473C416.617 81.103 420.421 81.4432 422.823 84.0308Z" fill="white"/>
<path d="M491.266 113.825C489.977 126.134 477.864 145.185 465.565 143.886C453.266 142.587 445.091 121.402 446.679 109.124C448.741 93.2474 459.287 85.2577 471.596 86.5566C483.905 87.8556 492.864 98.6494 491.266 113.825Z" fill="#92E3A9" stroke="#263238" stroke-linecap="round" stroke-linejoin="round"/>
<path opacity="0.5" d="M485.699 101.186C487.287 104.278 486.328 108.01 483.545 109.433C480.761 110.856 477.205 109.433 475.607 106.34C474.009 103.247 474.978 99.5155 477.761 98.0928C480.545 96.6701 484.101 98.0516 485.699 101.186Z" fill="white"/>
<path d="M465.936 127.742C464.905 140.113 453.111 159.34 440.771 158.268C428.431 157.196 419.905 136.154 421.276 123.845C423.039 107.928 433.452 99.7627 445.782 100.835C458.111 101.907 467.266 112.546 465.936 127.742Z" fill="#263238" stroke="#263238" stroke-linecap="round" stroke-linejoin="round"/>
<path opacity="0.5" d="M457.874 113.474C459.019 116.794 457.555 120.319 454.596 121.33C451.638 122.34 448.318 120.474 447.174 117.154C446.03 113.835 447.493 110.309 450.452 109.289C453.411 108.268 456.73 110.144 457.874 113.474Z" fill="white"/>
<path d="M449.235 136.886C453.359 148.567 450.524 170.959 438.833 175.031C427.142 179.103 410.72 163.443 406.874 151.67C401.936 136.423 408.07 124.701 419.761 120.618C431.452 116.536 444.194 122.484 449.235 136.886Z" fill="#92E3A9" stroke="#263238" stroke-linecap="round" stroke-linejoin="round"/>
<path opacity="0.5" d="M438.792 127.835C441.576 129.99 442.287 133.742 440.37 136.206C438.452 138.67 434.658 138.948 431.875 136.794C429.091 134.639 428.38 130.928 430.339 128.423C432.297 125.917 436.009 125.691 438.792 127.835Z" fill="white"/>
<path d="M203.771 183.556C203.771 183.556 210.988 184.515 214.627 190.773C218.266 197.031 228.916 220.299 228.916 220.299C228.916 220.299 239.617 212.371 243.586 210.804C247.555 209.237 254.256 212.866 255.782 218.422C257.307 223.979 255.782 227.381 251.782 231.762C247.782 236.144 228.534 252.917 223.586 254.051C218.637 255.185 214.813 253.299 213.101 247.01C211.39 240.721 201.668 185.278 201.668 185.278C201.668 185.278 200.905 182.989 203.771 183.556Z" fill="white" stroke="#263238" stroke-miterlimit="10"/>
<path d="M134.173 293.329C134.084 295.421 134.349 297.512 134.957 299.515C135.905 301.876 137.792 305.814 137.792 307.855C137.792 309.896 138.421 314.783 137.483 315.412C136.545 316.041 136.06 313.68 135.905 312.731C135.666 311.766 135.349 310.821 134.957 309.907C134.957 309.907 135.751 316.195 135.751 318.401C135.751 320.608 139.369 320.608 138.266 322.525C137.163 324.443 135.277 323.309 132.916 322.525C130.555 321.742 127.246 319.845 127.246 313.865C127.246 307.886 127.411 294.67 127.411 294.67L134.173 293.329Z" fill="white" stroke="#263238" stroke-miterlimit="10"/>
<path d="M126.215 286.402L125.844 292.732C125.775 293.898 126.147 295.048 126.886 295.953C127.625 296.858 128.677 297.452 129.833 297.618V297.618C131.035 297.791 132.257 297.489 133.239 296.774C134.221 296.06 134.886 294.99 135.091 293.793L136.204 287.34L126.215 286.402Z" fill="white" stroke="#263238" stroke-miterlimit="10"/>
<path d="M142.988 186.412C142.988 186.412 136.194 186.835 132.761 194.66C131.524 197.474 119.957 282.051 120.895 285.175C121.834 288.299 130.256 291.732 134.297 290.484C138.339 289.237 140.225 287.051 140.854 284.546C141.483 282.041 145.844 189.979 145.844 189.979C145.911 189.554 145.888 189.12 145.778 188.705C145.667 188.289 145.472 187.901 145.203 187.566C144.934 187.23 144.598 186.954 144.217 186.755C143.836 186.557 143.417 186.44 142.988 186.412Z" fill="white" stroke="#263238" stroke-miterlimit="10"/>
<path d="M137.751 263.618C137.751 263.618 138.06 272.669 138.38 277.659C138.699 282.649 153.359 414.37 152.421 419.989C151.483 425.608 148.679 426.855 149.328 430.597C149.978 434.339 151.823 442.463 151.823 442.463H170.545C170.545 442.463 174.607 437.473 173.978 433.721C173.349 429.968 170.235 422.803 170.235 419.68C170.235 416.556 173.04 302.948 173.04 302.948L177.72 303.566C177.72 303.566 186.153 425.298 185.524 427.793C184.895 430.288 183.029 432.473 183.029 433.721C183.029 434.968 187.4 443.082 187.4 443.082L208.627 439.649C208.627 439.649 209.555 425.607 208.936 422.803C208.318 419.999 205.194 416.865 205.194 416.865L208.627 330.102L212.369 274.855L211.122 263.618H137.751Z" fill="#263238" stroke="#263238" stroke-miterlimit="10"/>
<path d="M211.101 263.618H137.751C137.751 263.618 137.833 265.896 137.947 268.773H211.679L211.101 263.618Z" fill="#757575" stroke="#263238" stroke-linecap="round" stroke-linejoin="round"/>
<path d="M149.38 265.298H146.06V270.834H149.38V265.298Z" fill="#263238" stroke="#263238" stroke-miterlimit="10"/>
<path d="M200.895 265.298H197.576V270.834H200.895V265.298Z" fill="#263238" stroke="#263238" stroke-miterlimit="10"/>
<path d="M180.06 263.865H169.627V268.504H180.06V263.865Z" fill="white" stroke="#263238" stroke-miterlimit="10"/>
<path d="M164.709 177.082C164.709 177.082 143.936 184.515 142.988 186.36C142.039 188.206 135.771 248.855 134.988 251.721C134.204 254.587 132.699 259.34 134.029 261.628C134.969 263.125 136.2 264.419 137.648 265.432H211.194C211.194 265.432 215.576 263.154 216.349 259.34C216.778 256.497 216.778 253.605 216.349 250.762L203.782 183.505L190.627 178.35L173.637 177.082H164.709Z" fill="white" stroke="#263238" stroke-miterlimit="10"/>
<path d="M147.957 248.175L189.72 221.927" stroke="#263238" stroke-linecap="round" stroke-linejoin="round"/>
<path d="M140.555 252.824L143.122 251.216" stroke="#263238" stroke-linecap="round" stroke-linejoin="round"/>
<path d="M157.411 236.907L187.38 216.773" stroke="#263238" stroke-linecap="round" stroke-linejoin="round"/>
<path d="M167.947 185.464L173.658 194.226L167.38 249.484L174.803 262.061L184.143 248.34L176.328 194.422L182.998 186.226L174.998 177.649L167.947 185.464Z" fill="#263238" stroke="#263238" stroke-miterlimit="10"/>
<path d="M166.421 163.175L167.38 175.175C167.38 175.175 171.761 182.226 174.998 182.226C178.235 182.226 186.235 175.371 186.235 175.371V162.216C186.235 162.216 177.854 168.123 174.235 167.175C171.445 166.241 168.81 164.893 166.421 163.175Z" fill="white" stroke="#263238" stroke-miterlimit="10"/>
<path d="M174.235 167.175C171.445 166.241 168.81 164.893 166.421 163.175L167.287 174.041C169.452 176.175 177.534 176.103 179.204 174.979C180.875 173.855 184.359 168.216 186.235 164.144V162.216C186.235 162.216 177.854 168.123 174.235 167.175Z" fill="#263238" stroke="#263238" stroke-miterlimit="10"/>
<path d="M172.895 181.464L165.658 194.041L159.565 178.031L166.236 170.412L172.895 181.464Z" fill="white" stroke="#263238" stroke-miterlimit="10"/>
<path d="M178.421 180.896L184.143 194.422L192.143 178.608L186.813 171.36L178.421 180.896Z" fill="white" stroke="#263238" stroke-miterlimit="10"/>
<path d="M191.865 141.01C191.865 141.01 194.896 135.855 196.493 140.649C197.054 142.524 197.012 144.527 196.374 146.376C195.736 148.225 194.534 149.828 192.937 150.958C190.978 151.989 190.442 149.536 190.442 149.536L191.865 141.01Z" fill="white" stroke="#263238" stroke-miterlimit="10"/>
<path d="M159.998 141.546C159.998 141.546 158.39 136.917 155.875 139.938C153.359 142.958 157.297 149.216 158.545 150.618C159.792 152.02 161.215 151.515 161.576 150.443C161.937 149.371 159.998 141.546 159.998 141.546Z" fill="white" stroke="#263238" stroke-miterlimit="10"/>
<path d="M159.122 121.649C159.122 121.649 157.318 128.268 157.617 130.67C157.916 133.072 160.627 151.422 161.524 155.938C162.421 160.453 167.844 166.165 169.05 168.876C170.256 171.587 179.576 171.577 181.421 170.381C183.266 169.185 187.741 161.649 189.246 157.742C190.751 153.835 192.194 139.969 192.194 136.082C192.194 132.196 195.504 126.804 195.205 122.855C194.906 118.907 187.081 113.824 183.174 112.319C179.266 110.814 177.462 111.422 175.359 109.319C173.256 107.216 170.205 103.897 165.122 105.701C160.04 107.505 165.122 112.02 162.72 112.629C160.318 113.237 151.287 105.103 149.483 113.525C147.679 121.948 159.122 121.649 159.122 121.649Z" fill="white" stroke="#263238" stroke-miterlimit="10"/>
<path d="M195.215 122.824C194.916 118.907 187.091 113.793 183.184 112.288C179.277 110.783 177.473 111.391 175.37 109.288C173.267 107.185 170.215 103.866 165.133 105.67C160.05 107.474 165.133 111.989 162.73 112.598C160.328 113.206 151.297 105.072 149.493 113.494C147.689 121.917 159.122 121.618 159.122 121.618C159.122 121.618 157.318 128.237 157.617 130.639C157.761 131.773 158.432 136.422 159.194 141.505L159.462 141.721C159.462 141.721 160.349 140.474 159.462 136.206C158.576 131.938 160.885 132.639 160.885 130.68C160.885 128.721 162.308 123.742 164.267 123.031C166.225 122.319 169.782 125.701 172.813 124.629C175.844 123.556 179.937 119.639 183.854 121.422C187.772 123.206 185.627 130.701 186.349 131.732C187.071 132.763 189.37 133.33 189.37 137.247C189.37 141.165 188.658 144.732 190.081 145.257C190.327 145.331 190.588 145.339 190.838 145.279C191.088 145.22 191.318 145.095 191.504 144.917C191.937 141.175 192.205 137.701 192.205 136.031C192.194 132.144 195.514 126.732 195.215 122.824Z" fill="#263238" stroke="#263238" stroke-miterlimit="10"/>
<path d="M171.328 155.917C171.328 155.917 176.483 158.505 180.658 154.36" stroke="#263238" stroke-linecap="round" stroke-linejoin="round"/>
<path d="M169.256 134.598L171.215 138.721C171.215 138.721 169.967 152.257 170.493 152.608C171.019 152.958 178.74 151.185 178.74 149.587C178.765 148.675 178.449 147.785 177.854 147.092" stroke="#263238" stroke-linecap="round" stroke-linejoin="round"/>
<path d="M167.813 129.979C167.813 129.979 160.689 129.979 160.689 130.69C160.689 131.402 161.4 131.721 162.472 131.587C163.545 131.453 166.916 131.402 167.627 131.226C168.338 131.051 167.813 129.979 167.813 129.979Z" fill="#263238" stroke="#263238" stroke-linecap="round" stroke-linejoin="round"/>
<path d="M182.607 129.051C182.607 129.051 175.483 129.051 175.483 129.763C175.483 130.474 176.194 130.794 177.266 130.659C178.339 130.525 181.72 130.474 182.421 130.299C183.122 130.123 182.607 129.051 182.607 129.051Z" fill="#263238" stroke="#263238" stroke-linecap="round" stroke-linejoin="round"/>
<path d="M180.112 140.474C180.112 141.556 179.679 142.433 179.132 142.433C178.586 142.433 178.102 141.556 178.102 140.474C178.102 139.391 178.545 138.515 179.132 138.515C179.72 138.515 180.112 139.391 180.112 140.474Z" fill="#263238"/>
<path d="M167.648 140.474C167.648 141.556 167.215 142.433 166.669 142.433C166.122 142.433 165.638 141.556 165.638 140.474C165.638 139.391 166.081 138.515 166.669 138.515C167.256 138.515 167.648 139.391 167.648 140.474Z" fill="#263238"/>
<path d="M228.915 220.329C228.915 220.329 219.586 228.144 217.297 233.103Z" fill="white"/>
<path d="M228.915 220.329C228.915 220.329 219.586 228.144 217.297 233.103" stroke="#263238" stroke-miterlimit="10"/>
<path d="M224.534 224.329C224.534 224.329 218.06 227.577 214.431 231.762Z" fill="white"/>
<path d="M224.534 224.329C224.534 224.329 218.06 227.577 214.431 231.762" stroke="#263238" stroke-miterlimit="10"/>
<path d="M276.937 211.762C276.937 211.762 282.266 210.236 283.411 207.948C284.555 205.659 284.359 204.133 283.029 205.278C281.699 206.422 280.174 207.34 279.596 207.948C279.019 208.556 276.937 211.762 276.937 211.762Z" fill="white" stroke="#263238" stroke-miterlimit="10"/>
<path d="M250.071 207.567L246.432 213.093C245.889 213.908 245.635 214.882 245.71 215.859C245.784 216.836 246.184 217.76 246.844 218.484C247.258 218.934 247.761 219.293 248.321 219.538C248.881 219.783 249.485 219.91 250.097 219.91C250.708 219.91 251.312 219.783 251.872 219.538C252.432 219.293 252.935 218.934 253.349 218.484L260.926 210.371C260.926 210.371 276.174 212.66 276.937 211.711C277.699 210.763 280.174 209.041 280.741 207.134C281.308 205.227 282.081 202.938 281.122 203.515C280.163 204.093 279.06 206.608 279.06 206.608L265.153 197.649C265.153 197.649 270.102 194.556 270.483 192.123C270.864 189.69 269.916 188.505 268.957 190.062C267.998 191.618 266.679 192.721 263.627 193.866C260.576 195.01 256.761 196.154 255.432 198.443L250.071 207.567Z" fill="white" stroke="#263238" stroke-miterlimit="10"/>
<path d="M253.349 218.556L257.545 214.061C255.779 213.941 254.096 213.271 252.731 212.145C251.367 211.019 250.389 209.493 249.936 207.783L246.431 213.113C245.805 214.037 245.553 215.163 245.724 216.266C245.896 217.369 246.479 218.365 247.356 219.055C248.233 219.746 249.338 220.078 250.45 219.985C251.562 219.892 252.598 219.382 253.349 218.556V218.556Z" fill="white" stroke="#263238" stroke-miterlimit="10"/>
<path d="M257.689 207.371C257.689 207.371 262.07 202.804 265.308 203.185C268.545 203.567 273.689 209.659 273.689 209.659C273.689 209.659 279.978 202.989 280.359 205.092C280.741 207.196 275.204 211.763 274.266 211.948C273.328 212.134 259.782 210.422 259.782 210.422" fill="white"/>
<path d="M257.689 207.371C257.689 207.371 262.07 202.804 265.308 203.185C268.545 203.567 273.689 209.659 273.689 209.659C273.689 209.659 279.978 202.989 280.359 205.092C280.741 207.196 275.204 211.763 274.266 211.948C273.328 212.134 259.782 210.422 259.782 210.422" stroke="#263238" stroke-miterlimit="10"/>
<path d="M169.947 442.37C169.947 442.37 160.772 435.154 158.545 434.721C156.318 434.288 153.266 437.226 152.287 438.473C151.308 439.721 151.04 441.123 150.617 441.401C150.194 441.679 145.895 445.525 144.225 447.092C142.555 448.659 142.421 452.793 142.978 453.494C143.471 453.963 144.105 454.257 144.782 454.329H172.029C172.275 452.719 172.368 451.09 172.308 449.463C171.929 447.08 171.332 444.737 170.524 442.463" fill="#757575"/>
<path d="M169.947 442.37C169.947 442.37 160.772 435.154 158.545 434.721C156.318 434.288 153.266 437.226 152.287 438.473C151.308 439.721 151.04 441.123 150.617 441.401C150.194 441.679 145.895 445.525 144.225 447.092C142.555 448.659 142.421 452.793 142.978 453.494C143.471 453.963 144.105 454.257 144.782 454.329H172.029C172.275 452.719 172.368 451.09 172.308 449.463C171.929 447.08 171.332 444.737 170.524 442.463" stroke="#263238" stroke-linecap="round" stroke-linejoin="round"/>
<path d="M142.71 451.762C142.649 452.354 142.749 452.953 142.998 453.494C143.491 453.963 144.125 454.257 144.802 454.329H172.05C172.05 454.329 172.235 453.174 172.318 451.762H142.71Z" fill="#757575" stroke="#263238" stroke-linecap="round" stroke-linejoin="round"/>
<path d="M187.617 442.37C187.617 442.37 199.421 435.154 201.648 434.721C203.875 434.288 206.926 437.226 207.906 438.473C208.885 439.721 209.576 442.504 209.968 442.783C210.359 443.061 216.081 445.566 217.751 447.092C219.421 448.618 219.566 452.793 219.009 453.494C218.511 453.961 217.874 454.255 217.195 454.329H185.535C185.289 452.719 185.196 451.09 185.256 449.463C185.635 447.08 186.232 444.737 187.04 442.463L187.617 442.37Z" fill="#757575" stroke="#263238" stroke-linecap="round" stroke-linejoin="round"/>
<path d="M185.534 454.329H217.215C217.894 454.254 218.531 453.961 219.029 453.494C219.273 452.951 219.373 452.354 219.318 451.762H185.297C185.349 453.174 185.534 454.329 185.534 454.329Z" fill="#757575" stroke="#263238" stroke-linecap="round" stroke-linejoin="round"/>
<path d="M111.668 150.515C113.411 149.67 114.38 146.319 113.864 142.515C113.297 138.278 111.112 135.082 108.998 135.371C107.328 135.587 106.194 137.917 106.07 140.958L111.668 150.515Z" fill="#263238" stroke="#263238" stroke-linecap="round" stroke-linejoin="round"/>
<path d="M66.4212 126.804C67.3763 125.616 67.9616 124.174 68.1046 122.657C68.2475 121.139 67.9418 119.613 67.2253 118.268C64.8233 113.196 46.4212 113.464 39.7511 123.072C33.081 132.68 39.8955 143.917 49.0295 142.268C56.1119 141 64.2563 130.794 66.4212 126.804Z" fill="white" stroke="#263238" stroke-linecap="round" stroke-linejoin="round"/>
<path d="M39.7197 123.062C39.8326 125.331 40.4171 127.552 41.4359 129.582C42.4548 131.613 43.8856 133.409 45.6372 134.856C51.6372 139.876 56.3279 138.907 56.3279 138.907" stroke="#263238" stroke-linecap="round" stroke-linejoin="round"/>
<path d="M41.2559 121.732C41.2559 121.732 46.2868 127.237 51.1425 129.505C53.9682 130.816 56.7214 132.279 59.3899 133.886" stroke="#263238" stroke-linecap="round" stroke-linejoin="round"/>
<path d="M42.3901 120.103C42.3901 120.103 49.3592 118.319 55.5241 119.783C59.3182 120.785 62.5725 123.226 64.5963 126.587" stroke="#263238" stroke-linecap="round" stroke-linejoin="round"/>
<path d="M103.782 128.309C103.782 128.309 106.689 133.082 107.308 136.557C107.926 140.031 107.308 142.577 108.339 144.649C109.369 146.722 113.493 149.629 112.689 151.495C111.885 153.361 108.957 154.588 108.957 154.588C108.957 154.588 104.596 164.134 102.318 167.041C100.04 169.948 91.3179 167.041 91.3179 167.041L91.1117 171.608L74.1014 168.515C74.1014 168.515 75.9674 165.814 72.854 162.495C69.7406 159.175 60.4004 147.969 71.1942 137.185C81.988 126.402 100.256 127.062 103.782 128.309Z" fill="white" stroke="#263238" stroke-linecap="round" stroke-linejoin="round"/>
<path d="M91.3283 167.113L84.2974 165.824L91.1221 171.68L91.3283 167.113Z" fill="#263238" stroke="#263238" stroke-linecap="round" stroke-linejoin="round"/>
<path d="M104.411 129.68C103.107 127.235 101.439 125.003 99.4622 123.062C93.2766 117.185 79.4622 116.392 68.256 123.856C57.0498 131.319 49.5859 151.866 55.988 159.33C62.39 166.794 76.7921 162 76.7921 162C76.7921 162 74.122 151.33 77.5962 150.258C81.0705 149.185 84.2663 150.526 84.8127 148.134C85.3591 145.742 84.5447 139.598 89.8849 136.124C95.2251 132.649 102.143 134.196 104.411 129.68Z" fill="white" stroke="#263238" stroke-linecap="round" stroke-linejoin="round"/>
<path d="M76.2664 157.732C76.2664 157.732 71.7303 161.299 62.8643 158.381C53.9984 155.464 54.4417 146.546 54.4417 146.546" stroke="#263238" stroke-linecap="round" stroke-linejoin="round"/>
<path d="M56.1736 140.855C56.1335 143.092 56.8021 145.284 58.0835 147.117C59.365 148.95 61.1936 150.331 63.3076 151.062C70.9159 153.979 74.8128 152.196 74.8128 152.196" stroke="#263238" stroke-linecap="round" stroke-linejoin="round"/>
<path d="M58.1118 136.155C58.9705 138.607 60.4058 140.816 62.2967 142.598C64.1877 144.379 66.479 145.68 68.9778 146.392C70.9976 147.043 73.066 147.532 75.1634 147.856" stroke="#263238" stroke-linecap="round" stroke-linejoin="round"/>
<path d="M59.895 132.907C64.2137 135.638 68.772 137.971 73.5136 139.876C80.6476 142.639 87.1321 138.422 87.1321 138.422" stroke="#263238" stroke-linecap="round" stroke-linejoin="round"/>
<path d="M63.4624 128.701C63.4624 128.701 64.7614 131.289 78.05 129.835C91.3387 128.381 97.6376 130.175 98.7923 132.752" stroke="#263238" stroke-linecap="round" stroke-linejoin="round"/>
<path d="M66.0601 125.618C70.0859 124.729 74.0388 123.537 77.8848 122.051C85.9879 119.134 98.6786 120.783 104.411 129.68" stroke="#263238" stroke-linecap="round" stroke-linejoin="round"/>
<path d="M80.5242 152.134C80.5242 152.134 78.6582 144.917 74.3386 144.917C70.019 144.917 71.4108 153.721 74.6067 157.185C77.8026 160.649 79.7304 158.763 79.7304 158.763" fill="white"/>
<path d="M80.5242 152.134C80.5242 152.134 78.6582 144.917 74.3386 144.917C70.019 144.917 71.4108 153.721 74.6067 157.185C77.8026 160.649 79.7304 158.763 79.7304 158.763" stroke="#263238" stroke-linecap="round" stroke-linejoin="round"/>
<path d="M94.6685 155.062C94.6685 155.062 97.3282 159.598 101.885 158.536" stroke="#263238" stroke-linecap="round" stroke-linejoin="round"/>
<path d="M106.387 144.894C107.055 140.676 104.176 136.716 99.9587 136.049C95.7409 135.382 91.7808 138.26 91.1135 142.478C90.4462 146.695 93.3245 150.655 97.5422 151.323C101.76 151.99 105.72 149.112 106.387 144.894Z" fill="#263238" stroke="#263238" stroke-linecap="round" stroke-linejoin="round"/>
<path d="M91.9984 144.124L78.3901 147.33" stroke="#263238" stroke-linecap="round" stroke-linejoin="round"/>
<path d="M105.771 142.392L108.967 141.587" stroke="#263238" stroke-linecap="round" stroke-linejoin="round"/>
<path d="M79.7301 418.855V435.927H64.792V418.587L79.7301 418.855Z" fill="white" stroke="#263238" stroke-linecap="round" stroke-linejoin="round"/>
<path d="M93.06 420.721L92.792 431.391L100.802 434.587L105.864 431.391V419.123L93.06 420.721Z" fill="white" stroke="#263238" stroke-linecap="round" stroke-linejoin="round"/>
<path d="M106.936 190.536C106.936 190.536 115.441 195.422 116.709 201.763C117.977 208.103 120.514 231.319 123.462 238.495C126.41 245.67 127.689 250.319 125.998 252.433C125.249 253.462 124.714 254.631 124.424 255.87C124.133 257.109 124.094 258.394 124.307 259.649C124.73 261.34 128.534 262.608 126.843 265.989C125.153 269.371 123.05 272.742 123.05 272.742V317.927C123.05 322.154 117.977 327.206 116.709 328.484C115.441 329.762 113.328 325.113 113.328 321.731C113.328 318.35 112.483 240.649 111.266 234.742C110.05 228.835 102.812 191.66 102.812 191.66C102.812 191.66 103.916 188.185 106.936 190.536Z" fill="#92E3A9" stroke="#263238" stroke-linecap="round" stroke-linejoin="round"/>
<path d="M116.71 328.443C117.978 327.185 123.05 322.113 123.05 317.886V279.69C119.65 280.318 116.177 280.447 112.741 280.072C113.091 300.34 113.297 320.03 113.297 321.69C113.328 325.072 115.442 329.711 116.71 328.443Z" fill="white" stroke="#263238" stroke-linecap="round" stroke-linejoin="round"/>
<path d="M55.7202 298.824L63.9676 424.185L80.4625 423.917L91.1635 296.69L92.7717 296.958L91.9676 423.649L106.401 423.123L121.339 304.123C121.339 304.123 118.133 276.917 115.153 270.515C113.291 266.538 110.86 262.854 107.937 259.577H65.0604C65.0604 259.577 57.8542 271.618 55.7202 298.824Z" fill="#263238" stroke="#263238" stroke-linecap="round" stroke-linejoin="round"/>
<path d="M90.9262 180.938C90.9262 180.938 99.4623 186.536 101.328 191.34C103.194 196.144 110.132 262.288 110.132 263.35C110.132 264.412 97.3283 264.154 89.8644 264.381C82.4005 264.608 79.7304 264.649 79.7304 264.649C79.7304 264.649 69.8644 199.567 67.9881 192.896C66.1118 186.226 67.9881 183.567 70.1221 181.433C72.2562 179.299 75.7304 178.762 77.3386 177.958C78.9469 177.154 90.9262 180.938 90.9262 180.938Z" fill="white" stroke="#263238" stroke-linecap="round" stroke-linejoin="round"/>
<path d="M93.8642 185.206C93.8642 185.206 100.266 199.34 103.73 231.597C105.792 251.288 105.328 305.216 105.328 305.216C106.274 306.023 107.439 306.531 108.675 306.674C109.91 306.817 111.161 306.589 112.266 306.02C116.45 304.442 120.726 303.12 125.07 302.061C125.07 302.061 119.998 267.381 119.741 255.381C119.483 243.381 113.864 208.701 111.204 198.835C108.545 188.969 107.462 187.639 103.462 185.237C99.4622 182.835 93.3281 182.031 93.3281 182.031L93.8642 185.206Z" fill="#92E3A9" stroke="#263238" stroke-linecap="round" stroke-linejoin="round"/>
<path d="M94.4006 184.134C94.4006 184.134 95.9985 176.67 95.7305 173.732C95.4624 170.793 94.648 170.556 88.2459 170.288C81.8439 170.02 74.3903 164.927 72.2562 167.598C70.1222 170.268 69.5964 180.134 70.9263 181.443C72.2562 182.752 77.7614 186.381 86.3078 187.165C89.3387 187.464 93.5964 186.268 94.4006 184.134Z" fill="white" stroke="#263238" stroke-linecap="round" stroke-linejoin="round"/>
<path d="M70.3902 180.134C70.3902 180.134 53.8954 190.804 50.3902 194.804C46.8851 198.804 53.5861 256.422 53.8542 270.824C53.9281 280.628 53.3944 290.427 52.2562 300.164C57.7098 302.741 63.3226 304.965 69.0604 306.824C75.6365 308.876 82.653 309.061 89.3284 307.36C89.3284 307.36 85.8645 254.288 85.3284 238.814C84.7923 223.34 79.4624 196.67 77.5964 190.536C75.7305 184.402 70.3902 180.134 70.3902 180.134Z" fill="#92E3A9" stroke="#263238" stroke-linecap="round" stroke-linejoin="round"/>
<path d="M70.1219 178.536C70.1219 178.536 54.39 188.938 55.4518 190.268C56.5137 191.598 63.6992 227.082 63.6992 244.907C63.6992 262.732 64.5034 297.989 64.5034 297.989C64.5034 297.989 69.5755 297.989 73.3075 298.257C77.0394 298.525 85.0394 297.226 85.0394 297.226C85.0394 297.226 82.3693 260.422 82.3693 241.752C82.3693 223.082 75.7095 194.536 74.1219 190C72.5343 185.464 70.1219 178.536 70.1219 178.536Z" fill="#263238" stroke="#263238" stroke-linecap="round" stroke-linejoin="round"/>
<path d="M94.6685 182.804C94.6685 182.804 100.802 214.814 103.462 235.618C106.122 256.422 109.07 280.979 109.07 284.958V295.092C109.07 295.092 114.132 295.896 115.998 295.896C117.554 295.782 119.083 295.435 120.534 294.865C120.534 294.865 116.534 259.391 115.473 243.123C114.411 226.855 108.802 196.185 106.936 190.546L105.07 184.948C105.07 184.948 98.3798 181.443 94.6685 182.804Z" fill="#263238" stroke="#263238" stroke-linecap="round" stroke-linejoin="round"/>
<path d="M55.72 369.247L16.5447 358.845C16.5447 358.845 13.6066 371.381 10.9468 376.443C8.28697 381.505 6.37975 390.309 7.18387 394.845C7.988 399.381 12.7818 402.319 16.5138 403.649C20.2457 404.979 48.7921 413.247 55.988 412.721C63.1839 412.195 64.2354 406.319 63.4622 401.247C62.689 396.175 55.72 369.247 55.72 369.247Z" fill="#263238" stroke="#263238" stroke-linecap="round" stroke-linejoin="round"/>
<path d="M63.462 401.246C62.6579 396.185 55.7197 369.288 55.7197 369.288L53.2868 368.638C52.8538 370.824 47.4208 398.112 46.6579 405.02C46.2558 408.587 47.2352 410.71 48.9053 412.05C51.2338 412.541 53.6083 412.779 55.9878 412.762C63.194 412.184 64.2558 406.319 63.462 401.246Z" fill="#4C4C4C" stroke="#263238" stroke-linecap="round" stroke-linejoin="round"/>
<path d="M34.1219 318.556L23.2147 366.061C23.1295 366.426 22.9163 366.749 22.6136 366.97C22.311 367.191 21.939 367.297 21.5652 367.267V367.267C21.3386 367.246 21.1194 367.176 20.9226 367.062C20.7258 366.948 20.5563 366.792 20.4258 366.606C20.2954 366.419 20.207 366.207 20.167 365.983C20.127 365.759 20.1362 365.529 20.1941 365.309L33.5961 314.793L46.1322 316.927L51.2869 371.855C51.3075 372.1 51.27 372.347 51.1775 372.575C51.0849 372.804 50.9398 373.007 50.7541 373.169C50.5683 373.33 50.3471 373.446 50.1083 373.506C49.8695 373.566 49.6198 373.569 49.3796 373.515L49.1528 373.463C48.8251 373.388 48.5305 373.209 48.3131 372.953C48.0957 372.696 47.9671 372.376 47.9466 372.041L44.8539 319.319L34.1219 318.556Z" fill="#263238" stroke="#263238" stroke-linecap="round" stroke-linejoin="round"/>
<path d="M53.586 192.134C53.586 192.134 42.3901 195.876 40.7818 199.876C39.1736 203.876 37.3179 235.35 36.5241 242.814C35.7302 250.278 35.7302 252.154 35.7302 252.154C35.7302 252.154 29.0601 255.35 30.1323 259.618C31.2045 263.886 35.1942 267.618 35.1942 268.69C35.1942 269.763 36.7921 302.824 36.7921 302.824C36.7921 302.824 31.7302 318.835 32.7921 320.165C33.854 321.494 37.8643 323.103 38.4004 323.896C38.9364 324.69 41.8643 327.628 43.1942 326.567C43.9675 325.959 44.5213 325.116 44.7715 324.165L45.5653 321.237C45.5653 321.237 48.7715 324.433 49.5653 324.433C50.3591 324.433 48.2354 318.299 48.2354 314.299C48.2354 310.299 44.7715 304.69 44.7715 303.628C44.7715 302.567 48.256 271.134 48.256 271.134C48.256 271.134 53.586 266.598 54.122 262.886C54.6581 259.175 53.3179 254.876 53.854 253.546C54.3901 252.216 56.2561 249.278 56.5241 246.608C56.7921 243.938 54.6581 239.948 54.3901 237.814C54.122 235.68 56.2561 206.072 56.2561 206.072" fill="#92E3A9"/>
<path d="M53.586 192.134C53.586 192.134 42.3901 195.876 40.7818 199.876C39.1736 203.876 37.3179 235.35 36.5241 242.814C35.7302 250.278 35.7302 252.154 35.7302 252.154C35.7302 252.154 29.0601 255.35 30.1323 259.618C31.2045 263.886 35.1942 267.618 35.1942 268.69C35.1942 269.763 36.7921 302.824 36.7921 302.824C36.7921 302.824 31.7302 318.835 32.7921 320.165C33.854 321.494 37.8643 323.103 38.4004 323.896C38.9364 324.69 41.8643 327.628 43.1942 326.567C43.9675 325.959 44.5213 325.116 44.7715 324.165L45.5653 321.237C45.5653 321.237 48.7715 324.433 49.5653 324.433C50.3591 324.433 48.2354 318.299 48.2354 314.299C48.2354 310.299 44.7715 304.69 44.7715 303.628C44.7715 302.567 48.256 271.134 48.256 271.134C48.256 271.134 53.586 266.598 54.122 262.886C54.6581 259.175 53.3179 254.876 53.854 253.546C54.3901 252.216 56.2561 249.278 56.5241 246.608C56.7921 243.938 54.6581 239.948 54.3901 237.814C54.122 235.68 56.2561 206.072 56.2561 206.072" stroke="#263238" stroke-linecap="round" stroke-linejoin="round"/>
<path d="M38.39 323.896C38.9158 324.701 41.8539 327.628 43.1838 326.567C43.961 325.961 44.5186 325.117 44.7715 324.165L45.5653 321.237C45.5653 321.237 48.7715 324.433 49.5653 324.433C50.3591 324.433 48.2354 318.299 48.2354 314.299C48.2354 310.299 44.7715 304.69 44.7715 303.628C44.7715 302.907 46.3488 288.299 47.3797 278.886L35.5756 277.979C36.0498 288.103 36.7612 302.814 36.7612 302.814C36.7612 302.814 31.6993 318.824 32.7612 320.154C33.823 321.484 37.8539 323.103 38.39 323.896Z" fill="white" stroke="#263238" stroke-linecap="round" stroke-linejoin="round"/>
<path d="M77.3281 434.855C77.3281 434.855 67.7301 433.257 66.1219 433.257C64.5136 433.257 57.5858 444.195 56.524 448.453C55.4621 452.711 58.658 454.319 59.4518 454.319H80.524C80.524 454.319 83.7301 454.319 83.9982 449.247C84.2662 444.175 82.1322 436.979 82.1322 435.113C82.1322 433.247 83.4621 430.845 82.926 429.515C82.3899 428.185 77.5961 427.391 77.3281 434.855Z" fill="#92E3A9" stroke="#263238" stroke-linecap="round" stroke-linejoin="round"/>
<path d="M83.9985 449.257C84.0474 447.772 83.9715 446.286 83.7716 444.814C82.6376 446.144 81.7923 448.649 80.2665 449.793C78.1325 451.391 72.7922 450.824 71.7304 450.597C70.6685 450.37 67.9881 445.257 66.6582 444.463C65.3283 443.669 62.3902 449.793 62.3902 449.793H56.318C56.1868 450.797 56.4294 451.814 56.9998 452.651C57.5702 453.487 58.4283 454.085 59.4108 454.329H80.5242C80.5242 454.329 83.7304 454.329 83.9985 449.257Z" fill="white" stroke="#263238" stroke-linecap="round" stroke-linejoin="round"/>
<path d="M65.4728 435.195C65.4728 435.195 63.6789 423.082 65.0191 422.556C66.3594 422.03 78.3284 420.793 78.8645 423.453C79.4006 426.113 77.3594 435.494 77.3594 435.494L65.4728 435.195Z" fill="white" stroke="#263238" stroke-linecap="round" stroke-linejoin="round"/>
<path d="M68.3075 422.68L68.1426 427.35L74.6477 427.68L75.1529 422.68C72.8992 422.173 70.5612 422.173 68.3075 422.68V422.68Z" fill="#92E3A9" stroke="#263238" stroke-linecap="round" stroke-linejoin="round"/>
<path d="M78.524 437.309L64.792 436.855C64.6693 436.852 64.5483 436.825 64.436 436.776C64.3238 436.726 64.2226 436.654 64.1382 436.565C64.0538 436.476 63.9879 436.371 63.9444 436.256C63.901 436.141 63.8807 436.019 63.8848 435.896C63.8845 435.772 63.9099 435.649 63.9593 435.534C64.0087 435.42 64.0811 435.317 64.172 435.232C64.2629 435.147 64.3704 435.081 64.4877 435.04C64.605 434.998 64.7296 434.981 64.8539 434.989L78.5858 435.432C78.8346 435.432 79.0733 435.531 79.2492 435.707C79.4251 435.883 79.524 436.122 79.524 436.371C79.524 436.619 79.4251 436.858 79.2492 437.034C79.0733 437.21 78.8346 437.309 78.5858 437.309H78.524Z" fill="white" stroke="#263238" stroke-linecap="round" stroke-linejoin="round"/>
<path d="M77.6995 439.453L63.9675 438.999C63.7205 438.991 63.4866 438.886 63.3168 438.706C63.1469 438.527 63.0547 438.287 63.0603 438.04C63.0585 437.915 63.0828 437.791 63.1316 437.676C63.1805 437.561 63.2529 437.458 63.3441 437.372C63.4354 437.287 63.5435 437.221 63.6615 437.18C63.7795 437.139 63.9048 437.123 64.0294 437.133L77.7613 437.576C78.0101 437.576 78.2488 437.675 78.4247 437.851C78.6006 438.027 78.6995 438.266 78.6995 438.514C78.6995 438.763 78.6006 439.002 78.4247 439.178C78.2488 439.354 78.0101 439.453 77.7613 439.453H77.6995Z" fill="white" stroke="#263238" stroke-linecap="round" stroke-linejoin="round"/>
<path d="M76.1116 441.432L64.9055 440.978C64.68 440.945 64.4764 440.825 64.3379 440.644C64.1993 440.463 64.1366 440.236 64.1632 440.009C64.1632 439.494 64.524 439.05 64.957 439.112L76.1632 439.556C76.3875 439.591 76.5895 439.712 76.7277 439.892C76.8658 440.072 76.9294 440.299 76.9055 440.525C76.9196 440.75 76.8441 440.972 76.6954 441.142C76.5467 441.312 76.3369 441.416 76.1116 441.432V441.432Z" fill="white" stroke="#263238" stroke-linecap="round" stroke-linejoin="round"/>
<path d="M101.071 431.659C101.071 431.659 92.2666 427.659 90.4006 429.525C88.5346 431.391 87.9985 432.453 89.3697 433.257C90.7408 434.061 92.5758 435.123 92.5758 435.123C92.5758 435.123 89.6377 448.721 90.7099 450.587C91.5355 451.867 92.6251 452.957 93.9057 453.783H130.71C130.71 453.783 132.844 452.752 130.978 448.979C129.112 445.205 121.648 443.381 118.71 441.515C115.772 439.649 110.174 432.711 109.906 431.917C109.638 431.123 111.246 423.907 109.38 423.113C107.514 422.319 101.638 423.113 101.906 425.247C102.199 426.971 102.647 428.665 103.246 430.309L101.071 431.659Z" fill="#92E3A9" stroke="#263238" stroke-linecap="round" stroke-linejoin="round"/>
<path d="M109.163 441.288C109.545 441.835 110.101 442.165 110.411 442.031L116.287 439.536C115.71 438.979 115.112 438.36 114.534 437.731L109.029 440.061C108.689 440.206 108.782 440.742 109.163 441.288Z" fill="white" stroke="#263238" stroke-linecap="round" stroke-linejoin="round"/>
<path d="M105.854 437.112C106.225 437.659 106.885 437.968 107.215 437.793L112.524 435.473C111.936 434.772 111.411 434.123 110.988 433.576L105.833 435.824C105.431 435.927 105.472 436.545 105.854 437.112Z" fill="white" stroke="#263238" stroke-linecap="round" stroke-linejoin="round"/>
<path d="M106.885 438.329C106.472 438.453 106.514 439.071 106.885 439.618C107.256 440.164 107.916 440.463 108.246 440.298L114.431 437.597C113.864 436.979 113.308 436.35 112.792 435.752L106.885 438.329Z" fill="white" stroke="#263238" stroke-linecap="round" stroke-linejoin="round"/>
<path d="M110.679 433.071C110.411 432.277 112.349 422.597 110.483 421.803C108.617 421.01 102.153 423.123 101.864 425.257C101.596 427.216 103.204 430.319 103.204 430.319L106.132 435.659C106.132 435.659 110.142 433.875 110.679 433.071Z" fill="white" stroke="#263238" stroke-linecap="round" stroke-linejoin="round"/>
<path d="M105.359 422.844L106.524 426.184L109.535 425.154L108.864 421.978C108.864 421.978 106.194 421.649 105.359 422.844Z" fill="#92E3A9" stroke="#263238" stroke-linecap="round" stroke-linejoin="round"/>
<path d="M130.936 448.989C130.492 448.185 129.885 447.482 129.153 446.927C129.121 446.998 129.093 447.07 129.07 447.144C128.534 449.01 129.338 450.876 128.276 451.948C127.215 453.02 121.874 452.752 117.606 452.216C113.338 451.68 105.864 449.278 100.802 447.412C97.4641 446.35 93.8989 446.221 90.493 447.041C90.3621 448.233 90.4072 449.439 90.627 450.618C90.7302 451.429 91.1001 452.184 91.6786 452.762C92.257 453.341 93.0113 453.711 93.8229 453.814H130.627C130.627 453.814 132.802 452.731 130.936 448.989Z" fill="white" stroke="#263238" stroke-linecap="round" stroke-linejoin="round"/>
<path d="M12.813 454.329H493.225" stroke="#263238" stroke-width="0.908269" stroke-linecap="round" stroke-linejoin="round"/>
</svg>
