<svg width="500" height="373" viewBox="0 0 500 373" fill="none" xmlns="http://www.w3.org/2000/svg">
<path d="M249.673 371.703C387.56 371.703 499.339 307.979 499.339 229.37C499.339 150.761 387.56 87.0366 249.673 87.0366C111.785 87.0366 0.00585938 150.761 0.00585938 229.37C0.00585938 307.979 111.785 371.703 249.673 371.703Z" fill="#F5F5F5"/>
<path d="M383.355 322.085C415.224 322.085 441.059 307.169 441.059 288.769C441.059 270.368 415.224 255.452 383.355 255.452C351.485 255.452 325.65 270.368 325.65 288.769C325.65 307.169 351.485 322.085 383.355 322.085Z" fill="#E0E0E0"/>
<path d="M324.755 81.8479L449.05 153.755C466.587 163.909 466.577 180.338 449.05 190.46L215.046 325.164C127.285 375.986 -43.3151 255.91 27.0045 216.659L261.222 81.8052C278.77 71.6728 307.218 71.6941 324.755 81.8479Z" fill="#E0E0E0"/>
<path d="M326.939 3.80369C320.888 2.23748 295.072 -6.41396 264.717 10.6332C257.525 14.6713 243.025 23.099 225.061 33.6256C225.061 33.6256 204.168 55.3714 177.649 69.2329C127.477 95.4643 93.5527 111.137 93.5527 111.137C94.5035 111.901 95.5872 112.482 96.7491 112.852C111.665 118.872 147.028 151.432 171.331 142.749C199.639 132.638 326.939 3.80369 326.939 3.80369Z" fill="#DF4D3B"/>
<path opacity="0.5" d="M114.521 101.857C114.521 101.857 174.069 75.7534 182.443 70.5327C188.955 66.5607 195.111 62.0335 200.844 57.0015C203.646 54.3166 202.975 63.2983 188.303 71.481C168.646 82.5084 114.521 101.857 114.521 101.857Z" fill="white"/>
<path d="M204.274 39.3471C204.274 41.9255 204.509 45.4841 204.743 50.1508C205.063 56.405 204.168 59.6546 201.248 64.4704C199.906 66.6759 196.987 69.9681 191.659 73.2604C162.189 91.373 93.5527 111.137 93.5527 111.137L96.6852 112.852L178.629 103.711L214.3 80.271L215.131 41.6592L209.601 38.7185L204.274 39.3471Z" fill="#37474F"/>
<path d="M215.142 41.6592V43.6196C214.417 45.58 213.171 48.2756 211.455 49.3091C210.539 49.8621 209.489 50.1533 208.419 50.1508C206.459 50.1508 204.743 49.1493 204.647 47.5404C204.647 47.1143 204.647 46.6774 204.573 46.2619C204.392 43.2041 204.328 41.1797 204.328 39.3471L209.655 38.7185L215.142 41.6592Z" fill="#DF4D3B"/>
<path opacity="0.3" d="M215.142 41.6592V43.6196C214.417 45.58 213.171 48.2756 211.455 49.3091C210.539 49.8621 209.489 50.1533 208.419 50.1508C206.459 50.1508 204.743 49.1493 204.647 47.5404C204.647 47.1143 204.647 46.6774 204.573 46.2619C204.392 43.2041 204.328 41.1797 204.328 39.3471L209.655 38.7185L215.142 41.6592Z" fill="black"/>
<path d="M339.703 15.8752C333.79 1.87518 322.933 1.89649 305.023 4.44291C302.945 4.73059 257.259 14.2877 231.688 24.0791C212.372 31.4734 206.682 37.0776 205.148 37.93C201.568 39.997 207.492 43.4064 211.413 41.5525C211.413 44.5784 211.498 47.1781 211.413 49.4794C210.933 63.3303 208.653 65.4612 202.015 72.9193C199.277 75.9985 191.095 80.1324 186.62 82.6469C178.267 87.3349 178.682 83.6591 156.51 92.2359C147.006 95.9117 101.352 113.033 96.4614 112.991L217.976 189.096L256.332 217.81L432.802 76.9041L339.703 15.8752Z" fill="#DF4D3B"/>
<path d="M211.636 41.4567L225.86 31.8889L343.091 95.8691L324.403 106.651L324.425 178.942L211.636 113.801V41.4567Z" fill="#DF4D3B"/>
<path opacity="0.25" d="M211.636 41.4567L225.86 31.8889L346.394 91.6393L376.259 95.5708L368.534 119.394L324.425 178.942L211.636 113.801V41.4567Z" fill="black"/>
<path opacity="0.5" d="M244.442 20.9682C235.055 23.8556 228.726 25.6455 231.081 26.9134C233.435 28.1813 293.708 11.7201 305.481 9.58919C317.254 7.4583 326.364 6.49939 311.746 3.1965C298.694 0.287829 290.33 1.22543 282.563 3.93167C274.796 6.63791 260.114 14.6607 260.114 14.6607C260.114 14.6607 297.789 5.38067 299.206 5.19954C300.623 5.01842 304.181 5.19955 295.327 7.70335C286.473 10.2072 253.881 18.1128 244.442 20.9682Z" fill="white"/>
<path opacity="0.3" d="M180.877 151.965C180.877 151.965 182.763 113.151 184.201 83.936C174.793 88.7732 176.849 84.3409 156.734 92.108C148.455 95.3044 112.72 108.718 100.435 112.085L96.6851 112.852L167.974 157.484L180.877 151.965Z" fill="black"/>
<path d="M245.848 146.638L231.848 146.361L210.539 134.161C208.55 133.164 206.376 132.593 204.154 132.485C201.932 132.377 199.712 132.734 197.636 133.533L171.842 145.189L154.145 144.837V155.172C154.145 156.333 154.965 157.527 156.648 158.496L202.995 185.26C204.872 186.228 206.982 186.652 209.086 186.485C211.191 186.317 213.207 185.565 214.907 184.312L243.674 160.936C244.306 160.482 244.826 159.89 245.196 159.205C245.565 158.521 245.773 157.761 245.805 156.983L245.848 146.638Z" fill="#37474F"/>
<path d="M156.648 148.161L202.996 174.925C204.873 175.891 206.982 176.314 209.086 176.146C211.191 175.979 213.207 175.228 214.907 173.977L243.674 150.601C246.786 148.087 246.487 144.422 243.014 142.429L210.528 123.827C208.54 122.83 206.365 122.259 204.143 122.151C201.922 122.042 199.702 122.399 197.626 123.198L156.957 141.556C153.324 143.196 153.175 146.158 156.648 148.161Z" fill="#455A64"/>
<path d="M245.859 146.648V156.951C245.859 156.951 245.859 156.951 245.805 156.951C245.776 157.731 245.569 158.493 245.199 159.18C244.83 159.867 244.308 160.46 243.674 160.915L214.907 184.28C213.276 185.516 211.323 186.256 209.282 186.411V176.087C211.324 175.938 213.279 175.197 214.907 173.956L243.674 150.58C244.311 150.132 244.838 149.545 245.217 148.864C245.595 148.183 245.814 147.426 245.859 146.648Z" fill="#263238"/>
<path d="M250.323 143.58C250.392 144.041 250.336 144.513 250.162 144.945C249.988 145.378 249.701 145.756 249.332 146.041L237.527 152.849C237.914 152.582 238.215 152.208 238.395 151.774C238.574 151.339 238.624 150.861 238.539 150.399L235.982 92.6942C235.851 91.3787 235.427 90.1092 234.741 88.9791C234.055 87.8489 233.125 86.8866 232.018 86.1629L204.2 70.1066C203.773 69.8189 203.279 69.6462 202.765 69.6051C202.252 69.564 201.737 69.6561 201.27 69.8722V69.8722L212.989 63.1173C213.462 62.88 213.99 62.7727 214.518 62.8064C215.046 62.8401 215.555 63.0136 215.994 63.3091L243.792 79.3654C244.899 80.0851 245.831 81.045 246.517 82.1738C247.203 83.3025 247.626 84.5713 247.755 85.8859L250.323 143.58Z" fill="#263238"/>
<path d="M204.21 70.1279L232.018 86.1843C233.122 86.9057 234.051 87.8646 234.736 88.9909C235.422 90.1172 235.848 91.3824 235.982 92.6941L238.539 150.378C238.645 152.785 237.047 153.755 234.959 152.508L195.367 129.655C194.301 128.967 193.445 127.998 192.894 126.855C192.344 125.712 192.119 124.439 192.245 123.177L199.799 72.2056C199.823 71.7049 199.983 71.2202 200.261 70.8034C200.54 70.3866 200.926 70.0535 201.38 69.84C201.833 69.6264 202.336 69.5403 202.835 69.5911C203.334 69.6418 203.809 69.8274 204.21 70.1279V70.1279Z" fill="#37474F"/>
<path d="M246.53 82.2101L234.81 89.0076C234.137 87.8604 233.198 86.892 232.072 86.1842L204.253 70.1279C203.826 69.8402 203.332 69.6674 202.818 69.6264C202.305 69.5853 201.79 69.6773 201.323 69.8935L213.043 63.1385C213.516 62.9012 214.043 62.7939 214.571 62.8276C215.099 62.8613 215.608 63.0348 216.047 63.3303L243.845 79.3866C244.954 80.0982 245.875 81.0667 246.53 82.2101V82.2101Z" fill="#455A64"/>
<path d="M241.671 73.825V59.4627C241.671 49.1385 235.076 36.9498 226.947 32.2512C223.218 30.1203 219.819 29.9178 217.219 31.3242L208.248 36.5449L212.233 44.1629V56.8417C212.304 58.1475 212.682 59.4182 213.335 60.551C213.988 61.6837 214.899 62.6468 215.994 63.3623L224.965 68.5404L231.709 81.443L240.584 76.2862C240.969 76.0101 241.272 75.6363 241.463 75.2036C241.654 74.7708 241.726 74.2949 241.671 73.825V73.825Z" fill="#263238"/>
<path d="M226.947 52.7078L238.496 46.0381C235.801 40.1462 231.635 34.9574 226.947 32.2512C223.218 30.1203 219.819 29.9178 217.219 31.3242L208.248 36.5449L212.233 44.1629V46.656L226.947 52.7078Z" fill="#455A64"/>
<path d="M232.839 78.9604V64.6088C232.839 54.2739 226.243 42.0959 218.114 37.3972C209.985 32.6986 203.379 37.2694 203.379 47.6042V61.9558C203.451 63.2642 203.829 64.5373 204.485 65.672C205.14 66.8067 206.053 67.7711 207.151 68.487L229.067 81.1339C231.155 82.3378 232.839 81.3683 232.839 78.9604Z" fill="#37474F"/>
<path d="M205.041 82.3485C201.627 95.0747 199.989 108.212 200.172 121.387C200.263 122.735 200.624 124.051 201.234 125.257C201.843 126.463 202.689 127.535 203.72 128.408C210.592 133.506 218.028 137.796 225.881 141.193C226.33 141.453 226.842 141.586 227.36 141.576C227.879 141.566 228.385 141.415 228.824 141.139C229.262 140.862 229.617 140.471 229.85 140.007C230.082 139.544 230.184 139.025 230.143 138.508C230.846 122.878 231.081 108.303 230.282 96.1781C229.956 93.4495 228.599 90.9488 226.489 89.1887C221.446 85.506 216.024 82.3735 210.315 79.8447C209.81 79.6039 209.258 79.4786 208.699 79.478C208.14 79.4775 207.587 79.6016 207.082 79.8415C206.577 80.0813 206.132 80.4308 205.779 80.8645C205.426 81.2982 205.174 81.8052 205.041 82.3485V82.3485Z" fill="#DF4D3B"/>
<path opacity="0.15" d="M229.802 139.819C229.978 139.396 230.079 138.945 230.1 138.487C230.804 122.857 231.038 108.282 230.239 96.1568C230.096 94.8097 229.683 93.5052 229.024 92.3211C227.479 90.1263 226.893 108.591 226.947 119.852C227 131.114 227.096 142.227 228.939 140.948C229.015 140.897 229.086 140.84 229.152 140.778C229.397 140.478 229.615 140.158 229.802 139.819V139.819Z" fill="black"/>
<g opacity="0.15">
<path opacity="0.15" d="M202.74 120.396C202.74 120.396 203.081 120.598 203.635 120.971C204.189 121.344 205.009 121.855 205.968 122.484C207.886 123.741 210.454 125.361 213.096 126.863C215.738 128.365 218.423 129.772 220.458 130.795C221.524 131.306 222.333 131.764 222.951 132.041C223.569 132.318 223.889 132.531 223.889 132.531C223.889 132.531 223.505 132.467 222.823 132.307C222.142 132.148 221.215 131.935 220.117 131.562C219.02 131.189 217.741 130.731 216.409 130.166C215.749 129.857 215.056 129.569 214.374 129.207C213.693 128.845 213.021 128.483 212.339 128.142C211.008 127.342 209.697 126.522 208.514 125.659C207.446 124.882 206.418 124.05 205.435 123.166C204.562 122.399 203.901 121.685 203.422 121.205C202.942 120.726 202.74 120.396 202.74 120.396Z" fill="black"/>
<path opacity="0.15" d="M202.74 113.151C202.74 113.151 203.081 113.353 203.635 113.726C204.189 114.099 205.009 114.61 205.968 115.239C207.886 116.496 210.454 118.105 213.096 119.607C215.738 121.11 218.423 122.516 220.458 123.549C221.524 124.05 222.333 124.508 222.951 124.796C223.569 125.084 223.889 125.286 223.889 125.286L222.823 125.062C222.163 124.892 221.215 124.679 220.117 124.317C218.857 123.914 217.62 123.444 216.409 122.91C215.749 122.601 215.056 122.314 214.374 121.951C213.693 121.589 213.021 121.237 212.339 120.886C211.008 120.097 209.697 119.266 208.514 118.414C207.332 117.562 206.288 116.699 205.435 115.921C204.583 115.143 203.901 114.44 203.422 113.96C202.942 113.481 202.74 113.151 202.74 113.151Z" fill="black"/>
<path opacity="0.15" d="M204.263 107.12C204.263 107.12 204.572 107.301 205.094 107.642C205.616 107.983 206.373 108.441 207.225 109.017C209.004 110.167 211.38 111.627 213.831 112.948C216.281 114.269 218.807 115.473 220.714 116.4L223.015 117.54L223.878 117.988C223.878 117.988 223.527 117.934 222.919 117.807C222.312 117.679 221.438 117.476 220.415 117.178C219.242 116.842 218.086 116.448 216.953 115.995C216.335 115.729 215.685 115.495 215.056 115.175C214.428 114.855 213.778 114.546 213.138 114.216C212.499 113.886 211.892 113.513 211.295 113.151C210.699 112.788 210.134 112.373 209.58 112C208.585 111.284 207.632 110.512 206.724 109.688C205.925 108.974 205.318 108.313 204.892 107.866C204.466 107.418 204.263 107.12 204.263 107.12Z" fill="black"/>
<path opacity="0.15" d="M204.871 100.323L205.68 100.813C206.17 101.164 206.916 101.591 207.811 102.145C209.527 103.21 211.817 104.659 214.204 105.895C216.591 107.131 219.041 108.282 220.884 109.166L223.111 110.231C223.654 110.498 223.953 110.668 223.953 110.668L223.026 110.498C222.44 110.359 221.588 110.189 220.597 109.912C219.606 109.635 218.466 109.273 217.24 108.846C216.644 108.601 216.005 108.378 215.397 108.079C214.79 107.781 214.151 107.493 213.533 107.184C212.915 106.875 212.318 106.502 211.743 106.119C211.167 105.735 210.603 105.373 210.07 105.053C209.107 104.366 208.186 103.622 207.31 102.827C206.543 102.134 205.957 101.484 205.552 101.058C205.148 100.632 204.871 100.323 204.871 100.323Z" fill="black"/>
<path opacity="0.15" d="M205.936 93.8342L206.703 94.2924L208.674 95.5389C210.623 96.7965 212.636 97.9523 214.705 99.0016C216.953 100.142 219.297 101.133 221.097 101.964C222.898 102.795 223.985 103.413 223.985 103.413C222.908 103.245 221.841 103.021 220.788 102.741C218.476 102.162 216.23 101.344 214.087 100.301C213.501 99.9925 212.925 99.6835 212.371 99.3532C211.817 99.023 211.306 98.6501 210.794 98.2878C209.887 97.6331 209.022 96.9213 208.205 96.1569C207.392 95.4403 206.634 94.6639 205.936 93.8342V93.8342Z" fill="black"/>
<path opacity="0.15" d="M208.323 87.5906C208.323 87.5906 209.314 88.1553 210.731 89.0502C212.148 89.9452 214.023 91.0533 215.973 92.0655C217.922 93.0776 219.915 94.0259 221.417 94.7824C222.919 95.5388 223.9 96.1142 223.9 96.1142C222.961 95.9959 222.031 95.8107 221.119 95.5601C219.105 95.0394 217.154 94.2999 215.301 93.3546C214.801 93.067 214.3 92.79 213.82 92.5023C213.341 92.2146 212.894 91.8843 212.457 91.5753C211.665 91.0075 210.917 90.3807 210.219 89.7002C209.528 89.0521 208.894 88.3464 208.323 87.5906Z" fill="black"/>
</g>
<path d="M193.151 134.822C185.842 136.122 178.607 139.862 171.437 145.242C170.997 145.534 170.637 145.929 170.387 146.394C170.138 146.859 170.007 147.378 170.007 147.906C170.007 148.433 170.138 148.952 170.387 149.417C170.637 149.882 170.997 150.278 171.437 150.569C180.115 156.923 189.478 162.284 199.352 166.551C201.911 167.527 204.754 167.451 207.257 166.338C213.386 163.239 219.02 159.246 223.974 154.49C224.37 154.103 224.675 153.633 224.866 153.113C225.058 152.594 225.13 152.038 225.079 151.486C225.028 150.935 224.855 150.402 224.571 149.926C224.288 149.451 223.902 149.044 223.441 148.737C216.629 143.678 209.287 139.374 201.546 135.898C198.878 134.856 195.995 134.487 193.151 134.822V134.822Z" fill="#DF4D3B"/>
<g opacity="0.2">
<path opacity="0.2" d="M175.369 147.938C175.369 147.938 175.827 148.055 176.605 148.3C177.382 148.545 178.522 148.897 179.801 149.365C183.034 150.592 186.168 152.063 189.177 153.766C192.174 155.466 195.025 157.411 197.7 159.583C198.919 160.57 200.085 161.619 201.195 162.726L197.21 160.254C194.834 158.773 191.659 156.845 188.42 155.023C185.181 153.201 181.9 151.432 179.417 150.122L176.423 148.524C175.774 148.172 175.369 147.938 175.369 147.938Z" fill="black"/>
<path opacity="0.2" d="M182.337 143.921L183.573 144.283C184.351 144.539 185.491 144.89 186.769 145.349C190.002 146.571 193.136 148.038 196.145 149.738C199.14 151.442 201.991 153.387 204.669 155.556C205.887 156.561 207.053 157.628 208.163 158.752L204.179 156.28C201.803 154.788 198.628 152.871 195.389 151.049C192.15 149.227 188.868 147.458 186.386 146.148L183.392 144.55C182.742 144.166 182.337 143.921 182.337 143.921Z" fill="black"/>
<path opacity="0.2" d="M188.325 140.522C188.325 140.522 188.772 140.639 189.561 140.884C190.349 141.13 191.478 141.481 192.757 141.95C195.989 143.174 199.123 144.642 202.133 146.34C205.129 148.042 207.98 149.987 210.657 152.157C211.876 153.161 213.043 154.228 214.151 155.353C214.151 155.353 212.553 154.373 210.166 152.881C207.78 151.39 204.605 149.483 201.376 147.65C198.148 145.817 194.856 144.07 192.373 142.76L189.38 141.161L188.325 140.522Z" fill="black"/>
<path opacity="0.2" d="M194.845 137.731C194.845 137.731 195.271 137.837 195.996 138.061C196.72 138.285 197.754 138.594 198.958 139.052C201.933 140.157 204.815 141.496 207.577 143.058C210.342 144.606 212.969 146.389 215.43 148.385C216.546 149.302 217.613 150.276 218.626 151.305C218.626 151.305 218.253 151.091 217.561 150.687C216.868 150.282 215.994 149.738 214.897 149.067C212.766 147.714 209.793 145.956 206.821 144.283C203.848 142.61 200.844 140.991 198.574 139.776L195.836 138.285C195.218 137.954 194.845 137.731 194.845 137.731Z" fill="black"/>
</g>
<path d="M309.753 184.109L295.753 183.832L274.444 171.633C272.455 170.638 270.28 170.069 268.058 169.962C265.836 169.856 263.617 170.215 261.542 171.015L235.768 182.66L218.082 182.309V192.644C218.082 193.805 218.902 194.998 220.586 195.968L266.933 222.732C268.809 223.7 270.919 224.124 273.024 223.957C275.129 223.789 277.145 223.036 278.845 221.784L307.612 198.418C308.243 197.961 308.762 197.367 309.131 196.681C309.5 195.994 309.709 195.234 309.743 194.455V194.455L309.753 184.109Z" fill="#37474F"/>
<path d="M220.554 185.633L266.901 212.397C268.778 213.365 270.887 213.789 272.992 213.622C275.097 213.454 277.113 212.702 278.813 211.449L307.58 188.084C310.691 185.559 310.393 181.893 306.919 179.901L274.444 161.298C272.455 160.303 270.28 159.734 268.058 159.628C265.837 159.521 263.617 159.88 261.542 160.68L220.852 178.995C217.23 180.668 217.081 183.63 220.554 185.633Z" fill="#455A64"/>
<path d="M309.764 184.12V194.434C309.734 195.213 309.527 195.975 309.158 196.662C308.788 197.349 308.267 197.943 307.633 198.397L278.866 221.762C277.234 222.998 275.281 223.738 273.24 223.893V213.569C275.281 213.414 277.234 212.674 278.866 211.438L307.633 187.998C308.253 187.55 308.766 186.97 309.134 186.299C309.503 185.628 309.718 184.884 309.764 184.12Z" fill="#263238"/>
<path d="M314.228 181.062C314.301 181.522 314.247 181.993 314.072 182.425C313.898 182.857 313.609 183.233 313.237 183.513L301.432 190.321C301.827 190.059 302.137 189.688 302.326 189.253C302.515 188.818 302.575 188.338 302.498 187.871L299.93 130.198C299.799 128.882 299.375 127.613 298.689 126.483C298.003 125.353 297.073 124.39 295.966 123.667L268.105 107.61C267.68 107.321 267.187 107.149 266.675 107.109C266.163 107.07 265.649 107.166 265.186 107.387L276.905 100.632C277.378 100.394 277.906 100.287 278.434 100.321C278.962 100.354 279.471 100.528 279.91 100.823L307.708 116.88C308.816 117.598 309.749 118.558 310.435 119.687C311.121 120.816 311.544 122.085 311.671 123.4L314.228 181.062Z" fill="#263238"/>
<path d="M268.116 107.61L295.924 123.667C297.029 124.389 297.958 125.35 298.644 126.478C299.33 127.606 299.755 128.874 299.887 130.187L302.445 187.871C302.551 190.279 300.953 191.248 298.875 190.002L259.283 167.148C258.214 166.462 257.356 165.494 256.803 164.351C256.25 163.207 256.025 161.933 256.151 160.67L263.705 109.741C263.719 109.236 263.872 108.745 264.147 108.32C264.422 107.896 264.808 107.555 265.263 107.336C265.718 107.116 266.225 107.025 266.728 107.074C267.231 107.122 267.711 107.308 268.116 107.61Z" fill="#37474F"/>
<path d="M310.446 119.682L298.63 126.49C297.96 125.338 297.02 124.365 295.892 123.656L268.105 107.61C267.68 107.321 267.187 107.149 266.675 107.109C266.163 107.07 265.649 107.166 265.186 107.387L276.905 100.632C277.378 100.394 277.906 100.287 278.434 100.321C278.962 100.354 279.471 100.528 279.91 100.823L307.708 116.88C308.83 117.583 309.769 118.543 310.446 119.682V119.682Z" fill="#455A64"/>
<path d="M305.588 111.297V96.9558C305.588 86.6316 298.992 74.4428 290.852 69.7549C287.123 67.624 283.725 67.4109 281.125 68.8173L272.143 74.038L276.128 81.6666V94.2921C276.199 95.5993 276.577 96.8712 277.232 98.0043C277.888 99.1374 278.802 100.1 279.9 100.813L288.86 105.991L295.604 118.893L304.479 113.737C304.863 113.464 305.168 113.095 305.363 112.666C305.557 112.238 305.635 111.765 305.588 111.297Z" fill="#263238"/>
<path d="M290.852 90.1796L302.402 83.5099C299.706 77.6286 295.54 72.4292 290.852 69.7336C287.123 67.6027 283.725 67.3896 281.125 68.796L272.143 74.0167L276.128 81.6453V84.1278L290.852 90.1796Z" fill="#455A64"/>
<path d="M296.744 116.432V102.081C296.744 91.7458 290.149 79.5678 282.02 74.8691C273.891 70.1705 267.295 74.7413 267.295 85.0761V99.4277C267.365 100.735 267.742 102.008 268.395 103.143C269.049 104.278 269.96 105.242 271.056 105.959L292.983 118.616C295.061 119.81 296.744 118.84 296.744 116.432Z" fill="#37474F"/>
<path d="M268.957 119.82C265.534 132.549 263.892 145.69 264.078 158.869C264.17 160.216 264.531 161.53 265.14 162.734C265.75 163.939 266.595 165.008 267.626 165.88C274.498 170.978 281.934 175.268 289.787 178.665C290.236 178.921 290.745 179.05 291.261 179.039C291.777 179.028 292.28 178.877 292.718 178.603C293.155 178.328 293.509 177.94 293.744 177.481C293.978 177.021 294.084 176.506 294.049 175.991C294.741 160.35 294.986 145.775 294.177 133.65C293.851 130.921 292.494 128.421 290.384 126.661C285.343 122.976 279.92 119.843 274.21 117.317C273.706 117.08 273.156 116.958 272.6 116.959C272.043 116.96 271.493 117.085 270.991 117.325C270.488 117.565 270.045 117.913 269.694 118.344C269.342 118.776 269.091 119.28 268.957 119.82V119.82Z" fill="#DF4D3B"/>
<path opacity="0.15" d="M293.708 177.291C293.891 176.873 293.996 176.425 294.017 175.969C294.709 160.329 294.954 145.753 294.145 133.629C294.012 132.279 293.598 130.973 292.93 129.793C291.385 127.598 290.799 146.073 290.852 157.335C290.906 168.597 291.012 179.709 292.855 178.42L293.069 178.25C293.306 177.947 293.52 177.626 293.708 177.291Z" fill="black"/>
<g opacity="0.15">
<path opacity="0.15" d="M266.667 157.91L267.561 158.486C268.116 158.869 268.925 159.37 269.884 159.999C271.813 161.256 274.38 162.875 277.012 164.378C279.644 165.88 282.339 167.286 284.385 168.309C285.45 168.821 286.26 169.279 286.867 169.556C287.475 169.833 287.805 170.046 287.805 170.046C287.805 170.046 287.432 169.982 286.74 169.822C286.047 169.662 285.131 169.449 284.033 169.076C282.773 168.677 281.536 168.211 280.326 167.681C279.665 167.372 278.972 167.084 278.301 166.722C277.63 166.359 276.937 166.008 276.256 165.656C274.924 164.868 273.613 164.037 272.441 163.174C271.369 162.396 270.338 161.564 269.351 160.681C268.478 159.913 267.817 159.2 267.348 158.72C266.88 158.241 266.667 157.91 266.667 157.91Z" fill="black"/>
<path opacity="0.15" d="M266.667 150.623L267.561 151.198C268.116 151.581 268.925 152.082 269.884 152.711C271.813 153.968 274.38 155.577 277.012 157.079C279.644 158.581 282.339 159.988 284.385 161.021C285.45 161.533 286.26 161.991 286.867 162.268C287.475 162.545 287.805 162.758 287.805 162.758L286.74 162.534C286.079 162.364 285.131 162.151 284.033 161.788C282.773 161.386 281.536 160.916 280.326 160.382C279.665 160.073 278.972 159.796 278.301 159.434C277.63 159.072 276.937 158.709 276.256 158.368C274.924 157.58 273.613 156.749 272.441 155.897C271.269 155.044 270.214 154.181 269.351 153.403C268.488 152.626 267.817 151.922 267.348 151.443C266.88 150.964 266.667 150.623 266.667 150.623Z" fill="black"/>
<path opacity="0.15" d="M268.169 144.592C268.169 144.592 268.478 144.773 269 145.114C269.522 145.455 270.279 145.924 271.131 146.499C272.9 147.639 275.276 149.099 277.726 150.42C280.177 151.741 282.702 152.945 284.609 153.872L286.91 155.012L287.773 155.46C287.773 155.46 287.422 155.46 286.814 155.279C286.207 155.097 285.333 154.959 284.311 154.65C283.137 154.314 281.981 153.919 280.848 153.467C280.23 153.201 279.58 152.966 278.951 152.647C278.323 152.327 277.673 152.018 277.033 151.699C276.394 151.379 275.787 150.985 275.19 150.633C274.594 150.282 274.029 149.855 273.475 149.482C272.478 148.77 271.524 147.997 270.619 147.17C269.831 146.457 269.213 145.796 268.787 145.349C268.361 144.901 268.169 144.592 268.169 144.592Z" fill="black"/>
<path opacity="0.15" d="M268.797 137.795C268.797 137.795 269.096 137.965 269.607 138.295C270.119 138.626 270.843 139.063 271.738 139.617C273.453 140.682 275.744 142.131 278.131 143.367C280.517 144.603 282.957 145.754 284.811 146.638L287.038 147.703C287.571 147.97 287.869 148.14 287.869 148.14L286.942 147.97C286.356 147.831 285.504 147.671 284.513 147.384C283.522 147.096 282.382 146.744 281.157 146.318C280.56 146.073 279.931 145.849 279.313 145.551C278.695 145.253 278.067 144.965 277.449 144.656C276.831 144.347 276.234 143.974 275.659 143.591C275.084 143.207 274.519 142.845 273.986 142.525C273.027 141.834 272.109 141.087 271.237 140.288C270.47 139.595 269.884 138.945 269.469 138.519C269.053 138.093 268.797 137.795 268.797 137.795Z" fill="black"/>
<path opacity="0.15" d="M269.863 131.306L270.63 131.764C271.099 132.073 271.781 132.499 272.601 133.011C274.546 134.272 276.555 135.431 278.621 136.484C280.869 137.613 283.213 138.615 284.96 139.435C286.708 140.256 287.848 140.884 287.848 140.884C286.771 140.717 285.704 140.493 284.651 140.213C282.336 139.634 280.086 138.816 277.939 137.773C277.364 137.464 276.778 137.155 276.224 136.825C275.669 136.495 275.158 136.122 274.647 135.759C273.737 135.108 272.872 134.396 272.058 133.629C271.268 132.912 270.534 132.135 269.863 131.306Z" fill="black"/>
<path opacity="0.15" d="M272.228 125.062C272.228 125.062 273.23 125.627 274.636 126.522C276.042 127.417 277.928 128.536 279.878 129.537C281.828 130.539 283.82 131.498 285.322 132.254C286.825 133.011 287.805 133.597 287.805 133.597C286.87 133.47 285.945 133.282 285.035 133.032C283.017 132.512 281.063 131.772 279.207 130.827C278.706 130.55 278.205 130.273 277.726 129.974C277.246 129.676 276.799 129.356 276.362 129.047C275.57 128.48 274.822 127.853 274.125 127.172C273.437 126.52 272.803 125.815 272.228 125.062V125.062Z" fill="black"/>
</g>
<path d="M257.077 172.294C249.768 173.604 242.545 177.333 235.364 182.714C234.924 183.005 234.563 183.401 234.314 183.866C234.065 184.331 233.934 184.85 233.934 185.378C233.934 185.905 234.065 186.424 234.314 186.889C234.563 187.354 234.924 187.75 235.364 188.041C244.04 194.397 253.404 199.758 263.278 204.023C265.833 205.002 268.672 204.929 271.173 203.82C277.292 200.695 282.915 196.681 287.858 191.909C288.256 191.523 288.563 191.053 288.755 190.533C288.948 190.013 289.021 189.456 288.97 188.904C288.919 188.352 288.744 187.819 288.46 187.343C288.175 186.867 287.788 186.462 287.326 186.155C280.513 181.097 273.171 176.792 265.431 173.317C262.77 172.305 259.904 171.954 257.077 172.294V172.294Z" fill="#DF4D3B"/>
<g opacity="0.2">
<path opacity="0.2" d="M239.274 185.388C239.274 185.388 239.732 185.505 240.521 185.75C241.309 185.995 242.428 186.347 243.717 186.816C246.947 188.036 250.078 189.504 253.082 191.206C256.079 192.905 258.93 194.851 261.606 197.023C262.826 198.011 263.996 199.06 265.111 200.166L261.126 197.694C258.75 196.213 255.565 194.285 252.326 192.463C249.087 190.641 245.805 188.883 243.333 187.572L240.339 185.964C239.679 185.644 239.274 185.388 239.274 185.388Z" fill="black"/>
<path opacity="0.2" d="M246.242 181.393L247.489 181.765C248.267 182.011 249.396 182.362 250.685 182.831C253.918 184.053 257.052 185.521 260.061 187.221C263.056 188.924 265.907 190.87 268.585 193.038C269.803 194.043 270.969 195.11 272.079 196.234L268.095 193.762C265.719 192.281 262.544 190.353 259.305 188.531C256.066 186.709 252.784 184.941 250.312 183.63L247.308 182.032C246.647 181.638 246.242 181.393 246.242 181.393Z" fill="black"/>
<path opacity="0.2" d="M252.23 177.994L253.466 178.356C254.254 178.612 255.384 178.963 256.662 179.422C259.895 180.644 263.029 182.111 266.038 183.811C269.033 185.515 271.884 187.461 274.562 189.629C275.78 190.634 276.947 191.701 278.056 192.825L274.125 190.353C271.749 188.862 268.574 186.944 265.335 185.111C262.096 183.279 258.814 181.531 256.332 180.221L253.338 178.623C252.635 178.239 252.23 177.994 252.23 177.994Z" fill="black"/>
<path opacity="0.2" d="M258.75 175.202C258.75 175.202 259.177 175.309 259.901 175.533C260.626 175.756 261.659 176.065 262.874 176.524C265.844 177.631 268.723 178.97 271.483 180.53C274.247 182.078 276.874 183.86 279.335 185.857C280.451 186.773 281.518 187.748 282.531 188.776C282.531 188.776 282.158 188.563 281.519 188.169L278.866 186.539C276.671 185.186 273.752 183.438 270.779 181.755C267.807 180.071 264.813 178.463 262.543 177.248L259.805 175.756C259.123 175.426 258.75 175.202 258.75 175.202Z" fill="black"/>
</g>
<path d="M451.341 144.038L403.513 116.422L430.085 101.079L455.943 117.412L451.341 144.038Z" fill="#DF4D3B"/>
<path opacity="0.35" d="M451.341 144.038L403.513 116.422L430.085 101.079L455.943 117.412L451.341 144.038Z" fill="black"/>
<path d="M431.172 137.443L438.044 123.805L421.7 114.344C416.501 111.361 409.575 111.691 401.979 116.081C385.837 125.404 372.753 149.44 372.743 169.779C372.743 180.434 376.333 187.892 382.076 191.344L382.31 191.483L399.07 201.157L406.315 186.773C420.091 176.321 430.639 155.62 431.172 137.443Z" fill="#37474F"/>
<path d="M431.172 137.443L438.044 123.805L421.7 114.344C416.501 111.361 409.575 111.691 401.979 116.081C385.837 125.404 372.753 149.44 372.743 169.779C372.743 180.434 376.333 187.892 382.076 191.344L382.31 191.483L399.07 201.157L406.315 186.773C420.091 176.321 430.639 155.62 431.172 137.443Z" fill="#263238"/>
<path d="M448.209 145.871C448.209 163.408 438.481 183.694 425.451 194.881C425.445 194.899 425.445 194.917 425.451 194.935C423.461 196.654 421.322 198.19 419.058 199.527C402.916 208.849 389.822 199.921 389.833 179.582C389.833 164.228 397.291 146.734 407.945 135.088C407.979 135.061 408.008 135.029 408.03 134.993C411.217 131.435 414.924 128.382 419.026 125.936C435.125 116.614 448.209 125.542 448.209 145.871Z" fill="#37474F"/>
<path d="M419.026 138.21C429.297 132.275 437.628 138.455 437.628 152.008C437.628 165.56 429.254 181.361 419.026 187.295C408.797 193.23 400.423 187.05 400.423 173.444C400.423 159.839 408.712 144.134 419.026 138.21Z" fill="#455A64"/>
<path d="M427.358 158.933C426.708 165.677 422.414 172.859 417.769 174.968C416.983 175.417 416.08 175.619 415.177 175.549C414.275 175.479 413.415 175.139 412.708 174.574C411.067 173.2 410.204 170.312 410.577 166.562C411.227 159.817 415.499 152.636 420.166 150.58C421.212 150.041 422.411 149.876 423.565 150.111C426.25 150.708 427.837 154.021 427.358 158.933Z" fill="#FAFAFA"/>
<path d="M425.696 158.081C425.035 164.825 420.752 172.006 416.107 174.062C415.063 174.597 413.868 174.762 412.718 174.531C411.078 173.157 410.215 170.269 410.587 166.519C411.237 159.775 415.51 152.594 420.177 150.537C421.223 149.998 422.422 149.833 423.575 150.069C423.575 150.069 423.575 150.069 423.575 150.069C425.205 151.454 426.058 154.298 425.696 158.081Z" fill="#E0E0E0"/>
<path d="M448.208 145.871C448.208 163.408 438.481 183.694 425.45 194.881C433.164 186.475 441.155 172.411 443.989 159.008C446.461 147.288 445.534 130.454 435.466 126.203C425.397 121.951 412.132 130.912 407.924 134.993C411.142 131.427 414.886 128.373 419.026 125.936C435.125 116.614 448.208 125.542 448.208 145.871Z" fill="#455A64"/>
<path d="M456.146 77.7778C450.222 63.7778 425.514 49.2344 414.966 54.519C411.685 56.1492 402.352 61.8067 390.589 68.5829C390.589 68.5829 351.903 92.0228 348.333 94.0472C348.333 94.0472 366.819 93.7382 371.017 95.2511C375.215 96.7641 374.384 99.9817 374.107 101.175L371.976 108.037C367.16 131.476 330.732 141.065 322.965 149.728C320.227 152.807 317.979 153.904 313.536 156.461C309.093 159.018 281.412 174.478 277.47 176.758C270.364 180.86 258.857 186.091 258.857 186.091V254.887L380.403 185.196C380.404 183.31 380.503 181.425 380.702 179.549C382.833 157.175 399.262 131.242 416.842 121.099C435.913 110.082 451.384 120.374 451.384 144.091L454.473 142.312C465.501 135.642 462.059 91.7138 456.146 77.7778Z" fill="#DF4D3B"/>
<path d="M388.735 94.2922C381.277 94.2922 380.968 98.1811 378.528 105.874C376.61 111.925 373.648 117.295 377.26 115.463C380.872 113.63 393.295 100.397 395.607 98.1066C400.38 93.3973 392.144 94.2922 388.735 94.2922Z" fill="black"/>
<path d="M425.088 53.901C421.157 53.0273 417.577 53.0806 414.903 54.4231C411.621 56.0639 402.277 61.7321 390.514 68.5083L374.682 77.6286L290.298 29.0121C290.298 29.0121 323.029 12.3059 334.642 7.82032C346.256 3.33478 421.807 45.1963 425.088 53.901Z" fill="#DF4D3B"/>
<path opacity="0.5" d="M261.116 190.481L326.257 153.19C326.92 153.69 327.447 154.348 327.791 155.103C328.136 155.859 328.286 156.688 328.228 157.516L261.116 190.481Z" fill="white"/>
<path d="M316.615 168.021C316.554 168.054 316.486 168.071 316.418 168.07C316.349 168.069 316.281 168.051 316.222 168.016C316.162 167.982 316.112 167.934 316.076 167.875C316.041 167.816 316.021 167.749 316.018 167.68V165.816C316.018 164.409 318.149 162.044 320.727 160.553L324.563 158.336C327.163 156.834 329.272 156.76 329.272 158.166V159.689C329.272 160.003 329.19 160.311 329.033 160.582C328.875 160.854 328.649 161.079 328.377 161.234L316.615 168.021Z" fill="#37474F"/>
<path opacity="0.5" d="M362.791 131.658C359.446 134.161 340.417 145.508 337.753 147.202C339.296 148.701 340.439 150.562 341.078 152.615C341.078 152.615 408.712 113.577 425.248 98.9589C441.784 84.3409 450.819 70.7245 438.033 63.6392C434.155 61.5083 430.575 58.589 425.855 60.3364C425.515 60.4484 425.2 60.6257 424.928 60.8584C424.517 61.3357 424.247 61.9189 424.151 62.5418C420.4 77.0852 408.499 87.9741 398.9 98.9589C389.492 109.741 374.607 122.814 362.791 131.658Z" fill="white"/>
<path opacity="0.15" d="M238.464 28.0428C238.464 28.0428 318.596 5.47656 324.286 8.86469C329.975 12.2528 254.307 45.6014 254.307 45.6014L238.464 28.0428Z" fill="black"/>
<path opacity="0.15" d="M268.797 237.329C265.931 238.852 265.356 232.705 263.715 220.74C262.074 208.775 262.245 188.723 262.245 188.723C260.274 197.694 261.094 219.429 262.245 233.355C263.396 247.28 266.017 245.98 268.797 243.913L333.353 204.279L268.797 237.329Z" fill="black"/>
<path opacity="0.15" d="M330.306 150.228C330.306 150.228 334.035 154.575 334.035 164.079C334.035 175.437 334.152 202.435 334.152 202.435C334.152 202.435 336.283 172.4 337.529 163.014C338.776 153.627 334.024 148.279 334.024 148.279L330.306 150.228Z" fill="black"/>
<path opacity="0.15" d="M403.513 128.546C403.513 128.546 401.851 120.449 399.518 117.413C397.184 114.376 384.804 112.863 384.804 112.863C384.804 112.863 394.51 116.209 397.195 119.075C399.88 121.941 403.513 128.546 403.513 128.546Z" fill="black"/>
<path opacity="0.15" d="M439.61 117.413C439.61 117.413 451.948 110.349 454.601 105.693C457.254 101.037 458.373 85.5557 458.373 85.5557C458.373 85.5557 459.438 103.349 456.317 107.61C453.195 111.872 439.61 117.413 439.61 117.413Z" fill="black"/>
<path d="M409.916 81.1128C399.453 71.1082 386.668 63.8632 374.415 56.2878C362.163 48.7125 350.049 41.3715 337.711 34.2437C327.546 28.3411 317.339 22.5237 306.813 17.1965C304.007 15.7404 301.122 14.4421 298.172 13.3076L297.053 12.9134H296.915C295.455 12.4553 293.622 11.9225 291.502 11.3792C280.645 8.55571 262.138 5.11431 245.88 6.13715C231.709 7.03212 160.154 41.2437 152.248 50.3852C148.568 54.5395 145.1 58.8779 141.86 63.3837C141.86 63.3837 151.619 55.851 156.403 57.5877C160.26 58.9941 187.877 83.9149 206.479 93.813C228.683 105.533 259.358 117.146 266.986 120.598C274.615 124.05 269.874 133.277 269.874 133.277C273.4 127.684 275.126 124.53 279.463 120.886C287.432 114.184 319.449 97.5314 319.95 97.2757C324.383 94.982 329.245 93.6359 334.227 93.3228L367.586 94.3883L405.654 86.2802C407.667 86.207 409.628 85.6241 411.355 84.5862C411.866 83.2863 410.864 82.0397 409.916 81.1128Z" fill="#DF4D3B"/>
<path opacity="0.5" d="M275.659 123.475C285.443 115.592 295.815 108.469 306.685 102.166C325.394 91.213 330.285 89.2206 349.622 89.1354C364.368 89.0714 379.157 89.5296 393.913 89.6681C394.581 89.7283 395.252 89.6145 395.863 89.3378C396.163 89.1881 396.395 88.9297 396.512 88.615C396.629 88.3004 396.622 87.9531 396.492 87.6437C396.226 87.2958 395.85 87.048 395.426 86.9405C385.24 83.3393 369.216 82.0928 359.563 77.2023C351.274 72.9938 343.187 68.3911 335.058 63.7777C312.854 51.1095 291.928 39.1019 269.895 24.42C249.342 10.7396 246.327 6.48849 237.931 7.9375C214.545 15.2678 159.088 42.3622 152.205 50.353L152.12 50.4596L152.205 54.4763C152.205 54.4763 153.409 55.5418 155.54 57.3637C155.82 57.3986 156.095 57.4629 156.361 57.5555C159.855 58.834 182.858 79.4185 201.024 90.5844C202.835 91.6498 204.657 92.7153 206.479 93.7168C225.657 103.817 251.036 113.832 262.575 118.616C270.481 121.653 275.659 123.475 275.659 123.475Z" fill="white"/>
<path opacity="0.15" d="M396.566 85.8007C390.667 85.1565 384.806 84.2033 379.007 82.9453C372.444 81.5815 365.572 80.2816 359.531 77.2238C351.242 73.0153 343.155 68.4125 335.026 63.7991C312.832 51.131 291.896 39.1233 269.863 24.4414C249.321 10.7717 246.295 6.50994 237.899 7.95895C240.462 7.06815 243.112 6.4538 245.805 6.12637C265.249 4.91176 287.901 10.0685 296.84 12.9026C300.244 14.0968 303.553 15.5464 306.738 17.239C317.265 22.4704 327.472 28.341 337.636 34.2862C349.974 41.4602 362.209 48.8083 374.341 56.3303C386.593 63.9057 399.379 71.1507 409.842 81.1553C410.79 82.0609 411.791 83.2862 411.301 84.5328C408.488 86.3653 404.909 86.3973 401.552 86.2268C399.933 86.099 398.239 85.9711 396.566 85.8007Z" fill="black"/>
<path d="M374.458 62.2116C348.546 47.2953 330.093 35.8417 309.977 24.2177C302.647 19.9559 295.743 16.8447 286.068 15.3318C281.039 14.5434 272.686 13.0624 268.169 13.137C260.508 13.4247 264.972 17.7823 280.304 26.6256C295.636 35.4688 337.476 60.933 346.362 66.0472C355.248 71.1613 368.736 78.1507 386.295 80.9635C403.854 83.7762 417.119 86.8447 374.458 62.2116Z" fill="#455A64"/>
<path d="M376.067 93.9832C371.017 90.8508 350.72 90.6057 341.376 90.1795C332.309 89.764 326.065 91.1598 319.971 94.4413C319.556 94.6544 319.14 94.8782 318.735 95.1232C313.813 98.0426 287.688 113.46 280.006 117.753C272.324 122.047 271.163 127.46 267.434 135.216C263.705 142.973 242.534 186.454 241.384 192.463C240.233 198.472 271.994 182.192 271.994 182.192L318.714 155.204C320.536 154.138 321.037 153.84 323.242 152.444C325.447 151.049 354.087 133.554 364.997 124.583C370.441 120.119 371.976 116.965 374.064 109.102C376.568 99.7366 379.231 95.9436 376.067 93.9832ZM320.003 150.282C316.434 152.498 307.218 157.164 293.292 165.411C275.446 176.001 249.097 188.222 248.916 188.297C254.425 174.691 270.023 141.992 272.9 135.024C275.776 128.056 278.6 123.24 282.35 121.173C290.618 116.549 316.231 102.155 321.175 99.2145C321.425 99.0652 321.709 98.982 322 98.9728C322.291 98.9636 322.58 99.0287 322.839 99.1619C323.098 99.2952 323.319 99.4922 323.481 99.7344C323.643 99.9766 323.74 100.256 323.764 100.546C323.828 101.175 323.86 101.931 323.86 102.837V143.228C323.977 144.652 323.674 146.079 322.988 147.333C322.303 148.586 321.265 149.612 320.003 150.282V150.282ZM373.212 97.8934C372.327 101.686 368.886 117.402 364.198 121.205C360.565 124.157 339.916 137.017 332.309 142.046C329.304 144.038 328.686 141.374 328.686 138.114C328.686 129.857 328.686 112.543 328.686 102.784C328.505 97.6164 329.816 95.5707 334.014 94.8462C339.245 93.9512 374.277 93.1202 373.212 97.8934Z" fill="#263238"/>
<path opacity="0.5" d="M320.003 150.282C316.434 152.498 307.217 157.164 293.292 165.411C275.446 176.001 249.097 188.222 248.916 188.297C254.424 174.691 270.023 141.992 272.899 135.024C275.776 128.056 278.599 123.24 282.35 121.173C290.618 116.549 316.231 102.155 321.175 99.2145C321.425 99.0652 321.709 98.982 322 98.9728C322.291 98.9636 322.58 99.0287 322.839 99.1619C323.098 99.2952 323.319 99.4922 323.481 99.7344C323.642 99.9766 323.74 100.256 323.764 100.546C323.828 101.175 323.86 101.931 323.86 102.837V143.228C323.977 144.652 323.674 146.079 322.988 147.333C322.303 148.586 321.265 149.611 320.003 150.282V150.282Z" fill="black"/>
<path opacity="0.5" d="M373.211 97.8935C372.327 101.686 368.886 117.402 364.198 121.205C360.564 124.157 339.916 137.017 332.309 142.046C329.304 144.038 328.686 141.374 328.686 138.114C328.686 129.857 328.686 112.543 328.686 102.784C328.505 97.6165 329.815 95.5708 334.013 94.8463C339.245 93.9513 374.277 93.1203 373.211 97.8935Z" fill="black"/>
<path d="M235.46 189.831C223.367 180.839 196.656 161.543 168.795 145.285C133.773 124.849 96.7596 112.874 96.6851 112.852C97.6866 116.635 103.664 122.644 111.708 129.175C117.397 133.82 123.822 138.562 131.238 143.548C148.775 155.779 165.385 164.228 171.405 167.819C201.547 184.163 232.221 196.874 237.282 190.854C237.282 190.854 235.47 189.852 235.46 189.831Z" fill="#455A64"/>
<path d="M237.282 190.854C235.843 189.959 188.175 160.574 166.152 147.33C145.184 134.715 101.948 115.228 96.6958 112.852C121.779 121.158 145.94 132.026 168.795 145.285C196.656 161.543 225.2 181.851 237.282 190.854Z" fill="#37474F"/>
<path d="M104.037 100.003L102.971 104.478C100.499 109.113 95.0336 114.951 93.0732 114.472C91.3152 114.046 90.2391 111.489 89.6957 108.335C89.4319 106.828 89.2787 105.304 89.2376 103.775C89.0671 98.8097 91.2726 87.2496 98.1554 84.1704C98.8452 83.8729 99.6115 83.8013 100.345 83.9659C101.078 84.1304 101.74 84.5228 102.236 85.0867C103.155 86.0083 103.838 87.1376 104.228 88.379C105.368 91.8097 104.196 99.8219 104.037 100.003Z" fill="#DF4D3B"/>
<path opacity="0.3" d="M104.037 100.003C103.674 101.857 102.971 104.478 102.971 104.478C100.499 109.113 95.0336 114.951 93.0732 114.472C91.3152 114.046 90.2391 111.489 89.6957 108.335C89.4319 106.828 89.2787 105.304 89.2376 103.775C89.0671 98.8097 91.2726 87.2496 98.1554 84.1704C98.8452 83.8729 99.6115 83.8013 100.345 83.9659C101.078 84.1304 101.74 84.5228 102.236 85.0867C103.155 86.0083 103.838 87.1376 104.228 88.379C105.368 91.8097 104.196 99.8219 104.037 100.003Z" fill="black"/>
<path d="M102.96 104.478C100.489 109.113 95.0229 114.951 93.0625 114.472C91.3045 114.046 90.2284 111.489 89.685 108.335C89.4211 106.828 89.268 105.304 89.2268 103.775C89.0564 98.8097 91.2619 87.2496 98.1447 84.1704C98.8345 83.8729 99.6008 83.8013 100.334 83.9659C101.067 84.1304 101.729 84.5228 102.225 85.0867L101.288 87.2176C96.4719 89.2633 95.1721 96.7001 95.6195 102.347C96.067 107.994 100.201 107.397 102.96 104.478Z" fill="#DF4D3B"/>
<path opacity="0.35" d="M102.96 104.478C100.489 109.113 95.0229 114.951 93.0625 114.472C91.3045 114.046 90.2284 111.489 89.685 108.335C89.4211 106.828 89.268 105.304 89.2268 103.775C89.0564 98.8097 91.2619 87.2496 98.1447 84.1704C98.8345 83.8729 99.6008 83.8013 100.334 83.9659C101.067 84.1304 101.729 84.5228 102.225 85.0867L101.288 87.2176C96.4719 89.2633 95.1721 96.7001 95.6195 102.347C96.067 107.994 100.201 107.397 102.96 104.478Z" fill="black"/>
<path d="M104.207 88.3364C102.47 86.4932 98.1446 86.3973 94.5114 91.3942C90.8782 96.3912 89.6849 104.968 89.6742 108.292C89.4104 106.785 89.2573 105.261 89.2161 103.732C89.0456 98.7671 91.2511 87.207 98.1339 84.1279C101.011 82.8493 103.387 85.79 104.207 88.3364Z" fill="#37474F"/>
<path d="M258.804 254.834L210.976 227.207L237.548 211.875L258.804 224.192V254.834Z" fill="#DF4D3B"/>
<path opacity="0.35" d="M258.804 254.834L210.976 227.207L237.548 211.875L258.804 224.192V254.834Z" fill="black"/>
<path d="M239.114 247.962L245.986 234.324L229.642 224.863C224.443 221.88 217.518 222.21 209.921 226.6C193.779 235.922 180.685 259.959 180.685 280.298C180.685 290.953 184.276 298.411 190.018 301.863L190.253 302.002L207.002 311.697L214.247 297.314C227.991 286.808 238.582 266.107 239.114 247.962Z" fill="#37474F"/>
<path d="M239.114 247.962L245.986 234.324L229.642 224.863C224.443 221.88 217.518 222.21 209.921 226.6C193.779 235.922 180.685 259.959 180.685 280.298C180.685 290.953 184.276 298.411 190.018 301.863L190.253 302.002L207.002 311.697L214.247 297.314C227.991 286.808 238.582 266.107 239.114 247.962Z" fill="#263238"/>
<path d="M256.151 256.358C256.151 273.895 246.423 294.181 233.393 305.368C233.381 305.372 233.369 305.379 233.36 305.389C233.351 305.398 233.344 305.409 233.34 305.422C231.35 307.14 229.211 308.677 226.947 310.014C210.805 319.336 197.7 310.408 197.722 290.068C197.722 274.715 205.18 257.221 215.834 245.575C215.868 245.548 215.897 245.516 215.92 245.479C219.122 241.902 222.851 238.834 226.979 236.38C243.067 227.1 256.151 236.029 256.151 256.358Z" fill="#37474F"/>
<path d="M226.925 248.697C237.196 242.763 245.528 248.942 245.528 262.495C245.528 276.047 237.196 291.848 226.925 297.782C216.655 303.717 208.323 297.537 208.323 283.931C208.323 270.326 216.655 254.642 226.925 248.697Z" fill="#455A64"/>
<path d="M235.332 269.484C234.618 276.228 230.281 283.335 225.647 285.466C224.858 285.912 223.953 286.109 223.051 286.033C222.148 285.957 221.289 285.611 220.586 285.04C218.956 283.644 218.125 280.778 218.519 277.006C219.222 270.272 223.558 263.155 228.204 261.024C229.254 260.497 230.452 260.339 231.603 260.577V260.577C234.288 261.248 235.843 264.583 235.332 269.484Z" fill="#FAFAFA"/>
<path d="M233.638 268.621C232.935 275.355 228.588 282.472 223.953 284.603C222.9 285.122 221.705 285.28 220.554 285.05C218.924 283.655 218.093 280.789 218.487 277.017C219.19 270.283 223.527 263.166 228.172 261.035C229.222 260.508 230.42 260.35 231.571 260.588C233.233 261.994 234.064 264.839 233.638 268.621Z" fill="#E0E0E0"/>
<path d="M256.151 256.358C256.151 273.895 246.423 294.181 233.393 305.368C241.107 296.962 249.098 282.898 251.932 269.495C254.403 257.775 253.466 240.941 243.408 236.689C233.35 232.438 220.075 241.399 215.866 245.479C219.069 241.902 222.798 238.834 226.926 236.38C243.067 227.1 256.151 236.029 256.151 256.358Z" fill="#455A64"/>
<path d="M258.9 186.049C258.9 186.049 256.119 185.527 256.769 183.108C256.769 183.108 240.478 190.566 237.058 191.696C229.6 194.157 201.546 184.184 171.405 167.819C165.385 164.228 148.775 155.79 131.248 143.548C123.79 138.562 117.397 133.82 111.697 129.175C106.864 125.282 102.435 120.913 98.4749 116.134C97.516 114.962 95.5236 111.734 96.6956 109.102C36.9239 151.624 4.15068 169.225 11.172 217.714C11.172 217.714 11.4064 221.273 12.6956 228.443C14.6773 239.385 20.516 257.988 35.5495 268.6C49.4003 278.338 50.3059 279.052 69.0259 289.152C87.7458 299.253 112.965 306.615 137.534 305.837C165.236 304.942 189.454 294.384 190.21 287.97C190.549 285.099 191.065 282.253 191.755 279.446C193.566 272.167 196.317 265.154 199.938 258.585C205.467 248.516 212.851 239.694 221.087 233.983C222.152 233.227 223.218 232.534 224.358 231.852C242.151 221.581 256.811 229.849 258.697 250.253C258.836 251.734 258.9 253.268 258.9 254.866V186.049Z" fill="#DF4D3B"/>
<path d="M95.2893 292.274C78.0503 288.012 65.5313 281.193 53.2999 273.98C41.0686 266.767 33.1097 260.033 28.5602 254.312C24.2984 248.9 21.6348 241.889 24.2984 242.869C28.8159 246.758 38.5754 255.026 44.7976 258.787C63.4217 270.081 83.1538 284.07 113.594 284.592C115.554 284.511 117.518 284.662 119.443 285.04C126.912 287.256 107.009 295.193 95.2893 292.274Z" fill="#455A64"/>
<path d="M157.991 278.434C156.297 278.199 152.067 279.329 144.886 281.396C137.705 283.463 135.957 283.655 133.294 285.487C131.046 287.043 125.026 291.944 122.117 293.446C117.514 295.822 122.117 297.537 135.009 297.548C147.901 297.559 152.248 293.702 155.253 289.749C158.257 285.796 161.826 278.967 157.991 278.434Z" fill="#455A64"/>
<path d="M11.5024 220.804C11.7368 222.583 12.0991 225.066 12.6957 228.422C13.7031 233.858 15.2632 239.177 17.3518 244.297C17.9662 245.02 18.8009 245.521 19.7277 245.725C21.9225 245.575 20.0473 241.782 18.4705 236.136C16.8936 230.489 12.9408 225.002 11.5024 220.804Z" fill="#455A64"/>
<path opacity="0.85" d="M46.9605 205.174C64.0392 217.517 82.353 228.053 101.607 236.615C104.452 237.904 105.869 241.324 104.047 243.839C101.273 247.574 97.7496 250.687 93.7017 252.98C90.9529 254.472 85.9985 254.046 83.0472 252.895C66.6393 246.659 52.959 238.845 42.0061 229.455C39.6302 227.42 36.86 223.276 36.7641 220.154C36.5826 215.286 37.2755 210.425 38.8098 205.802C39.9818 202.883 44.446 203.32 46.9605 205.174Z" fill="white"/>
<path d="M89.0459 250.53C87.425 250.53 85.8153 250.26 84.2833 249.731C68.3016 243.658 54.8343 235.965 44.2437 226.877C42.2087 225.129 40.2376 221.805 40.1844 220.037C40.0245 215.669 40.6266 211.306 41.9637 207.145C42.4964 206.079 44.2864 207.411 44.9469 207.901C62.222 220.386 80.7422 231.052 100.212 239.726C100.5 239.853 100.758 240.039 100.969 240.272C101.18 240.505 101.339 240.78 101.437 241.079C101.481 241.21 101.492 241.35 101.468 241.486C101.443 241.622 101.385 241.749 101.299 241.857C98.8217 245.187 95.6796 247.967 92.0717 250.018C91.1147 250.415 90.0802 250.59 89.0459 250.53V250.53Z" fill="#DF4D3B"/>
<path opacity="0.35" d="M89.0459 250.53C87.425 250.53 85.8153 250.26 84.2833 249.731C68.3016 243.658 54.8343 235.965 44.2437 226.877C42.2087 225.129 40.2376 221.805 40.1844 220.037C40.0245 215.669 40.6266 211.306 41.9637 207.145C42.4964 206.079 44.2864 207.411 44.9469 207.901C62.222 220.386 80.7422 231.052 100.212 239.726C100.5 239.853 100.758 240.039 100.969 240.272C101.18 240.505 101.339 240.78 101.437 241.079C101.481 241.21 101.492 241.35 101.468 241.486C101.443 241.622 101.385 241.749 101.299 241.857C98.8217 245.187 95.6796 247.967 92.0717 250.018C91.1147 250.415 90.0802 250.59 89.0459 250.53V250.53Z" fill="black"/>
<path d="M62.6867 241.303L59.3838 240.515C61.1672 233.644 63.8015 227.022 67.2255 220.804L70.1661 222.487C66.9209 228.433 64.4093 234.752 62.6867 241.303V241.303Z" fill="#DF4D3B"/>
<path opacity="0.85" d="M62.6867 241.303L59.3838 240.515C61.1672 233.644 63.8015 227.022 67.2255 220.804L70.1661 222.487C66.9209 228.433 64.4093 234.752 62.6867 241.303V241.303Z" fill="white"/>
<path d="M102.417 242.539C90.1793 237.482 78.3097 231.575 66.8952 224.863C53.8008 216.84 40.8237 207.496 40.6958 207.411L41.0261 206.953C41.1539 207.038 54.1098 216.361 67.1935 224.384C78.5627 231.079 90.3902 236.965 102.588 241.996L102.417 242.539Z" fill="#DF4D3B"/>
<path d="M100.723 244.126C88.6656 239.179 76.9764 233.379 65.744 226.77C52.6497 218.737 40.5781 209.947 40.4609 209.893L40.7912 209.435C40.9084 209.531 52.9587 218.31 66.0424 226.333C77.2371 232.922 88.8871 238.704 100.904 243.636L100.723 244.126Z" fill="#DF4D3B"/>
<path d="M99.0291 245.725C87.1485 240.894 75.639 235.196 64.5938 228.677C51.4994 220.644 40.3229 212.387 40.2163 212.301L40.5573 211.843C40.6638 211.928 51.8084 220.175 64.8921 228.198C75.8991 234.694 87.3695 240.37 99.2102 245.181L99.0291 245.725Z" fill="#DF4D3B"/>
<path d="M97.3454 247.312C85.6315 242.615 74.2971 237.023 63.4428 230.584C50.3484 222.551 40.0775 214.826 40.0029 214.741L40.3439 214.294C40.4398 214.368 50.6894 222.082 63.7838 230.094C74.5986 236.519 85.8941 242.097 97.5692 246.779L97.3454 247.312Z" fill="#DF4D3B"/>
<path d="M95.6515 248.899C84.1168 244.313 72.9624 238.823 62.2923 232.481C49.1873 224.458 39.8326 217.266 39.7261 217.192L40.0777 216.744C40.1629 216.808 49.5069 223.989 62.58 232.001C73.2125 238.323 84.3277 243.795 95.822 248.367L95.6515 248.899Z" fill="#DF4D3B"/>
<path d="M93.9575 250.498C82.6042 246.022 71.63 240.638 61.1417 234.399C53.6674 229.875 46.4437 224.948 39.5024 219.642L39.854 219.206C46.782 224.491 53.9876 229.403 61.44 233.919C71.8904 240.142 82.8254 245.511 94.1387 249.976L93.9575 250.498Z" fill="#DF4D3B"/>
<path d="M92.2739 252.085C81.0871 247.725 70.2818 242.444 59.9695 236.295C52.7842 231.97 45.8609 227.224 39.2358 222.082L39.5981 221.645C46.2017 226.773 53.1038 231.505 60.2678 235.816C70.5381 241.938 81.2967 247.202 92.4337 251.552L92.2739 252.085Z" fill="#DF4D3B"/>
<g opacity="0.85">
<path opacity="0.85" d="M102.417 242.539C90.1788 237.482 78.3092 231.575 66.8947 224.863C53.8003 216.84 40.8232 207.496 40.6953 207.411L41.0256 206.953C41.1535 207.038 54.1093 216.361 67.193 224.384C78.5622 231.079 90.3897 236.965 102.587 241.996L102.417 242.539Z" fill="white"/>
<path opacity="0.85" d="M100.723 244.126C88.6656 239.179 76.9764 233.379 65.744 226.77C52.6497 218.737 40.5781 209.947 40.4609 209.893L40.7912 209.435C40.9084 209.531 52.9587 218.31 66.0424 226.333C77.2371 232.922 88.8871 238.704 100.904 243.636L100.723 244.126Z" fill="white"/>
<path opacity="0.85" d="M99.0286 245.725C87.148 240.894 75.6385 235.196 64.5933 228.677C51.4989 220.644 40.3224 212.387 40.2158 212.301L40.5568 211.843C40.6633 211.928 51.8079 220.175 64.8916 228.198C75.8986 234.694 87.369 240.37 99.2097 245.181L99.0286 245.725Z" fill="white"/>
<path opacity="0.85" d="M97.3454 247.312C85.6315 242.616 74.2971 237.023 63.4428 230.585C50.3484 222.551 40.0775 214.827 40.0029 214.741L40.3439 214.294C40.4398 214.369 50.6894 222.082 63.7838 230.095C74.5986 236.519 85.8941 242.097 97.5692 246.779L97.3454 247.312Z" fill="white"/>
<path opacity="0.85" d="M95.6515 248.9C84.1168 244.314 72.9624 238.824 62.2923 232.481C49.1873 224.458 39.8326 217.266 39.7261 217.192L40.0777 216.744C40.1629 216.808 49.5069 223.989 62.58 232.002C73.2125 238.323 84.3277 243.796 95.822 248.367L95.6515 248.9Z" fill="white"/>
<path opacity="0.85" d="M93.9575 250.498C82.6042 246.022 71.63 240.638 61.1417 234.399C53.6674 229.875 46.4437 224.948 39.5024 219.642L39.854 219.206C46.782 224.491 53.9876 229.403 61.44 233.919C71.8904 240.142 82.8254 245.511 94.1387 249.976L93.9575 250.498Z" fill="white"/>
<path opacity="0.85" d="M92.2739 252.085C81.0871 247.726 70.2818 242.444 59.9695 236.295C52.7842 231.97 45.8609 227.224 39.2358 222.082L39.5981 221.646C46.2017 226.774 53.1038 231.505 60.2678 235.816C70.5381 241.938 81.2967 247.202 92.4337 251.553L92.2739 252.085Z" fill="white"/>
</g>
<path opacity="0.5" d="M90.5054 121.813C87.8205 121.227 47.3654 151.23 42.1127 156.461C36.8601 161.692 39.1295 161.565 43.5724 170.312C49.0168 180.966 42.6881 190.257 46.5343 189.49C48.4308 189.117 56.6561 172.166 68.6744 155.673C80.959 138.817 95.1295 122.804 90.5054 121.813Z" fill="white"/>
<path opacity="0.85" d="M155.253 252.831C157.544 250.104 159.131 246.769 157.213 243.849C155.295 240.93 150.757 239.268 147.55 238.341C137.581 235.511 126.899 236.729 117.824 241.729C115.72 242.812 113.846 244.292 112.305 246.087C111.533 246.986 110.948 248.028 110.582 249.155C110.216 250.282 110.077 251.469 110.174 252.65C111.569 263.581 127.775 265.009 136.096 263.56C141.507 262.6 146.597 260.32 150.916 256.922C152.502 255.715 153.955 254.344 155.253 252.831Z" fill="white"/>
<path opacity="0.85" d="M24.1598 206.101C24.7974 206.405 25.4818 206.599 26.1842 206.676C27.1231 206.725 28.0617 206.575 28.9392 206.237C29.8166 205.9 30.6131 205.381 31.277 204.715C32.6033 203.386 33.7045 201.849 34.5373 200.166C38.7032 192.591 48.6545 172.123 34.5373 168.767C30.0198 167.702 25.1187 171.964 22.6042 175.394C18.9525 180.444 17.2394 186.638 17.7778 192.846C18.14 196.98 19.7915 204.012 24.1598 206.101Z" fill="white"/>
<path opacity="0.15" d="M160.186 252.17C173.026 253.219 185.023 258.985 193.864 268.355C183.557 261.226 172.192 255.764 160.186 252.17Z" fill="black"/>
<path opacity="0.15" d="M101.639 126.138C101.639 126.138 72.1582 152.487 49.3149 195.116L101.639 126.138Z" fill="black"/>
<path opacity="0.15" d="M109.076 229.604C109.076 229.604 155.253 205.738 223.079 196.852L109.076 229.604Z" fill="black"/>
<path opacity="0.15" d="M11.0869 211.087C14.6881 221.453 27.4202 237.233 46.3107 248.324C65.2011 259.415 89.6851 274.694 117.461 275.6C145.238 276.505 164.384 255.889 164.384 255.889C164.384 255.889 150.085 278.7 117.504 279.414C84.9225 280.128 64.7855 265.691 45.3944 253.928C25.2041 241.697 13.367 224.298 11.0869 211.087Z" fill="black"/>
<path opacity="0.5" d="M187.557 261.099C194.163 244.329 206.682 231.16 217.134 227.516C205.808 228.411 190.796 240.035 184.968 259.479C184.968 259.49 186.662 260.502 187.557 261.099Z" fill="white"/>
<path opacity="0.5" d="M183.913 263.55C182.438 270.402 182.11 277.452 182.944 284.411C182.955 277.719 184.068 271.074 186.236 264.743L183.913 263.55Z" fill="white"/>
<path opacity="0.5" d="M158.289 237.329C166.035 241.132 166.951 246.247 172.769 241.591C178.586 236.935 220.714 206.782 230.687 202.51C241.906 197.694 231.688 197.055 206.181 204.982C180.674 212.909 136.437 224.906 134.551 227.516C132.665 230.126 143.33 229.977 158.289 237.329Z" fill="white"/>
<path d="M175.837 70.8097C169.912 66.4168 164.222 61.7152 158.79 56.7245C156.524 54.6575 154.333 52.5266 152.216 50.3318C131.716 67.79 113 87.2411 96.3441 108.399C93.2223 113.801 106.562 126.362 126.305 140.277C167.292 169.161 235.918 203.916 242.375 192.708L275.148 121.323C235.971 107.078 202.25 90.4992 175.837 70.8097ZM238.603 190.14C238.022 190.289 237.423 190.353 236.824 190.332C220.842 190.332 167.442 163.696 128.947 136.569C104.058 119.021 100.904 111.883 100.51 110.444C114.902 92.2344 130.863 75.3214 148.21 59.8995C149.254 58.9797 150.602 58.4794 151.993 58.4951C153.384 58.5109 154.72 59.0416 155.743 59.9848C161.268 65.0743 167.058 69.8684 173.088 74.347C196.72 92.0228 226.34 107.61 263.47 121.791C264.184 122.067 264.835 122.485 265.381 123.021C265.927 123.557 266.357 124.199 266.646 124.908C266.934 125.617 267.075 126.377 267.058 127.142C267.041 127.907 266.868 128.661 266.55 129.356L238.603 190.14Z" fill="#37474F"/>
<path opacity="0.5" d="M238.603 190.193C238.022 190.342 237.423 190.407 236.823 190.385C220.842 190.385 167.441 163.749 128.947 136.623C104.058 119.075 100.904 111.936 100.51 110.498C114.902 92.2878 130.863 75.3747 148.21 59.9528C149.254 59.0331 150.601 58.5327 151.993 58.5485C153.384 58.5642 154.72 59.0949 155.743 60.0381C161.267 65.1277 167.057 69.9218 173.088 74.4003C196.72 92.0229 226.339 107.61 263.47 121.792C264.184 122.067 264.834 122.485 265.38 123.021C265.927 123.557 266.357 124.199 266.646 124.908C266.934 125.617 267.074 126.377 267.058 127.142C267.041 127.907 266.868 128.661 266.549 129.356L238.603 190.193Z" fill="black"/>
<path opacity="0.2" d="M128.947 136.622C135.148 140.991 141.732 145.349 148.498 149.589C162.348 127.044 182.944 96.9771 190.881 86.557C184.623 82.6291 178.707 78.5875 173.131 74.4322C169.562 71.7686 166.163 69.105 162.924 66.3455C142.403 85.417 123.502 114.035 115.703 126.682C119.23 129.548 123.577 132.84 128.947 136.622Z" fill="white"/>
<path opacity="0.2" d="M203.517 94.0792C201.003 92.6586 198.535 91.238 196.113 89.8174C180.892 110.073 166.82 131.166 153.963 152.999C156.691 154.661 159.429 156.294 162.178 157.9C171.16 143.143 186.758 118.265 203.517 94.0792Z" fill="white"/>
<path opacity="0.3" d="M197.103 174.734C216.59 183.992 236.834 190.385 238.464 186.027C240.094 181.67 254.297 153.297 258.356 142.046C262.415 130.794 263.364 129.558 260.7 126.138C258.036 122.718 243.291 117.253 219.361 105.969C195.431 94.6863 173.131 74.4321 173.131 74.4321C196.72 92.0227 226.339 107.61 263.47 121.791C264.184 122.067 264.834 122.485 265.38 123.021C265.926 123.557 266.357 124.199 266.646 124.908C266.934 125.617 267.074 126.377 267.058 127.142C267.041 127.907 266.868 128.66 266.549 129.356L238.635 190.193C238.054 190.342 237.454 190.407 236.855 190.385C220.873 190.385 167.473 163.749 128.979 136.622C136.852 142.397 177.68 165.379 197.103 174.734Z" fill="white"/>
<path d="M275.275 186.88C273.059 197.417 261.424 199.665 252.656 199.378C248.021 199.25 244.217 198.397 243.067 197.726C239.7 195.776 241.256 191.738 243.067 189.394C246.135 185.431 259.869 177.472 268.488 177.206C273.507 177.035 276.82 179.486 275.275 186.88Z" fill="#DF4D3B"/>
<path opacity="0.3" d="M275.275 186.88C273.059 197.417 261.424 199.665 252.656 199.378C248.021 199.25 244.217 198.397 243.067 197.726C239.7 195.776 241.256 191.738 243.067 189.394C246.135 185.431 259.869 177.472 268.488 177.206C273.507 177.035 276.82 179.486 275.275 186.88Z" fill="black"/>
<path d="M275.275 186.88C273.059 197.417 261.424 199.665 252.656 199.378C248.021 199.25 244.217 198.397 243.067 197.726C239.7 195.776 241.256 191.738 243.067 189.394C241.373 192.591 250.365 194.604 258.388 191.728C266.411 188.851 272.388 182.639 268.488 177.206C273.507 177.035 276.82 179.486 275.275 186.88Z" fill="#DF4D3B"/>
<path opacity="0.35" d="M275.275 186.88C273.059 197.417 261.424 199.665 252.656 199.378C248.021 199.25 244.217 198.397 243.067 197.726C239.7 195.776 241.256 191.738 243.067 189.394C241.373 192.591 250.365 194.604 258.388 191.728C266.411 188.851 272.388 182.639 268.488 177.206C273.507 177.035 276.82 179.486 275.275 186.88Z" fill="black"/>
<path d="M275.276 186.88C273.06 197.417 261.425 199.665 252.656 199.378C261.35 199.132 268.286 194.114 270.907 188.648C273.528 183.183 271.536 177.898 268.457 177.206C273.507 177.035 276.821 179.486 275.276 186.88Z" fill="#37474F"/>
<path d="M375.971 89.6682C373.276 89.7726 370.664 90.6253 368.426 92.1307C366.189 93.6362 364.415 95.7349 363.303 98.1918C360.842 104.276 356.74 127.897 355.323 130.997C355.323 130.997 353.277 133.746 350.773 136.431C349.186 138.146 340.119 147.629 336.592 150.974C335.729 151.795 333.108 152.871 332.128 153.521C331.039 154.279 330.195 155.338 329.699 156.568C329.367 157.376 329.104 158.209 328.91 159.061C328.822 159.441 328.755 159.825 328.708 160.212C328.701 160.542 328.61 160.865 328.442 161.149L322.049 164.846C322.822 165.067 323.621 165.189 324.425 165.209C326.797 165.133 329.162 164.887 331.499 164.473C333.581 164.186 335.513 163.233 337.008 161.756C338.831 159.853 340.809 158.103 342.921 156.525C346.117 154.192 351.445 149.887 353.575 148.172C356.484 145.881 365.69 139.009 367.341 135.259C368.992 131.508 372.817 111.244 372.817 111.244L375.971 89.6682Z" fill="#FFA8A7"/>
<path d="M377.004 270.006C377.59 271.775 376.248 282.397 376.248 282.397C374.619 283.702 372.859 284.834 370.995 285.775L369.536 274.886L377.004 270.006Z" fill="#263238"/>
<path d="M370.995 285.775L363.399 281.3L362.354 274.023L370.132 279.105L370.995 285.775Z" fill="black"/>
<path d="M372.317 262.452C373.659 262.367 373.542 263.304 374.714 265.286C375.631 266.695 376.386 268.203 376.962 269.782C377.473 271.679 374.213 275.003 372.167 276.761C370.122 278.519 369.301 280.426 368.332 283.537C367.149 287.298 367.096 289.813 361.417 291.699C356.857 293.201 349.186 291.304 348.024 289.227C346.042 285.69 353.799 284.145 356.548 279.062C360.202 272.414 360.661 270.241 361.566 265.212C361.606 264.943 361.732 264.695 361.923 264.503C362.115 264.312 362.363 264.186 362.632 264.146L372.317 262.452Z" fill="#37474F"/>
<path d="M373.03 257.508L372.594 264.274C372.594 264.274 371.443 267.172 366.904 267.342C362.557 267.502 362.909 265.467 362.909 265.467V255.708L373.03 257.508Z" fill="#FFA8A7"/>
<path d="M394.254 236.423L408.99 236.157C408.776 245.991 407.21 268.365 406.955 277.592C406.901 279.329 406.955 291.091 406.347 294.639C405.356 299.967 398.985 299.274 398.644 296.067C398.303 292.86 399.06 279.126 399.038 277.709C399.092 271.785 396.321 250.338 394.862 239.715C394.798 239.225 394.329 236.935 394.254 236.423Z" fill="#FFA8A7"/>
<path d="M399.017 276.687C397.951 276.793 397.823 277.411 397.749 281.364C397.76 285.59 397.45 289.811 396.822 293.989C396.033 298.432 395.192 303.163 398.782 307.169C400.913 309.524 404.365 310.12 406.88 306.381C409.213 302.918 410.705 299.626 409.639 295.641C408.657 292.229 408.109 288.706 408.009 285.157C407.892 279.627 408.243 276.633 406.944 276.633V277.464C406.528 278.189 405.271 279.126 403.012 279.19C400.519 279.254 399.379 278.327 399.027 277.55L399.017 276.687Z" fill="#37474F"/>
<path d="M398.441 130.262C402.775 135.943 405.927 142.435 407.711 149.355C411.898 166.21 405.324 202.435 405.324 202.435C405.537 204.886 408.329 209.702 409.373 220.548C410.609 233.333 407.103 273.405 407.103 273.405C407.103 273.405 403.737 275.919 398.846 273.575C398.846 273.575 389.928 217.447 388.33 204.779C386.935 193.731 384.782 176.268 384.782 176.268L379.7 204.854C379.7 204.854 380.595 211.044 381.053 215.764C381.778 223.222 373.307 260.513 373.307 260.513C373.307 260.513 367.245 262.26 362.429 260.3V204.417C362.429 192.963 362.791 172.219 363.9 155.023C364.497 147.053 365.546 139.124 367.043 131.274L398.441 130.262Z" fill="#DF4D3B"/>
<path opacity="0.5" d="M398.441 130.262C402.775 135.943 405.927 142.435 407.711 149.355C411.898 166.21 405.324 202.435 405.324 202.435C405.537 204.886 408.329 209.702 409.373 220.548C410.609 233.333 407.103 273.405 407.103 273.405C407.103 273.405 403.737 275.919 398.846 273.575C398.846 273.575 389.928 217.447 388.33 204.779C386.935 193.731 384.782 176.268 384.782 176.268L379.7 204.854C379.7 204.854 380.595 211.044 381.053 215.764C381.778 223.222 373.307 260.513 373.307 260.513C373.307 260.513 367.245 262.26 362.429 260.3V204.417C362.429 192.963 362.791 172.219 363.9 155.023C364.497 147.053 365.546 139.124 367.043 131.274L398.441 130.262Z" fill="black"/>
<path opacity="0.15" d="M384.782 176.172L382.577 160.19C378.202 159.925 373.965 158.558 370.26 156.216C372.818 159.405 376.517 161.472 380.574 161.98L382.705 175.128L380.893 198.099L384.782 176.172Z" fill="black"/>
<path d="M365.498 116.134L367.021 126.33C366.201 132.457 364.624 142.898 364.624 142.898C376.408 152.21 401.606 147.458 405.111 141.044C402.543 134.886 396.961 124.189 396.961 124.189L401.787 110.157C401.787 110.157 395.117 100.813 401.265 91.1599L391.527 90.5632L380.212 89.7642H375.95C371.688 93.8022 366.957 97.7657 365.018 100.877C363.207 103.711 359.926 109.518 365.498 116.134Z" fill="#37474F"/>
<path d="M386.402 87.1111H364.208V65.6317C364.208 60.599 366.208 55.7725 369.766 52.2138C373.325 48.6552 378.151 46.656 383.184 46.656V46.656C388.217 46.656 393.043 48.6552 396.602 52.2138C400.161 55.7725 402.16 60.599 402.16 65.6317V71.3851C402.151 75.5588 400.487 79.5587 397.533 82.507C394.579 85.4553 390.576 87.1111 386.402 87.1111V87.1111Z" fill="#263238"/>
<path d="M397.11 68.3911C396.709 67.906 396.193 67.5286 395.61 67.293C395.026 67.0575 394.393 66.9712 393.768 67.0421C393.143 67.113 392.545 67.3388 392.029 67.699C391.513 68.0592 391.095 68.5425 390.813 69.105C390.813 69.105 388.543 70.1704 382.385 67.7305C377.324 65.7275 372.146 60.0806 370.782 56.7351C368.769 59.6118 366.883 65.3866 367.469 73.1324C368.204 82.9238 371.347 84.3729 372.924 85.0334C374.501 85.694 377.186 85.2146 380.094 84.6712L380.254 90.1689C380.254 90.1689 374.064 97.4779 376.717 102.656C386.498 99.7686 391.548 90.5098 391.548 90.5098L391.665 76.414C391.665 76.414 393.274 78.449 396.225 76.1689C397.354 75.2411 398.077 73.9106 398.242 72.459C398.407 71.0075 398.001 69.5486 397.11 68.3911V68.3911Z" fill="#FFA8A7"/>
<path d="M379.274 69.7229C379.253 69.9978 379.313 70.2729 379.447 70.5139C379.581 70.7549 379.783 70.9512 380.028 71.0783C380.272 71.2055 380.549 71.258 380.823 71.2291C381.098 71.2003 381.357 71.0916 381.57 70.9163C381.783 70.7411 381.94 70.5071 382.021 70.2435C382.102 69.9799 382.103 69.6984 382.026 69.4338C381.948 69.1693 381.794 68.9334 381.583 68.7556C381.373 68.5778 381.114 68.4658 380.84 68.4337C380.463 68.4008 380.087 68.5175 379.794 68.7585C379.501 68.9995 379.315 69.3458 379.274 69.7229V69.7229Z" fill="#263238"/>
<path d="M381.948 65.2482L384.548 67.1127C384.79 66.7547 384.886 66.3171 384.814 65.8906C384.743 65.4641 384.51 65.0815 384.164 64.822C383.993 64.699 383.798 64.6123 383.592 64.5671C383.385 64.5219 383.172 64.5191 382.965 64.559C382.757 64.5989 382.56 64.6805 382.386 64.799C382.211 64.9175 382.062 65.0703 381.948 65.2482V65.2482Z" fill="#263238"/>
<path d="M380.67 78.449L377.559 79.2161C377.6 79.4232 377.683 79.6199 377.802 79.7941C377.922 79.9684 378.075 80.1168 378.253 80.2302C378.431 80.3437 378.631 80.42 378.839 80.4544C379.047 80.4889 379.261 80.4808 379.466 80.4307C379.884 80.32 380.242 80.0518 380.467 79.6823C380.691 79.3129 380.764 78.8709 380.67 78.449V78.449Z" fill="#F28F8F"/>
<path d="M368.3 66.2284L371.294 64.9925C371.225 64.7936 371.117 64.6108 370.976 64.455C370.834 64.2992 370.663 64.1737 370.472 64.086C370.28 63.9984 370.073 63.9504 369.863 63.9451C369.653 63.9397 369.444 63.9771 369.248 64.0549C368.839 64.2232 368.511 64.5441 368.334 64.9497C368.157 65.3553 368.145 65.8139 368.3 66.2284V66.2284Z" fill="#263238"/>
<path d="M369.142 69.2542C369.123 69.5098 369.179 69.7653 369.304 69.9892C369.429 70.213 369.617 70.3953 369.845 70.5134C370.072 70.6316 370.329 70.6805 370.584 70.654C370.839 70.6275 371.081 70.5268 371.279 70.3644C371.477 70.202 371.624 69.985 371.7 69.7403C371.776 69.4956 371.779 69.2339 371.708 68.9876C371.637 68.7413 371.495 68.5212 371.301 68.3546C371.106 68.188 370.866 68.0821 370.612 68.0502C370.436 68.0325 370.259 68.0497 370.09 68.1007C369.921 68.1516 369.764 68.2354 369.627 68.3473C369.491 68.4591 369.377 68.5967 369.294 68.7524C369.211 68.908 369.159 69.0785 369.142 69.2542V69.2542Z" fill="#263238"/>
<path d="M375.822 68.6575L375.619 76.0517L371.262 75.0502L375.822 68.6575Z" fill="#F28F8F"/>
<path d="M380.094 84.6713C383.173 84.2131 388.618 81.7946 389.534 79.2588C389.406 80.7928 388.706 82.2226 387.574 83.2649C385.709 84.927 380.116 86.5997 380.116 86.5997L380.094 84.6713Z" fill="#F28F8F"/>
<path d="M413.976 153.243C415.979 144.976 418.429 133.639 417.982 131.711C417.31 128.845 414.37 114.408 411.759 105.884C409.149 97.3606 406.581 91.7244 401.286 91.1064C392.528 96.1567 398.559 110.285 398.559 110.285L407.146 131.998L404.791 154.277C404.546 155.278 403.012 155.896 402.16 156.482C400.378 157.589 398.781 158.97 397.429 160.574C396.119 162.076 394.957 162.492 395.16 162.939C395.448 163.433 395.913 163.799 396.46 163.965C397.007 164.131 397.597 164.084 398.111 163.834C399.25 163.313 400.323 162.658 401.307 161.884C400.536 163.974 399.459 165.938 398.111 167.712C395.011 171.878 393.604 174.893 400.242 174.659C404.397 174.51 408.979 170.898 411.696 161.618C411.877 161.064 412.164 160.052 412.516 158.73C413.059 157.036 413.56 155.097 413.976 153.243Z" fill="#FFA8A7"/>
</svg>
