<svg width="25" height="23" viewBox="0 0 25 23" fill="none" xmlns="http://www.w3.org/2000/svg">
<path d="M25 14.625V16.9688C25 17.833 24.4414 18.5312 23.75 18.5312H22.4492C22.1523 20.748 20.6094 22.4375 18.75 22.4375C16.8906 22.4375 15.3477 20.748 15.0508 18.5312H9.94922C9.65234 20.748 8.10938 22.4375 6.25 22.4375C4.39062 22.4375 2.84922 20.748 2.55195 18.5312H1.25C0.559766 18.5312 0 17.833 0 16.9688V11.5C0 10.1768 0.656641 9.04883 1.58438 8.58984L3.21094 3.50928C3.78047 1.72949 5.16016 0.5625 6.69141 0.5625H13.7969C14.9375 0.5625 15.9805 1.20996 16.7266 2.32178L20.6328 8.42383C23.0938 8.77051 25 11.4414 25 14.5811V14.625ZM6.69141 3.6875C6.17969 3.6875 5.72266 4.03418 5.53125 4.66895L4.34766 8.375H8.75V3.6875H6.69141ZM10.625 8.375H17.3984L14.7734 4.27344C14.5391 3.90234 14.1445 3.6875 13.7969 3.6875H10.625V8.375ZM20.5195 18.5312C20.5859 18.2432 20.625 18.0234 20.625 17.75C20.625 16.4561 19.7852 15.4062 18.75 15.4062C17.7148 15.4062 16.875 16.4561 16.875 17.75C16.875 18.0234 16.8789 18.2432 16.9805 18.5312C17.2383 19.4395 17.9336 20.0938 18.75 20.0938C19.5664 20.0938 20.2617 19.4395 20.5195 18.5312ZM8.01953 18.5312C8.08594 18.2432 8.125 18.0234 8.125 17.75C8.125 16.4561 7.28516 15.4062 6.25 15.4062C5.21484 15.4062 4.375 16.4561 4.375 17.75C4.375 18.0234 4.37891 18.2432 4.48047 18.5312C4.73828 19.4395 5.43359 20.0938 6.25 20.0938C7.06641 20.0938 7.76172 19.4395 8.01953 18.5312Z" fill="#D64F3F"/>
</svg>
