<svg width="700" height="589" viewBox="0 0 700 589" fill="none" xmlns="http://www.w3.org/2000/svg">
<path d="M700 510.36H0V510.71H700V510.36Z" fill="#EBEBEB"/>
<path d="M506.8 521.476H460.432V521.826H506.8V521.476Z" fill="#EBEBEB"/>
<path d="M617.288 521.658H559.692V522.008H617.288V521.658Z" fill="#EBEBEB"/>
<path d="M526.33 530.8H499.464V531.15H526.33V530.8Z" fill="#EBEBEB"/>
<path d="M315.938 528.154H243.6V528.504H315.938V528.154Z" fill="#EBEBEB"/>
<path d="M231.14 528.154H182.994V528.504H231.14V528.154Z" fill="#EBEBEB"/>
<path d="M154.182 522.246H88.6064V522.596H154.182V522.246Z" fill="#EBEBEB"/>
<path d="M331.8 447.92H61.4741C59.3564 447.916 57.3267 447.072 55.8306 445.574C54.3344 444.075 53.4941 442.044 53.4941 439.926V59.924C53.5126 57.8184 54.361 55.8052 55.8552 54.3215C57.3493 52.8378 59.3685 52.0036 61.4741 52H331.8C333.92 52 335.954 52.8422 337.453 54.3414C338.952 55.8406 339.794 57.8739 339.794 59.994V439.926C339.794 442.046 338.952 444.079 337.453 445.579C335.954 447.078 333.92 447.92 331.8 447.92ZM61.4741 52.28C59.4493 52.2837 57.5086 53.0907 56.0781 54.5238C54.6476 55.9569 53.8441 57.8991 53.8441 59.924V439.926C53.8441 441.951 54.6476 443.893 56.0781 445.326C57.5086 446.759 59.4493 447.566 61.4741 447.57H331.8C333.826 447.566 335.768 446.76 337.201 445.327C338.634 443.894 339.44 441.952 339.444 439.926V59.924C339.44 57.8978 338.634 55.9557 337.201 54.523C335.768 53.0902 333.826 52.2837 331.8 52.28H61.4741Z" fill="#EBEBEB"/>
<path d="M634.634 447.92H364.294C362.175 447.916 360.144 447.073 358.645 445.575C357.147 444.076 356.304 442.045 356.3 439.926V59.924C356.322 57.8172 357.173 55.8039 358.67 54.3206C360.166 52.8374 362.187 52.0036 364.294 52H634.634C636.737 52.0073 638.753 52.8431 640.244 54.3264C641.735 55.8097 642.581 57.8209 642.6 59.924V439.926C642.6 442.041 641.761 444.07 640.268 445.569C638.775 447.067 636.749 447.913 634.634 447.92ZM364.294 52.28C362.268 52.2837 360.325 53.0902 358.893 54.523C357.46 55.9557 356.654 57.8978 356.65 59.924V439.926C356.654 441.952 357.46 443.894 358.893 445.327C360.325 446.76 362.268 447.566 364.294 447.57H634.634C636.66 447.566 638.602 446.76 640.035 445.327C641.468 443.894 642.274 441.952 642.278 439.926V59.924C642.274 57.8978 641.468 55.9557 640.035 54.523C638.602 53.0902 636.66 52.2837 634.634 52.28H364.294Z" fill="#EBEBEB"/>
<path d="M243.698 28.396H48.6924V408.832H243.698V28.396Z" fill="#F5F5F5"/>
<path d="M142.8 408.846H91.9385V181.542L142.8 164.924V408.846Z" fill="#EBEBEB"/>
<path d="M185.262 408.846H134.4V235.988L185.262 219.37V408.846Z" fill="#E6E6E6"/>
<path d="M179.186 231.158H167.048V189.914L179.186 185.952V231.158Z" fill="#E6E6E6"/>
<path d="M447.09 28.396H252.084V408.832H447.09V28.396Z" fill="#F5F5F5"/>
<path d="M309.33 273.718H252.084V408.846H309.33V273.718Z" fill="#E6E6E6"/>
<path d="M651.322 28.396H456.316V408.832H651.322V28.396Z" fill="#F5F5F5"/>
<path d="M608.846 408.846H567.462V135.328L608.846 118.696V408.846Z" fill="#EBEBEB"/>
<path d="M651.308 408.846H600.446V235.988L651.308 219.37V408.846Z" fill="#E6E6E6"/>
<path d="M469 408.832H570.724V274.446L469 261.524V408.832Z" fill="#E6E6E6"/>
<path d="M645.246 231.158H639.17V189.914L645.246 185.952V231.158Z" fill="#E6E6E6"/>
<path d="M625.394 241.084H619.332V199.84L625.394 195.864V241.084Z" fill="#E6E6E6"/>
<path d="M79.1838 295.908H102.354V408.846H64.0918V311C64.0918 306.997 65.6818 303.159 68.5121 300.328C71.3424 297.498 75.1812 295.908 79.1838 295.908Z" fill="#EBEBEB"/>
<path d="M243.698 299.87H192.864V408.846H243.698V299.87Z" fill="#EBEBEB"/>
<path d="M360.164 316.754L309.33 299.87V408.846H360.164V316.754Z" fill="#EBEBEB"/>
<path d="M379.414 316.754L328.58 299.87V408.846H379.414V316.754Z" fill="#E6E6E6"/>
<path d="M379.414 299.45L430.248 282.566V408.846H379.414V299.45Z" fill="#F0F0F0"/>
<path opacity="0.5" d="M155.19 408.832H102.788L210.798 28.396H263.2L155.19 408.832Z" fill="white"/>
<path opacity="0.5" d="M312.27 408.832H259.868L367.864 28.396H420.28L312.27 408.832Z" fill="white"/>
<path opacity="0.5" d="M377.86 408.832H325.458L433.468 28.396H485.87L377.86 408.832Z" fill="white"/>
<path opacity="0.5" d="M504 408.832H477.806L585.816 28.396H612.01L504 408.832Z" fill="white"/>
<path d="M155.176 441.2C170.296 360.112 210.14 322.06 244.048 302.684C211.568 333.4 189.476 439.674 155.176 441.2Z" fill="#FAFAFA"/>
<path d="M122.038 434.816C110.838 373.692 83.916 349.78 61.124 339.616C83.118 358.852 99.218 438.666 122.038 434.816Z" fill="#FAFAFA"/>
<path d="M141.61 451C137.298 363.08 103.81 324.482 73.6963 305.946C101.024 337.11 108.836 452.19 141.61 451Z" fill="#FAFAFA"/>
<path d="M141.61 443.454C148.61 355.114 185.962 313.772 219.17 292.786C188.678 326.162 177.17 441.97 141.61 443.454Z" fill="#FAFAFA"/>
<path d="M147.126 457.272C158.326 366.524 133.56 311.84 108.444 278.968C128.8 323.236 116.088 443.048 147.126 457.272Z" fill="#FAFAFA"/>
<path d="M182 429.664C210.266 376.8 245.728 364.2 273 362.912C244.146 372.936 205.492 441.452 182 429.664Z" fill="#FAFAFA"/>
<path d="M176.134 431.666C193.956 371.76 227.696 346.266 255.416 334.478C227.934 355.002 202.832 433.346 176.134 431.666Z" fill="#FAFAFA"/>
<path d="M144.858 457.566C175.322 363.612 161.56 305.68 142.884 270.4C154.266 317.342 116.2 441.48 144.858 457.566Z" fill="#FAFAFA"/>
<path d="M93.1699 423.784V482.892C93.1699 497.998 120.428 510.36 153.762 510.36C187.082 510.36 214.354 497.998 214.354 482.892V423.784H93.1699Z" fill="#F5F5F5"/>
<path d="M560 462.844C556.654 407.082 532.644 380.916 511.098 367.644C530.754 388.714 536.69 461.822 560 462.844Z" fill="#E0E0E0"/>
<path d="M583.296 458.49C596.204 416.49 616.756 399.998 633.248 392.998C616.518 406.2 598.598 461.122 583.296 458.49Z" fill="#E0E0E0"/>
<path d="M568.498 469.62C579.04 409.168 605.304 382.624 627.536 369.884C606.2 391.29 590.8 470.418 568.498 469.62Z" fill="#E0E0E0"/>
<path d="M569.156 464.426C571.956 403.666 549.976 375.246 529.046 360.826C547.05 383.8 544.922 463.404 569.156 464.426Z" fill="#E0E0E0"/>
<path d="M564.2 473.918C564.354 411.52 586.054 373.916 606.102 351.306C588.35 381.756 586.67 464.132 564.2 473.918Z" fill="#E0E0E0"/>
<path d="M542.71 454.934C527.884 418.534 504.686 409.91 486.122 409.028C505.008 415.916 525.574 463.04 542.71 454.934Z" fill="#E0E0E0"/>
<path d="M546.518 456.32C539.518 415.118 518.588 397.632 500.626 389.484C517.664 403.596 528.094 457.468 546.518 456.32Z" fill="#E0E0E0"/>
<path d="M565.712 474.128C552.958 409.518 567.392 369.688 583.226 345.44C571.382 377.696 586.684 463.054 565.712 474.128Z" fill="#E0E0E0"/>
<path d="M600.964 451V491.6C600.964 501.974 582.246 510.458 559.37 510.458C536.494 510.458 517.79 501.974 517.79 491.6V451H600.964Z" fill="#F5F5F5"/>
<path d="M350 573.584C499.915 573.584 621.446 566.489 621.446 557.736C621.446 548.983 499.915 541.888 350 541.888C200.084 541.888 78.5537 548.983 78.5537 557.736C78.5537 566.489 200.084 573.584 350 573.584Z" fill="#F5F5F5"/>
<path d="M443.884 546.606H431.97L430.514 519.026H442.414L443.884 546.606Z" fill="#7F3E3B"/>
<path d="M503.944 546.606H492.03L487.368 519.026H499.268L503.944 546.606Z" fill="#7F3E3B"/>
<path d="M491.26 545.22H504.63C504.864 545.217 505.09 545.296 505.27 545.445C505.45 545.594 505.57 545.802 505.61 546.032L507.458 556.616C507.497 556.881 507.477 557.151 507.402 557.407C507.326 557.664 507.197 557.901 507.021 558.103C506.846 558.305 506.629 558.467 506.386 558.577C506.142 558.688 505.878 558.745 505.61 558.744C500.948 558.66 498.694 558.38 492.8 558.38C489.188 558.38 479.43 558.758 474.432 558.758C469.434 558.758 469.014 553.816 471.072 553.368C480.354 551.366 486.22 548.594 489.272 545.962C489.824 545.484 490.53 545.22 491.26 545.22Z" fill="#263238"/>
<path d="M431.676 545.22H444.668C444.901 545.217 445.128 545.296 445.307 545.445C445.487 545.594 445.608 545.802 445.648 546.032L447.496 556.616C447.538 556.879 447.523 557.148 447.451 557.405C447.379 557.662 447.252 557.899 447.079 558.102C446.906 558.305 446.691 558.467 446.448 558.578C446.206 558.689 445.942 558.745 445.676 558.744C441 558.66 434.224 558.38 428.33 558.38C421.442 558.38 419.692 558.758 411.6 558.758C406.714 558.758 405.594 553.816 407.666 553.368C417.074 551.338 420.476 551.114 428.75 546.158C429.622 545.585 430.633 545.261 431.676 545.22Z" fill="#263238"/>
<path d="M431.298 175.774L415.03 171C415.03 171 398.454 210.382 392.84 213C385.21 216.5 364.84 227.238 356.216 232.306C355.628 234.252 355.614 239.586 356.552 241.126C370.678 240.006 399.658 230.416 405.23 225.068C417.942 212.86 431.298 175.774 431.298 175.774Z" fill="#7F3E3B"/>
<path d="M436.226 168.34C440.846 178.644 409.122 223.836 409.122 223.836L393.722 207.848C393.722 207.848 407.344 173.646 414.722 160.528C422.254 147.046 431.2 157 436.226 168.34Z" fill="#407BFF"/>
<path opacity="0.4" d="M436.226 168.34C440.846 178.644 409.122 223.836 409.122 223.836L393.722 207.848C393.722 207.848 407.344 173.646 414.722 160.528C422.254 147.046 431.2 157 436.226 168.34Z" fill="white"/>
<path d="M392.602 206.434C391.636 207.008 389.564 210.774 389.102 212.65C388.64 214.526 399.476 229.002 403.69 228.414C407.904 227.826 412.72 223.724 413.588 221.512C414.456 219.3 394.632 205.244 392.602 206.434Z" fill="#407BFF"/>
<path d="M358.022 231.41L348.222 229.618L348.81 243.618C348.81 243.618 352.254 245.018 359.674 240.426L358.022 231.41Z" fill="#7F3E3B"/>
<path d="M336.378 234.28L338.17 242.89L348.74 243.674L348.152 229.632L336.378 234.28Z" fill="#7F3E3B"/>
<path opacity="0.2" d="M430.514 519.04L431.27 533.25H443.17L442.428 519.04H430.514Z" fill="black"/>
<path opacity="0.2" d="M499.282 519.04H487.368L489.776 533.25H501.69L499.282 519.04Z" fill="black"/>
<path d="M421.092 154.284C421.092 154.284 405.202 195.192 415.366 262.154H479.052C479.948 252.354 476.252 199.728 487.83 153.668C480.831 152.303 473.751 151.401 466.634 150.966C457.616 150.448 448.576 150.448 439.558 150.966C433.327 151.6 427.154 152.709 421.092 154.284Z" fill="#407BFF"/>
<path opacity="0.2" d="M421.092 154.284C421.092 154.284 405.202 195.192 415.366 262.154H479.052C479.948 252.354 476.252 199.728 487.83 153.668C480.831 152.303 473.751 151.401 466.634 150.966C457.616 150.448 448.576 150.448 439.558 150.966C433.327 151.6 427.154 152.709 421.092 154.284Z" fill="black"/>
<path opacity="0.2" d="M473.452 165.036C472.052 172.624 473.55 190.754 479.78 211.712C480.538 193.719 482.88 175.828 486.78 158.246V158.162C482.552 157.728 474.81 157.924 473.452 165.036Z" fill="black"/>
<path d="M464.31 125.654C462.182 134.362 460.824 145.156 466.634 150.966C466.634 150.966 462.714 159.814 446.53 159.814C431.732 159.814 439.53 150.966 439.53 150.966C449.33 148.656 449.428 136.644 448.056 129.868L464.31 125.654Z" fill="#7F3E3B"/>
<path d="M446.6 159.8C456.134 162.782 458.024 165.834 458.024 165.834C458.024 165.834 469.91 161.004 469.462 150.532C468.018 149.465 466.459 148.563 464.814 147.844C464.814 147.844 463.806 155.6 446.6 159.8Z" fill="#407BFF"/>
<path d="M446.599 159.8C441.251 160.304 436.799 164.882 436.799 164.882C436.799 164.882 433.397 161.312 436.659 150.952C436.659 150.952 439.837 149.874 442.469 149.314C442.399 149.328 440.257 157.56 446.599 159.8Z" fill="#407BFF"/>
<path opacity="0.2" d="M448.084 129.882C448.896 133.844 449.204 139.682 447.328 144.176C448.858 143.925 450.344 143.454 451.738 142.776C457.338 140.2 460.222 136.126 463.33 130.176C463.61 128.622 463.946 127.11 464.31 125.654L448.084 129.882Z" fill="black"/>
<path d="M446.194 97.822C442.386 99.068 433.874 106.376 441.994 110.058C450.114 113.74 452.83 95.666 446.194 97.822Z" fill="#263238"/>
<path d="M471.884 115C468.174 126.424 466.578 133.2 459.284 137.96C448.322 144.96 435.652 136.56 435.946 124.492C436.198 113.558 442.218 96.716 454.552 94.546C466.886 92.376 475.594 103.618 471.884 115Z" fill="#7F3E3B"/>
<path d="M453.992 102.498C447.692 103.562 442.442 103.226 440.538 97.99C438.634 92.754 447.3 87.266 453.278 89.73C457.688 85.138 469.728 88.666 471.282 93.076C478.282 92.628 484.904 100.692 480.158 104.822C481.232 105.489 482.139 106.392 482.811 107.462C483.483 108.532 483.903 109.741 484.038 110.997C484.173 112.254 484.02 113.525 483.59 114.713C483.16 115.901 482.466 116.976 481.558 117.856C483.602 123.932 476.238 129.994 470.428 127.53C464.702 125.822 461.58 127.222 460.782 123.526C459.984 119.83 462 116.26 466.872 115.546C464.408 112.606 463.806 107.958 465.472 105.956C459.578 108.63 454.748 105.27 453.992 102.498Z" fill="#263238"/>
<path d="M446.432 127.124C447.546 127.217 448.667 127.09 449.732 126.749C450.796 126.408 451.782 125.86 452.634 125.136C452.686 125.081 452.716 125.009 452.716 124.933C452.716 124.857 452.686 124.785 452.634 124.73C452.609 124.703 452.579 124.681 452.545 124.666C452.512 124.651 452.475 124.644 452.438 124.644C452.401 124.644 452.365 124.651 452.331 124.666C452.298 124.681 452.267 124.703 452.242 124.73C451.308 125.505 450.211 126.058 449.033 126.349C447.854 126.64 446.626 126.661 445.438 126.41C445.364 126.397 445.288 126.414 445.226 126.455C445.163 126.497 445.119 126.561 445.102 126.634C445.092 126.669 445.089 126.706 445.094 126.742C445.1 126.778 445.113 126.813 445.133 126.844C445.153 126.874 445.179 126.9 445.21 126.92C445.241 126.939 445.276 126.951 445.312 126.956C445.683 127.031 446.056 127.087 446.432 127.124Z" fill="#263238"/>
<path d="M472.542 130.778C470.159 132.639 467.149 133.506 464.142 133.2C460.236 132.766 459.942 128.916 462.392 126.004C464.604 123.372 469.308 120.404 472.57 122.336C475.832 124.268 475.468 128.454 472.542 130.778Z" fill="#7F3E3B"/>
<path d="M457.226 262.154C457.226 262.154 455.602 277.134 453.53 297.42C451.15 320.422 448.196 350.284 446.32 373.02C446.32 373.132 446.32 373.23 446.32 373.328C445.956 377.654 445.634 381.728 445.368 385.396C442.708 422.51 447.468 530.478 447.468 530.478H427.28C427.28 530.478 408.688 420.298 409.15 382.526C409.584 346.224 415.352 262.126 415.352 262.126L457.226 262.154Z" fill="#407BFF"/>
<path d="M449.12 522.596C449.218 522.596 448.77 530.912 448.77 530.912H425.516L424.928 521.784L449.12 522.596Z" fill="#263238"/>
<path opacity="0.2" d="M453.6 297.42C451.22 320.422 448.266 350.284 446.39 373.02C446.39 373.132 446.39 373.23 446.39 373.328C441.952 351.754 440.566 324.93 442.288 280.76L453.6 297.42Z" fill="black"/>
<path d="M437.948 262.154C437.948 262.154 447.244 348.198 453.026 382.288C459.368 419.626 484.4 530.492 484.4 530.492H506.212C506.212 530.492 491.512 422.692 488.628 385.676C485.52 345.552 479.094 262.154 479.094 262.154H437.948Z" fill="#407BFF"/>
<path d="M506.478 523.1C506.576 523.1 507.234 530.912 507.234 530.912H483.266L481.516 522.19L506.478 523.1Z" fill="#263238"/>
<path d="M452.102 114.496C451.85 115.434 451.164 116.092 450.562 115.896C449.96 115.7 449.666 114.888 449.904 113.95C450.142 113.012 450.842 112.354 451.444 112.55C452.046 112.746 452.34 113.6 452.102 114.496Z" fill="#263238"/>
<path d="M441.63 112.2C441.378 113.138 440.692 113.796 440.09 113.6C439.488 113.404 439.194 112.606 439.432 111.654C439.67 110.702 440.37 110.058 440.972 110.254C441.574 110.45 441.868 111.262 441.63 112.2Z" fill="#263238"/>
<path d="M446.516 113.404C444.663 116.042 442.474 118.428 440.006 120.502C441.238 122.406 444.206 122.308 444.206 122.308L446.516 113.404Z" fill="#630F0F"/>
<path d="M457.8 111.752C457.717 111.73 457.64 111.69 457.574 111.634C457.509 111.578 457.457 111.509 457.422 111.43C457.176 110.783 456.774 110.206 456.251 109.752C455.728 109.297 455.101 108.979 454.426 108.826C454.353 108.816 454.282 108.791 454.219 108.753C454.157 108.714 454.102 108.663 454.06 108.603C454.018 108.542 453.989 108.473 453.975 108.401C453.961 108.329 453.962 108.254 453.978 108.182C454.005 108.033 454.089 107.901 454.211 107.812C454.334 107.724 454.486 107.685 454.636 107.706C455.496 107.882 456.299 108.272 456.969 108.84C457.639 109.407 458.156 110.134 458.472 110.954C458.525 111.096 458.523 111.252 458.466 111.392C458.408 111.532 458.301 111.646 458.164 111.71C458.051 111.764 457.922 111.779 457.8 111.752Z" fill="#263238"/>
<path d="M439.6 107.412C439.524 107.38 439.453 107.338 439.39 107.286C439.337 107.234 439.295 107.172 439.266 107.103C439.237 107.035 439.223 106.961 439.223 106.887C439.223 106.813 439.237 106.739 439.266 106.671C439.295 106.602 439.337 106.54 439.39 106.488C439.982 105.802 440.728 105.266 441.568 104.925C442.408 104.584 443.317 104.448 444.22 104.528C444.293 104.538 444.363 104.563 444.426 104.601C444.489 104.64 444.543 104.691 444.585 104.751C444.628 104.812 444.657 104.881 444.671 104.953C444.685 105.025 444.684 105.1 444.668 105.172C444.637 105.319 444.553 105.45 444.431 105.538C444.309 105.626 444.159 105.665 444.01 105.648C443.292 105.595 442.572 105.712 441.908 105.989C441.244 106.266 440.655 106.696 440.188 107.244C440.113 107.321 440.019 107.377 439.916 107.406C439.813 107.436 439.704 107.438 439.6 107.412Z" fill="#263238"/>
<path d="M494.886 169.922L479.85 179.022C479.85 179.022 496.65 215.422 496.552 221.54C496.272 232.964 501.186 257.73 499.856 270.778C501.704 271.436 506.856 271.59 508.48 270.68C511.462 258.878 515.592 227.868 514.402 220.098C511.798 203.2 494.886 169.922 494.886 169.922Z" fill="#7F3E3B"/>
<path d="M487.83 153.668C499.03 155.306 514.99 212.146 514.99 212.146L494.27 220C494.27 220 476.224 189.2 471.8 175.354C467.04 160.906 475.832 151.904 487.83 153.668Z" fill="#407BFF"/>
<path opacity="0.4" d="M487.83 153.668C499.03 155.306 514.99 212.146 514.99 212.146L494.27 220C494.27 220 476.224 189.2 471.8 175.354C467.04 160.906 475.832 151.904 487.83 153.668Z" fill="white"/>
<path d="M487.2 547.306C486.399 547.376 485.6 547.157 484.946 546.69C484.738 546.509 484.581 546.277 484.49 546.017C484.399 545.757 484.378 545.477 484.428 545.206C484.437 545.039 484.489 544.878 484.58 544.738C484.671 544.598 484.797 544.484 484.946 544.408C486.346 543.736 490.028 546.088 490.448 546.368C490.494 546.396 490.53 546.439 490.551 546.489C490.571 546.54 490.574 546.596 490.56 546.648C490.547 546.702 490.519 546.752 490.479 546.791C490.44 546.831 490.39 546.859 490.336 546.872C489.311 547.138 488.259 547.283 487.2 547.306ZM485.562 544.8C485.437 544.792 485.312 544.816 485.198 544.87C485.139 544.901 485.09 544.947 485.055 545.004C485.021 545.06 485.002 545.126 485.002 545.192C484.967 545.379 484.979 545.572 485.038 545.753C485.096 545.934 485.2 546.097 485.338 546.228C485.954 546.774 487.508 546.844 489.538 546.438C488.337 545.629 486.984 545.072 485.562 544.8Z" fill="#407BFF"/>
<path d="M490.279 546.886C490.238 546.898 490.195 546.898 490.153 546.886C488.949 546.228 486.695 543.61 487.017 542.28C487.07 542.074 487.189 541.891 487.356 541.759C487.523 541.627 487.729 541.555 487.941 541.552C488.153 541.524 488.369 541.54 488.574 541.601C488.779 541.661 488.969 541.764 489.131 541.902C490.461 543.036 490.531 546.48 490.531 546.62C490.532 546.672 490.519 546.724 490.494 546.77C490.47 546.817 490.435 546.856 490.391 546.886C490.354 546.892 490.317 546.892 490.279 546.886ZM488.109 542H487.983C487.619 542 487.577 542.21 487.563 542.28C487.367 543.064 488.795 545.08 489.971 545.962C489.967 544.623 489.541 543.321 488.753 542.238C488.575 542.082 488.346 541.998 488.109 542Z" fill="#407BFF"/>
<path d="M426.622 547.306C425.61 547.401 424.596 547.144 423.752 546.578C423.567 546.4 423.429 546.179 423.348 545.935C423.268 545.691 423.248 545.431 423.29 545.178C423.307 545.021 423.362 544.87 423.449 544.738C423.537 544.606 423.655 544.498 423.794 544.422C425.278 543.61 429.954 546.046 430.486 546.326C430.536 546.355 430.576 546.399 430.598 546.452C430.621 546.505 430.626 546.564 430.612 546.62C430.602 546.679 430.573 546.734 430.531 546.776C430.488 546.819 430.434 546.847 430.374 546.858C429.14 547.12 427.884 547.27 426.622 547.306ZM424.578 544.8C424.396 544.79 424.213 544.824 424.046 544.898C423.992 544.93 423.946 544.975 423.912 545.029C423.878 545.082 423.857 545.143 423.85 545.206C423.822 545.371 423.835 545.541 423.889 545.7C423.943 545.859 424.035 546.002 424.158 546.116C424.858 546.76 426.804 546.872 429.464 546.438C427.943 545.613 426.29 545.058 424.578 544.8Z" fill="#407BFF"/>
<path d="M430.332 546.886H430.206C428.806 546.242 426.006 543.666 426.356 542.322C426.356 542 426.678 541.608 427.448 541.538C427.724 541.503 428.004 541.527 428.27 541.609C428.535 541.691 428.78 541.829 428.988 542.014C430.388 543.26 430.612 546.466 430.626 546.606C430.625 546.656 430.612 546.705 430.587 546.749C430.563 546.793 430.528 546.831 430.486 546.858C430.44 546.887 430.385 546.897 430.332 546.886ZM427.644 542H427.476C426.972 542 426.93 542.252 426.916 542.308C426.748 543.12 428.582 545.108 430.01 546.018C429.938 544.679 429.449 543.396 428.61 542.35C428.344 542.115 427.999 541.99 427.644 542Z" fill="#407BFF"/>
<path d="M535.709 282.284L464.145 291.616C461.009 292.025 458.798 294.899 459.207 298.035L465.301 344.763C465.71 347.899 468.584 350.109 471.719 349.701L543.283 340.368C546.419 339.959 548.63 337.085 548.221 333.949L542.127 287.221C541.718 284.085 538.845 281.875 535.709 282.284Z" fill="#263238"/>
<path opacity="0.3" d="M535.709 282.284L464.145 291.616C461.009 292.025 458.798 294.899 459.207 298.035L465.301 344.763C465.71 347.899 468.584 350.109 471.719 349.701L543.283 340.368C546.419 339.959 548.63 337.085 548.221 333.949L542.127 287.221C541.718 284.085 538.845 281.875 535.709 282.284Z" fill="black"/>
<path d="M496.566 297.728C495.369 297.727 494.207 297.328 493.262 296.594C492.118 295.711 491.369 294.414 491.176 292.982L489.916 283.266C489.823 282.558 489.871 281.839 490.057 281.15C490.243 280.46 490.563 279.814 490.998 279.249C491.434 278.683 491.977 278.209 492.596 277.853C493.215 277.498 493.898 277.268 494.606 277.176L510.776 275.062C512.207 274.875 513.654 275.264 514.798 276.144C515.943 277.023 516.692 278.321 516.88 279.752L518.154 289.468C518.333 290.898 517.941 292.341 517.063 293.484C516.185 294.626 514.892 295.377 513.464 295.572L497.28 297.672C497.043 297.705 496.805 297.723 496.566 297.728ZM511.49 278.128H511.196L495.012 280.242C494.715 280.28 494.43 280.376 494.171 280.525C493.912 280.674 493.684 280.872 493.502 281.109C493.32 281.346 493.187 281.616 493.109 281.904C493.032 282.193 493.012 282.494 493.052 282.79L494.312 292.506C494.395 293.107 494.712 293.65 495.194 294.018C495.43 294.2 495.7 294.334 495.989 294.411C496.277 294.487 496.578 294.506 496.874 294.466L513.044 292.366C513.643 292.282 514.185 291.967 514.554 291.488C514.923 291.009 515.09 290.404 515.018 289.804L513.8 280.2C513.762 279.903 513.666 279.617 513.517 279.357C513.368 279.098 513.169 278.87 512.932 278.688C512.524 278.356 512.015 278.174 511.49 278.17V278.128Z" fill="#263238"/>
<path d="M542.523 281.397L470.959 290.73C467.823 291.139 465.613 294.012 466.022 297.148L472.116 343.877C472.524 347.012 475.398 349.223 478.534 348.814L550.098 339.481C553.234 339.072 555.444 336.199 555.035 333.063L548.942 286.335C548.533 283.199 545.659 280.988 542.523 281.397Z" fill="#263238"/>
<path d="M500.528 268.818L495.964 277.708L509.348 278.324C510.314 276.383 510.665 274.193 510.355 272.047C510.044 269.901 509.088 267.901 507.612 266.312L500.528 268.818Z" fill="#7F3E3B"/>
<path d="M501.074 284.596L509.054 283.504L509.348 278.324L495.964 277.708L496.174 280.606C496.214 281.197 496.376 281.773 496.649 282.3C496.921 282.826 497.299 283.29 497.758 283.664C498.218 284.038 498.749 284.314 499.319 284.474C499.89 284.635 500.487 284.676 501.074 284.596Z" fill="#7F3E3B"/>
<path d="M491.148 216.766C490.938 217.858 492.422 221.904 493.514 223.472C494.606 225.04 512.666 226.426 514.99 222.87C517.314 219.314 517.412 212.986 516.306 210.872C515.2 208.758 491.582 214.4 491.148 216.766Z" fill="#407BFF"/>
<path d="M227.331 173.072C225.077 176.026 222.627 179.26 220.331 182.438C218.035 185.616 215.823 188.85 213.709 192.126C209.469 198.413 205.81 205.071 202.775 212.02C202.425 212.846 202.103 213.672 201.823 214.498C201.674 214.909 201.534 215.315 201.403 215.716L201.207 216.332L201.123 216.626V216.71C200.867 217.783 200.815 218.894 200.969 219.986C201.452 223.508 202.282 226.973 203.447 230.332C205.841 237.57 209.047 245.032 212.197 252.27L205.043 256.806C199.676 250.183 195.03 243.007 191.183 235.4C189.064 231.294 187.452 226.945 186.381 222.45C185.686 219.542 185.572 216.526 186.045 213.574L186.157 212.902L186.269 212.454L186.479 211.586C186.605 211.012 186.745 210.438 186.913 209.878C187.221 208.744 187.557 207.652 187.921 206.56C190.849 198.323 194.671 190.431 199.317 183.026C201.557 179.4 203.853 175.844 206.317 172.414C208.781 168.984 211.217 165.652 214.059 162.236L227.331 173.072Z" fill="#263238"/>
<path d="M210.308 249.68L217.672 253.586L209.272 263.512C209.272 263.512 203.98 259.928 203.672 254.468L210.308 249.68Z" fill="#FFC3BD"/>
<path d="M227.583 259.704L218.511 266.914L209.201 263.512L217.671 253.586L227.583 259.704Z" fill="#FFC3BD"/>
<path d="M337.652 228.4L346.36 232.894L345.59 236.03L338.59 243.03C338.59 243.03 333.55 239.11 333.662 233.65L337.652 228.4Z" fill="#FFC3BD"/>
<path d="M338.911 229.632L346.891 228.134L352.015 230.318L348.599 230.892L346.359 232.922L338.911 229.632Z" fill="#FFC3BD"/>
<path d="M355.082 244.066L346.43 245.928C345.523 246.12 344.578 246.007 343.742 245.606L338.548 243.086L345.548 236.086L350.182 234.686L355.978 241.336C356.158 241.558 356.28 241.822 356.332 242.103C356.384 242.384 356.364 242.674 356.275 242.946C356.186 243.217 356.03 243.462 355.821 243.658C355.613 243.854 355.359 243.994 355.082 244.066Z" fill="#FFC3BD"/>
<path d="M259.238 116.316C259.434 117.254 260.078 117.912 260.638 117.716C261.198 117.52 261.59 116.722 261.408 115.784C261.226 114.846 260.554 114.188 260.008 114.384C259.462 114.58 259 115.378 259.238 116.316Z" fill="#263238"/>
<path d="M259.993 117.926C261.697 120.57 263.755 122.968 266.111 125.052C264.711 126.942 261.799 126.802 261.799 126.802L259.993 117.926Z" fill="#FF5652"/>
<path d="M254.799 111.794C254.659 111.788 254.525 111.734 254.421 111.64C254.318 111.533 254.26 111.39 254.26 111.241C254.26 111.092 254.318 110.949 254.421 110.842C255.013 110.172 255.756 109.654 256.589 109.33C257.422 109.006 258.32 108.886 259.209 108.98C259.34 109.022 259.451 109.11 259.522 109.227C259.593 109.344 259.621 109.483 259.599 109.618C259.577 109.754 259.507 109.877 259.402 109.965C259.297 110.053 259.164 110.101 259.027 110.1C258.322 110.034 257.612 110.137 256.955 110.4C256.298 110.663 255.712 111.079 255.247 111.612C255.191 111.675 255.122 111.724 255.044 111.755C254.967 111.787 254.883 111.8 254.799 111.794Z" fill="#263238"/>
<path d="M233.8 132.906C235.424 141.166 236.39 152.604 230.622 158.106C230.622 158.106 232.876 166.506 248.22 166.506C265.104 166.506 256.34 159.142 256.34 159.142C249.34 156.972 249.34 148.978 250.992 142.566L233.8 132.906Z" fill="#FFC3BD"/>
<path d="M228.2 163.762C226.8 161.55 227.262 154.844 228.942 153.752C231.63 151.988 242.718 152.184 257.432 156.482C255.444 162.894 258.678 166.506 258.678 166.506L228.2 163.762Z" fill="#407BFF"/>
<path opacity="0.2" d="M215.879 175.648C210.629 180.828 209.103 191.44 209.677 198.678C210.965 196.48 212.337 194.282 213.751 192.14C215.865 188.85 218.119 185.644 220.387 182.424C221.017 181.542 221.661 180.646 222.319 179.75C222.445 179.176 222.557 178.602 222.669 178.042L215.879 175.648Z" fill="black"/>
<path d="M178.696 544.8C179.613 545.12 180.619 545.065 181.496 544.646C181.665 544.492 181.782 544.289 181.829 544.066C181.877 543.842 181.853 543.609 181.762 543.4C181.71 543.228 181.622 543.069 181.504 542.934C181.385 542.799 181.239 542.69 181.076 542.616C179.55 541.888 176.036 543.316 175.896 543.372C175.848 543.391 175.806 543.424 175.776 543.466C175.746 543.508 175.73 543.558 175.728 543.61C175.726 543.663 175.739 543.714 175.767 543.759C175.794 543.804 175.834 543.84 175.882 543.862C176.784 544.273 177.727 544.588 178.696 544.8ZM180.544 542.994L180.852 543.092C180.949 543.135 181.036 543.198 181.106 543.278C181.176 543.358 181.228 543.452 181.258 543.554C181.398 544.03 181.258 544.184 181.16 544.24C180.558 544.758 178.36 544.24 176.722 543.638C177.945 543.116 179.272 542.882 180.6 542.952L180.544 542.994Z" fill="#407BFF"/>
<path d="M175.951 543.848H176.077C177.365 543.484 180.095 541.538 180.123 540.264C180.128 540.062 180.062 539.865 179.937 539.707C179.811 539.548 179.635 539.438 179.437 539.396C179.244 539.324 179.037 539.295 178.831 539.312C178.626 539.329 178.426 539.391 178.247 539.494C176.749 540.264 175.797 543.386 175.755 543.512C175.735 543.553 175.724 543.599 175.724 543.645C175.724 543.691 175.735 543.737 175.755 543.778C175.81 543.824 175.88 543.849 175.951 543.848ZM179.143 539.844H179.269C179.591 539.956 179.591 540.124 179.591 540.194C179.591 540.95 177.771 542.462 176.441 543.078C176.798 541.842 177.515 540.741 178.499 539.914C178.605 539.856 178.722 539.819 178.842 539.807C178.963 539.795 179.084 539.808 179.199 539.844H179.143Z" fill="#407BFF"/>
<path d="M262.066 546.648C263.466 546.648 264.866 546.452 265.384 545.794C265.504 545.624 265.568 545.421 265.568 545.213C265.568 545.005 265.504 544.802 265.384 544.632C265.193 544.318 264.886 544.092 264.53 544.002C262.654 543.498 258.706 545.738 258.538 545.836C258.489 545.862 258.45 545.904 258.427 545.955C258.405 546.005 258.399 546.062 258.412 546.116C258.42 546.17 258.444 546.221 258.481 546.261C258.519 546.301 258.568 546.329 258.622 546.34C259.759 546.541 260.911 546.644 262.066 546.648ZM263.858 544.464C264.03 544.442 264.204 544.442 264.376 544.464C264.484 544.487 264.586 544.532 264.675 544.598C264.765 544.663 264.839 544.746 264.894 544.842C265.09 545.178 265.02 545.332 264.894 545.43C264.376 546.158 261.52 546.172 259.42 545.878C260.795 545.126 262.302 544.646 263.858 544.464Z" fill="#407BFF"/>
<path d="M258.65 546.34H258.762C260.162 545.738 262.822 543.288 262.626 542.014C262.626 541.706 262.36 541.342 261.632 541.258C261.366 541.234 261.099 541.262 260.844 541.341C260.589 541.421 260.353 541.549 260.148 541.72C258.748 542.91 258.398 545.92 258.384 546.074C258.383 546.12 258.392 546.165 258.412 546.206C258.431 546.248 258.46 546.284 258.496 546.312C258.543 546.337 258.597 546.346 258.65 546.34ZM261.45 541.762H261.618C262.094 541.762 262.122 542 262.136 542.056C262.262 542.826 260.428 544.744 259.042 545.57C259.166 544.287 259.685 543.075 260.526 542.098C260.772 541.887 261.084 541.769 261.408 541.762H261.45Z" fill="#407BFF"/>
<path d="M246.246 546.074H257.53L258.65 519.922H247.366L246.246 546.074Z" fill="#FFC3BD"/>
<path d="M163.562 541.244L174.454 543.554L184.338 518.536L173.446 516.226L163.562 541.244Z" fill="#FFC3BD"/>
<path d="M175.462 542.126L163.058 539.438C162.841 539.392 162.615 539.421 162.416 539.52C162.218 539.619 162.059 539.783 161.966 539.984L157.654 549.322C157.55 549.551 157.499 549.8 157.504 550.051C157.51 550.302 157.573 550.548 157.687 550.772C157.801 550.995 157.965 551.19 158.165 551.341C158.365 551.493 158.597 551.597 158.844 551.646C163.198 552.5 165.354 552.71 170.8 553.886C174.16 554.614 181.734 556.462 186.368 557.456C191.002 558.45 192.584 554.012 190.778 553.186C182.686 549.49 179.298 546.186 177.1 543.19C176.704 542.645 176.121 542.265 175.462 542.126Z" fill="#263238"/>
<path d="M257.459 544.8H245.125C244.902 544.803 244.685 544.88 244.51 545.02C244.336 545.159 244.212 545.353 244.159 545.57L241.933 555.608C241.878 555.851 241.879 556.103 241.935 556.345C241.992 556.588 242.102 556.815 242.258 557.008C242.414 557.202 242.612 557.358 242.837 557.465C243.062 557.572 243.308 557.626 243.557 557.624C248.009 557.54 254.435 557.288 260.021 557.288C266.559 557.288 268.883 557.638 276.541 557.638C281.175 557.638 282.463 552.962 280.531 552.528C271.697 550.596 267.805 550.386 260.175 545.682C259.367 545.145 258.428 544.84 257.459 544.8Z" fill="#263238"/>
<path opacity="0.2" d="M258.649 519.936L258.075 533.404H246.777L247.351 519.936H258.649Z" fill="black"/>
<path opacity="0.2" d="M173.446 516.226L184.338 518.536L179.242 531.43L168.35 529.134L173.446 516.226Z" fill="black"/>
<path d="M254.323 258.85C254.323 258.85 241.499 345.146 234.471 377.472C226.771 412.878 185.471 530.072 185.471 530.072L165.199 525.62C165.199 525.62 194.095 430.168 200.549 380.678C205.519 342.668 215.305 258.878 215.305 258.878L254.323 258.85Z" fill="#263238"/>
<path opacity="0.1" d="M254.323 258.85C254.323 258.85 241.499 345.146 234.471 377.472C226.771 412.878 185.471 530.072 185.471 530.072L165.199 525.62C165.199 525.62 194.095 430.168 200.549 380.678C205.519 342.668 215.305 258.878 215.305 258.878L254.323 258.85Z" fill="white"/>
<path d="M190.302 523.254C190.386 523.254 186.536 530.562 186.536 530.562L163.8 525.634L165.718 518.802L190.302 523.254Z" fill="#263238"/>
<path opacity="0.3" d="M246.217 289.594C231.405 292.506 232.973 347.764 234.751 376.184C238.951 356.094 245.279 317.384 249.563 290C248.525 289.494 247.347 289.352 246.217 289.594Z" fill="black"/>
<path d="M275.8 258.85C275.8 258.85 277.354 343.27 276.122 377.71C274.848 413.522 262.346 530.8 262.346 530.8H243.152C243.152 530.8 242.452 415.622 241.598 380.44C240.674 342.094 235.998 258.85 235.998 258.85H275.8Z" fill="#263238"/>
<path opacity="0.1" d="M275.8 258.85C275.8 258.85 277.354 343.27 276.122 377.71C274.848 413.522 262.346 530.8 262.346 530.8H243.152C243.152 530.8 242.452 415.622 241.598 380.44C240.674 342.094 235.998 258.85 235.998 258.85H275.8Z" fill="white"/>
<path d="M265.999 523.184C266.083 523.184 264.907 531.122 264.907 531.122H241.611L240.981 524.038L265.999 523.184Z" fill="#263238"/>
<path d="M277.283 171.994C279.593 184.202 283.877 218.306 277.185 267.922L211.833 266.914C211.455 258.248 218.343 211.208 211.973 169.446C211.796 168.261 211.856 167.053 212.151 165.892C212.445 164.731 212.968 163.641 213.689 162.684C214.41 161.727 215.314 160.924 216.349 160.32C217.383 159.717 218.528 159.326 219.715 159.17C223.019 158.722 226.856 158.302 230.635 158.12C239.182 157.63 247.751 157.63 256.298 158.12C259.097 158.386 261.897 158.792 264.389 159.226C267.579 159.797 270.521 161.323 272.823 163.603C275.126 165.884 276.681 168.81 277.283 171.994Z" fill="#263238"/>
<path opacity="0.2" d="M279.076 184.118L268.072 186.848C267.232 197.124 274.008 208.758 280.784 217.648C280.852 206.448 280.282 195.253 279.076 184.118Z" fill="black"/>
<path d="M274.554 166.506C276.416 169.852 278.432 173.506 280.504 176.908C282.576 180.31 284.704 183.796 286.846 187.156C290.973 193.759 295.657 199.998 300.846 205.804C301.49 206.462 302.12 207.134 302.764 207.75L303.24 208.212L303.618 208.548C303.828 208.772 304.192 209.024 304.458 209.262C305.746 210.27 307.258 211.334 308.924 212.356C312.214 214.386 315.742 216.374 319.326 218.292C326.494 222.142 333.914 225.922 341.236 229.744L338.338 237.71C330.052 235.726 321.894 233.244 313.908 230.276C309.904 228.778 305.886 227.154 301.868 225.18C299.731 224.162 297.659 223.012 295.666 221.736C295.12 221.344 294.602 221.036 294.014 220.574L293.174 219.93L292.488 219.356C291.55 218.6 290.696 217.816 289.828 217.032C286.52 213.948 283.433 210.635 280.588 207.12C277.788 203.718 275.17 200.12 272.692 196.634C270.214 193.148 267.862 189.452 265.692 185.742C263.522 182.032 261.366 178.392 259.35 174.36L274.554 166.506Z" fill="#263238"/>
<path d="M227.485 120.684C230.537 132.08 231.685 138.884 238.783 143.644C249.367 150.784 262.583 142.594 262.947 130.512C263.311 119.648 258.257 102.834 246.035 100.538C243.341 100.015 240.557 100.19 237.949 101.047C235.342 101.904 232.996 103.414 231.137 105.433C229.278 107.453 227.966 109.914 227.327 112.584C226.688 115.253 226.742 118.042 227.485 120.684Z" fill="#FFC3BD"/>
<path d="M251.16 120.824C253.876 116.834 254.912 110.702 253.008 107.748C254.786 108.49 267.61 109.372 262.584 100.244C257.558 91.116 247.478 88.596 238.7 91.116L242.97 92.348C242.97 92.348 230.972 91.48 225.134 96.338C226.912 96.436 228.452 96.338 228.452 96.338C228.452 96.338 215.6 102.4 221.2 107.006C212.17 113.88 218.288 123.4 233.156 137.596C235.746 139.934 243.082 139.08 244.706 137.68C243.67 131.492 249.634 123.092 251.16 120.824Z" fill="#263238"/>
<path d="M252.672 113.054C255.332 115 258.622 120.726 260.148 123.582C261.674 126.438 263.284 126.074 264.054 127.208C264.824 128.342 267.974 147.522 264.6 150.588C261.226 153.654 251.076 148.81 249.746 145.282C248.416 141.754 250.852 133.102 251.51 131.128C252.202 127.719 251.999 124.188 250.922 120.88C249.746 117.534 252.672 113.054 252.672 113.054Z" fill="#263238"/>
<path d="M246.679 121.356C247.042 122.752 247.681 124.061 248.559 125.206C249.437 126.351 250.535 127.308 251.789 128.02C254.883 129.42 255.261 125.822 254.659 122.42C254.113 119.326 253.259 116.82 250.753 115.616C247.799 114.09 245.657 117.968 246.679 121.356Z" fill="#FFC3BD"/>
</svg>
