<svg width="31" height="31" viewBox="0 0 31 31" fill="none" xmlns="http://www.w3.org/2000/svg">
<g clip-path="url(#clip0_275_63820)">
<path d="M31 15.5949C31 6.9808 24.0598 -0.00195312 15.5 -0.00195312C6.93622 -1.56249e-05 -0.00390625 6.9808 -0.00390625 15.5969C-0.00390625 23.3798 5.66522 29.8317 13.0742 31.0019V20.1035H9.14109V15.5969H13.0781V12.1578C13.0781 8.24986 15.3934 6.09148 18.9332 6.09148C20.6305 6.09148 22.4033 6.39567 22.4033 6.39567V10.2319H20.4483C18.5244 10.2319 17.9238 11.4351 17.9238 12.6693V15.5949H22.2212L21.5353 20.1015H17.9218V31C25.3308 29.8297 31 23.3779 31 15.5949Z" fill="white"/>
</g>
<defs>
<clipPath id="clip0_275_63820">
<rect width="31" height="31" fill="white"/>
</clipPath>
</defs>
</svg>
