<svg width="250" height="250" viewBox="0 0 250 250" fill="none" xmlns="http://www.w3.org/2000/svg">
<path d="M243.966 190.763V74.2213L226.015 63.1973L212.547 71.4653V100.06L205.81 95.9261V84.9021L199.078 80.7681V38.8237L178.873 26.4217L169.898 31.9337V44.8095L160.917 39.2975L151.937 44.8095V68.693L142.961 74.1886V51.2856L133.981 45.7736L122.757 52.6636V80.218L111.537 73.3335V29.2431L98.069 20.9751L82.3518 30.6211V66.389L75.6202 70.523V85.0056L66.6397 90.5176V40.9751L55.4204 34.0851L41.9522 42.3531V54.1178L35.2155 58.2518V90.0383L26.2401 95.5503V74.0415L12.7718 65.7736L6.03516 69.9076V190.763H243.966Z" fill="#F5F5F5"/>
<path d="M36.7108 118.894C-12.0494 148.851 -12.0443 197.325 36.7108 227.282C85.466 257.238 164.523 257.211 213.284 227.282C262.044 197.353 262.039 148.851 213.284 118.894C164.528 88.9377 85.4711 88.9649 36.7108 118.894Z" fill="#FAFAFA"/>
<path d="M196.512 16.8845L198.423 17.6633V13.1644C198.423 9.61866 201.082 8.76899 203.971 10.5391C206.855 12.3147 209.196 16.623 209.196 20.1688V20.8169C209.603 20.6831 210.034 20.6499 210.454 20.7197C210.875 20.7896 211.276 20.9607 211.625 21.22V21.22C212.72 21.9782 213.632 23.001 214.286 24.205C214.939 25.4089 215.316 26.76 215.385 28.1481V28.4422L218.049 30.0762C218.771 30.576 219.371 31.2499 219.802 32.0429C220.233 32.836 220.482 33.7259 220.528 34.6404C220.528 36.318 219.417 36.9988 218.049 36.1601L196.533 22.9411C195.812 22.4403 195.211 21.7662 194.781 20.9734C194.35 20.1805 194.101 19.291 194.053 18.3768C194.033 16.6938 195.144 16.013 196.512 16.8845Z" fill="#F5F5F5"/>
<path d="M22.1417 33.3987L24.4521 31.5033V26.0893C24.4521 21.7974 27.6745 16.8301 31.1735 14.6514C34.6673 12.5054 37.5054 14.2484 37.5054 18.5403V19.3355C38.2437 18.0679 39.2486 16.9996 40.4409 16.2146V16.2146C42.9614 14.6678 45.0003 15.9205 45.0003 19.0087V19.3682L48.2226 17.3856C49.8774 16.3725 51.2247 17.195 51.2247 19.2266C51.1664 20.3336 50.8643 21.4106 50.3429 22.3708C49.8215 23.3311 49.0952 24.1477 48.2226 24.7549L22.1417 40.7625C20.487 41.781 19.1396 40.9586 19.1396 38.9216C19.1988 37.8155 19.5012 36.7396 20.0226 35.7804C20.544 34.8211 21.2698 34.0054 22.1417 33.3987V33.3987Z" fill="#F5F5F5"/>
<path d="M239.626 33.344L236.168 31.2199C236.189 31.0702 236.199 30.9191 236.199 30.7678V29.6785C236.146 28.6465 235.865 27.6424 235.379 26.7472C234.893 25.8521 234.215 25.0912 233.402 24.526C233.159 24.3522 232.886 24.2323 232.599 24.1734C232.313 24.1144 232.017 24.1176 231.732 24.1828C231.48 21.4867 229.718 18.4366 227.582 17.1022C225.266 15.6806 223.391 16.8353 223.391 19.673V21.2689C223.402 22.0441 223.521 22.8133 223.745 23.551L220.871 21.7863C220.015 21.2416 219.334 21.6883 219.334 22.7395C219.362 23.3106 219.516 23.8668 219.783 24.3634C220.05 24.86 220.422 25.2831 220.871 25.5989L239.631 37.1131C240.487 37.6578 241.168 37.2111 241.168 36.1599C241.133 35.5959 240.976 35.0481 240.708 34.5595C240.44 34.0709 240.07 33.6549 239.626 33.344V33.344Z" fill="#F5F5F5"/>
<path d="M191.496 136.166L231.517 160.784C237.92 164.7 237.152 171.525 229.811 176.035L148.95 232.064C112.193 254.673 50.8865 207.712 80.2564 190.207L169.908 135.005C177.254 130.501 185.087 132.244 191.496 136.166Z" fill="#E0E0E0"/>
<g opacity="0.2">
<path opacity="0.2" d="M18.571 74.1612L138.494 0.484739C138.878 0.245087 139.196 0.441166 139.196 0.915022V111.966C139.182 112.226 139.112 112.478 138.99 112.703C138.868 112.928 138.698 113.12 138.494 113.262L18.571 186.939C18.1816 187.173 17.8691 186.983 17.8691 186.503V75.452C17.8814 75.1931 17.9515 74.941 18.0735 74.7165C18.1955 74.4921 18.3661 74.3017 18.571 74.1612Z" fill="black"/>
</g>
<path d="M138.284 3.26787L21.2862 75.1633C21.0601 75.3142 20.8704 75.5196 20.7325 75.7627C20.5946 76.0058 20.5123 76.28 20.4922 76.5631V186.171C20.5066 186.456 20.5847 186.733 20.7202 186.979C20.8556 187.226 21.0444 187.434 21.2709 187.587L22.7463 188.48C22.9854 188.605 23.2483 188.67 23.5147 188.67C23.7812 188.67 24.0441 188.605 24.2832 188.48L141.281 116.585C141.507 116.43 141.695 116.22 141.829 115.973C141.963 115.726 142.041 115.448 142.055 115.163V5.56634C142.041 5.28133 141.963 5.00403 141.827 4.75765C141.692 4.51126 141.503 4.30298 141.276 4.15022L139.857 3.26787C139.614 3.13546 139.344 3.06641 139.071 3.06641C138.797 3.06641 138.528 3.13546 138.284 3.26787V3.26787Z" fill="#DF4E3C"/>
<path opacity="0.2" d="M24.3191 188.453C24.079 188.574 23.8165 188.637 23.5506 188.637C23.2848 188.637 23.0222 188.574 22.7822 188.453L21.3119 187.56C21.0854 187.407 20.8966 187.198 20.7612 186.952C20.6257 186.706 20.5476 186.428 20.5332 186.144V76.5629C20.5416 76.2647 20.6266 75.9746 20.7791 75.7241L23.7914 77.576C23.6505 77.8207 23.5728 78.1007 23.566 78.3875V187.99C23.566 188.453 23.8631 188.752 24.3191 188.453Z" fill="black"/>
<g opacity="0.2">
<path opacity="0.2" d="M142.081 5.41406C142.019 5.00011 141.702 4.86939 141.317 5.08726L24.3195 76.9609C24.0924 77.1157 23.9043 77.3269 23.7713 77.5764L20.7539 75.7082C20.8761 75.4699 21.0521 75.2677 21.2662 75.1199L138.29 3.26809C138.529 3.14311 138.792 3.07812 139.058 3.07812C139.325 3.07813 139.588 3.14311 139.827 3.26809L141.297 4.15589C141.505 4.29349 141.683 4.47708 141.818 4.69418C141.953 4.91129 142.043 5.15681 142.081 5.41406V5.41406Z" fill="white"/>
</g>
<path d="M141.317 5.09231L24.3195 76.9605C24.0976 77.119 23.9138 77.3307 23.783 77.5786C23.6522 77.8265 23.578 78.1036 23.5664 78.3875V187.995C23.5664 188.54 23.9096 188.731 24.34 188.469L141.338 116.574C141.564 116.419 141.751 116.209 141.886 115.962C142.02 115.715 142.098 115.437 142.111 115.152V5.56617C142.091 5.03784 141.748 4.82542 141.317 5.09231Z" fill="white"/>
<path d="M141.471 5.75689V115.174C141.456 115.343 141.407 115.507 141.327 115.654C141.248 115.802 141.14 115.93 141.01 116.029L24.1658 187.805V78.3876C24.1806 78.2183 24.2294 78.0543 24.3089 77.9068C24.3885 77.7592 24.4969 77.6316 24.6269 77.5325L141.471 5.75689ZM141.666 4.97803C141.542 4.98286 141.422 5.02232 141.317 5.09241L24.3195 76.9606C24.0976 77.1191 23.9138 77.3308 23.783 77.5787C23.6522 77.8265 23.578 78.1036 23.5664 78.3876V187.995C23.5664 188.366 23.7406 188.584 23.9916 188.584C24.1152 188.579 24.2354 188.539 24.34 188.469L141.338 116.574C141.564 116.419 141.751 116.209 141.886 115.962C142.02 115.715 142.098 115.437 142.111 115.152V5.56626C142.111 5.19045 141.937 4.97803 141.686 4.97803H141.666Z" fill="#DF4E3C"/>
<path d="M129.098 73.4423C128.693 77.5654 127.782 86.4107 126.87 91.8955C97.703 111.318 68.3314 129.352 38.7549 145.997C37.8379 141.639 36.926 133.911 36.5213 130.283C36.4887 129.875 36.5394 129.465 36.6699 129.08C36.6699 129.025 36.7057 128.976 36.7211 128.927C36.9162 128.34 37.2987 127.845 37.802 127.527C40.9117 125.893 48.6268 121.808 58.1709 116.465C58.2333 116.414 58.3061 116.378 58.3835 116.361C58.461 116.344 58.5411 116.347 58.6175 116.369C58.6939 116.39 58.7646 116.43 58.824 116.486C58.8834 116.541 58.9299 116.611 58.9598 116.688C58.9898 116.766 59.0363 116.836 59.0957 116.891C59.1551 116.947 59.2257 116.987 59.3021 117.008C59.3785 117.03 59.4586 117.033 59.5361 117.016C59.6136 116.999 59.6864 116.963 59.7488 116.912C75.6606 108.197 90.5479 99.0796 106.281 88.3497C106.659 88.0495 106.936 87.6272 107.069 87.146V87.146C107.198 86.6606 107.478 86.2361 107.864 85.9423C117.223 79.6787 124.769 74.4118 127.843 72.255C127.916 72.182 128.003 72.1258 128.097 72.0897C128.192 72.0536 128.292 72.0383 128.393 72.045C128.493 72.0516 128.591 72.0799 128.68 72.1282C128.77 72.1765 128.849 72.2437 128.914 72.3258C128.914 72.3584 128.95 72.3911 128.97 72.4184C129.114 72.7366 129.159 73.0952 129.098 73.4423V73.4423Z" fill="#DF4E3C"/>
<path d="M72.7457 83.175L65.7324 113.6V117.543C69.8718 115.152 73.7601 112.875 77.1925 110.8V106.96L79.6822 78.8231L72.7457 83.175ZM92.9046 70.8057L85.9681 74.9723L88.4578 100.027V103.872C91.8953 101.726 95.7785 99.2316 99.923 96.5355V92.5922L92.9046 70.8057Z" fill="#E6E6E6"/>
<path d="M127.485 75.5828C127.147 79.0141 126.686 83.5839 125.979 88.3115C97.2052 107.534 68.4142 125.207 39.6062 141.329C38.9043 137.462 38.4791 133.442 38.1461 130.436C38.1289 130.188 38.1744 129.939 38.278 129.716C38.3816 129.493 38.5395 129.303 38.7353 129.167C42.1113 127.386 48.4689 123.987 56.2558 119.662C56.891 119.308 57.3931 119.744 57.3931 120.643C57.3931 121.547 57.9054 121.983 58.5355 121.623C74.7684 112.545 90.9569 102.609 107.101 91.8137C107.447 91.5341 107.73 91.1746 107.927 90.7624C108.124 90.3502 108.23 89.8958 108.238 89.4335V89.4335C108.248 88.9709 108.355 88.5164 108.553 88.1042C108.751 87.692 109.034 87.3327 109.381 87.0534C117.142 81.8464 123.51 77.4183 126.896 75.0708C127.255 74.7821 127.562 75.049 127.485 75.5828Z" fill="#37474F"/>
<path d="M129.303 92.6797L128.694 98.0392C128.63 98.6227 128.454 99.1861 128.177 99.6947C127.9 100.203 127.529 100.646 127.085 100.997C122.27 104.172 105.164 115.37 82.8178 129.09C60.4715 142.81 43.3711 152.609 38.5453 155.343C37.7461 155.801 37.0801 155.381 36.9366 154.357L36.3321 149.755C36.2766 149.244 36.3238 148.726 36.4705 148.235C67.4233 131.002 98.3216 112.037 129.165 91.3398C129.323 91.7652 129.371 92.228 129.303 92.6797V92.6797Z" fill="#E0E0E0"/>
<path d="M129.165 91.3343C98.315 112.031 67.4167 130.997 36.4707 148.23C36.5507 147.939 36.6553 147.656 36.7832 147.385L37.6592 145.594C37.9362 144.976 38.3804 144.46 38.9348 144.112C42.8078 141.901 61.4758 131.209 82.8437 118.094C104.211 104.978 122.88 92.7558 126.747 90.2068C126.923 90.056 127.14 89.9692 127.366 89.9594C127.592 89.9496 127.815 90.0173 128.002 90.1524L128.873 90.8768C129.002 91.004 129.102 91.1604 129.165 91.3343Z" fill="#F5F5F5"/>
<g opacity="0.2">
<path opacity="0.2" d="M93.3046 121.253L93.4276 118.78C93.4625 118.383 93.4779 117.985 93.4737 117.587C93.4327 117.277 93.2073 117.162 92.9614 117.315C87.3262 120.948 81.6294 124.488 76.0249 127.81L72.6387 129.788C72.4387 129.956 72.287 130.18 72.201 130.435C72.115 130.69 72.098 130.966 72.152 131.231C72.2134 132.184 72.2698 133.164 72.3159 134.128C72.1981 133.219 72.0956 132.277 71.9932 131.356C71.9639 131.154 71.9519 130.95 71.9573 130.746C71.9806 130.492 72.0526 130.246 72.1689 130.023C72.2852 129.8 72.4434 129.605 72.6335 129.45L76.0249 127.271C81.6294 123.709 87.3569 120.223 92.9716 116.972C93.3149 116.781 93.6069 116.999 93.6427 117.44C93.6328 117.87 93.6003 118.299 93.5454 118.725L93.2893 121.258L93.3046 121.253Z" fill="black"/>
</g>
<path d="M124.062 87.9463L109.585 97.3799C109.39 97.5052 109.231 97.3799 109.231 97.1076L109.585 88.9812C109.587 88.8484 109.617 88.7178 109.673 88.5991C109.729 88.4803 109.809 88.3764 109.908 88.2949L124.826 78.186C125.041 78.0444 125.21 78.186 125.179 78.5182L124.395 87.3254C124.384 87.448 124.348 87.5666 124.291 87.6736C124.234 87.7806 124.156 87.8735 124.062 87.9463V87.9463Z" fill="#E0E0E0"/>
<path opacity="0.2" d="M121.45 88.6924L112.823 94.395C114.196 93.5508 115.308 91.285 115.308 89.3351C115.308 87.3852 114.196 86.4865 112.823 87.3362L121.45 81.5083C120.052 82.3634 118.92 84.6728 118.92 86.6608C118.92 88.6488 120.052 89.553 121.45 88.6924Z" fill="black"/>
<path d="M123.976 83.5457C123.976 85.5338 122.839 87.8322 121.415 88.6928C119.99 89.5534 118.884 88.6438 118.884 86.6612C118.884 84.6786 120.016 82.3638 121.415 81.5087C122.813 80.6536 123.976 81.5577 123.976 83.5457Z" fill="white"/>
<path d="M122.861 85.8678C123.264 84.8603 123.156 83.8468 122.62 83.6042C122.083 83.3616 121.322 83.9817 120.919 84.9892C120.515 85.9967 120.623 87.0102 121.16 87.2528C121.696 87.4954 122.458 86.8753 122.861 85.8678Z" fill="#EBEBEB"/>
<path d="M121.22 83.4909C121.214 83.7045 121.161 83.9137 121.067 84.1025C120.973 84.2914 120.84 84.4548 120.677 84.5802C120.375 84.7654 120.134 84.5802 120.134 84.1445C120.139 83.9307 120.191 83.721 120.285 83.532C120.379 83.343 120.513 83.1797 120.677 83.0552C120.974 82.87 121.22 83.0661 121.22 83.4909Z" fill="#EBEBEB"/>
<path d="M115.307 89.3245C115.307 91.2744 114.196 93.5402 112.823 94.3844C111.45 95.2286 110.333 94.3299 110.333 92.38C110.333 90.4301 111.445 88.1698 112.823 87.3256C114.201 86.4814 115.307 87.3909 115.307 89.3245Z" fill="white"/>
<path d="M114.472 90.6807C114.466 91.1651 114.353 91.6411 114.142 92.0705C113.931 92.5 113.628 92.8709 113.258 93.1535C112.587 93.5674 112.039 93.1262 112.039 92.1731C112.047 91.6891 112.161 91.2137 112.373 90.7852C112.584 90.3566 112.888 89.9869 113.258 89.7057C113.929 89.2918 114.472 89.7275 114.472 90.6807Z" fill="#EBEBEB"/>
<path d="M112.582 89.4932C112.578 89.7072 112.526 89.9172 112.432 90.1063C112.338 90.2954 112.203 90.4585 112.039 90.5825C111.742 90.7677 111.496 90.5825 111.496 90.1468C111.502 89.9332 111.555 89.7239 111.649 89.5351C111.743 89.3463 111.876 89.1829 112.039 89.0574C112.341 88.8723 112.582 89.0629 112.582 89.4932Z" fill="#EBEBEB"/>
<path d="M41.5681 138.584L56.0507 130.24C56.1568 130.161 56.2439 130.057 56.3045 129.936C56.3651 129.815 56.3975 129.68 56.399 129.543L56.0507 121.841C56.0507 121.585 55.9072 121.46 55.7228 121.558L40.8048 129.76C40.6895 129.845 40.5965 129.959 40.5346 130.093C40.4728 130.226 40.4441 130.374 40.4513 130.523L41.2402 138.344C41.2607 138.589 41.399 138.682 41.5681 138.584Z" fill="#E0E0E0"/>
<path opacity="0.2" d="M44.1807 136.127L52.8128 131.225C51.4348 132.07 50.3231 131.171 50.3231 129.221C50.3231 127.271 51.4348 125.011 52.8128 124.167L44.1807 128.932C45.5792 128.072 46.7114 128.987 46.7114 130.975C46.7114 132.963 45.5946 135.267 44.1807 136.127Z" fill="black"/>
<path d="M41.6445 134.096C41.6445 136.078 42.7767 136.988 44.1804 136.127C45.5841 135.267 46.7111 132.968 46.7111 130.98C46.7111 128.992 45.579 128.077 44.1804 128.938C42.7818 129.798 41.6445 132.108 41.6445 134.096Z" fill="white"/>
<path d="M42.5205 134.145C42.5205 135.098 43.0635 135.539 43.7346 135.125C44.106 134.843 44.4098 134.473 44.6216 134.043C44.8334 133.614 44.9472 133.137 44.9539 132.652C44.9539 131.699 44.4109 131.263 43.7346 131.677C43.365 131.959 43.0626 132.329 42.8517 132.758C42.6409 133.186 42.5274 133.661 42.5205 134.145V134.145Z" fill="#EBEBEB"/>
<path d="M44.416 130.637C44.416 131.062 44.6568 131.258 44.9591 131.073C45.1218 130.947 45.2553 130.784 45.3494 130.595C45.4436 130.406 45.4958 130.197 45.5021 129.984C45.5021 129.559 45.2562 129.363 44.9591 129.548C44.7955 129.672 44.6613 129.836 44.5671 130.025C44.4729 130.214 44.4212 130.423 44.416 130.637Z" fill="#EBEBEB"/>
<path d="M50.3232 129.226C50.3232 131.176 51.4349 132.075 52.813 131.231C54.1911 130.386 55.2976 128.121 55.2976 126.171C55.2976 124.221 54.1859 123.327 52.813 124.172C51.44 125.016 50.3232 127.282 50.3232 129.226Z" fill="white"/>
<path d="M51.1582 129.548C51.1582 130.501 51.7064 130.937 52.3775 130.523C52.7468 130.241 53.049 129.871 53.2599 129.442C53.4707 129.014 53.5843 128.539 53.5916 128.055C53.5916 127.102 53.0486 126.661 52.3775 127.075C52.0067 127.357 51.7034 127.728 51.4916 128.157C51.2799 128.587 51.1657 129.063 51.1582 129.548Z" fill="#EBEBEB"/>
<path d="M53.0479 126.035C53.0479 126.459 53.2938 126.655 53.5909 126.47C53.755 126.346 53.8896 126.183 53.9839 125.994C54.0782 125.805 54.1296 125.595 54.1339 125.381C54.1339 124.956 53.8931 124.76 53.5909 124.945C53.427 125.07 53.2926 125.233 53.1984 125.422C53.1041 125.611 53.0526 125.821 53.0479 126.035V126.035Z" fill="#EBEBEB"/>
<path d="M83.3143 111.111C83.3208 110.75 83.4061 110.396 83.5635 110.077C83.7209 109.757 83.946 109.481 84.221 109.27C91.9054 104.537 107.274 93.9596 107.274 93.7472C107.274 93.6383 95.0509 101.541 82.8276 109.041C70.6042 116.541 58.3809 123.616 58.3809 123.747C58.3809 124.03 73.7907 115.632 81.4341 110.975C81.9464 110.67 82.3358 110.975 82.3358 111.71V112.745C74.4208 117.587 58.3911 126.612 58.3911 126.933C58.3911 127.255 73.6268 118.932 81.1729 114.325C81.8184 113.932 82.3358 114.325 82.3358 115.267V116.264L83.3347 115.648V114.651C83.3419 114.187 83.4512 113.731 83.6541 113.319C83.8569 112.908 84.1476 112.553 84.5028 112.282C92.0847 107.598 107.285 97.1568 107.285 96.928C107.285 96.6993 91.2958 107.238 83.3347 112.13L83.3143 111.111Z" fill="#E0E0E0"/>
<path d="M128.909 72.3257C128.845 72.2436 128.766 72.1764 128.676 72.1281C128.586 72.0798 128.488 72.0515 128.388 72.0449C128.288 72.0383 128.187 72.0535 128.093 72.0896C127.998 72.1257 127.912 72.1819 127.838 72.2549C124.765 74.4335 117.219 79.6786 107.859 85.9422C107.475 86.2369 107.197 86.6613 107.07 87.1459V87.1459C106.935 87.6252 106.658 88.0454 106.281 88.3442C90.5485 99.074 75.6612 108.197 59.7493 116.906C59.687 116.958 59.6142 116.994 59.5367 117.01C59.4592 117.027 59.3791 117.025 59.3027 117.003C59.2263 116.981 59.1556 116.941 59.0962 116.886C59.0369 116.83 58.9904 116.761 58.9604 116.683C58.9304 116.605 58.884 116.536 58.8246 116.48C58.7652 116.425 58.6945 116.385 58.6181 116.363C58.5417 116.341 58.4616 116.339 58.3841 116.356C58.3066 116.372 58.2339 116.408 58.1715 116.46C48.6274 121.803 40.9123 125.888 37.8026 127.522C37.2993 127.839 36.9168 128.335 36.7217 128.922C40.5946 117.456 52.2545 96.4924 52.2545 96.4924C52.2545 96.4924 66.2606 87.0425 82.818 76.8845C99.3754 66.7266 113.376 58.9814 113.376 58.9814C113.376 58.9814 125.031 65.6154 128.909 72.3257Z" fill="#DF4E3C"/>
<path opacity="0.15" d="M128.909 72.3257C128.845 72.2436 128.766 72.1764 128.676 72.1281C128.586 72.0798 128.488 72.0515 128.388 72.0449C128.288 72.0383 128.187 72.0535 128.093 72.0896C127.998 72.1257 127.912 72.1819 127.838 72.2549C124.765 74.4335 117.219 79.6786 107.859 85.9422C107.475 86.2369 107.197 86.6613 107.07 87.1459V87.1459C106.935 87.6252 106.658 88.0454 106.281 88.3442C90.5485 99.074 75.6612 108.197 59.7493 116.906C59.687 116.958 59.6142 116.994 59.5367 117.01C59.4592 117.027 59.3791 117.025 59.3027 117.003C59.2263 116.981 59.1556 116.941 59.0962 116.886C59.0369 116.83 58.9904 116.761 58.9604 116.683C58.9304 116.605 58.884 116.536 58.8246 116.48C58.7652 116.425 58.6945 116.385 58.6181 116.363C58.5417 116.341 58.4616 116.339 58.3841 116.356C58.3066 116.372 58.2339 116.408 58.1715 116.46C48.6274 121.803 40.9123 125.888 37.8026 127.522C37.2993 127.839 36.9168 128.335 36.7217 128.922C40.5946 117.456 52.2545 96.4924 52.2545 96.4924C52.2545 96.4924 66.2606 87.0425 82.818 76.8845C99.3754 66.7266 113.376 58.9814 113.376 58.9814C113.376 58.9814 125.031 65.6154 128.909 72.3257Z" fill="white"/>
<path opacity="0.2" d="M107.582 86.1655C107.343 86.4446 107.168 86.7781 107.069 87.1404V87.1404C106.975 87.4486 106.829 87.7364 106.639 87.9901C106.127 85.5173 104.037 80.7951 102.213 74.3735C104.426 79.2592 107.582 86.1655 107.582 86.1655Z" fill="black"/>
<path opacity="0.2" d="M58.4014 116.351C58.5077 116.335 58.6158 116.358 58.7086 116.415C58.8014 116.472 58.8736 116.561 58.9137 116.667V116.667C58.9514 116.757 59.0113 116.834 59.0871 116.891C59.1629 116.947 59.2516 116.981 59.344 116.988C59.8255 113.922 61.9464 106.601 63.7702 97.9248C61.5878 105.55 58.4014 116.351 58.4014 116.351Z" fill="black"/>
<path d="M113.376 58.9758C113.376 58.9758 99.3851 66.7209 82.8174 76.8789C66.2498 87.0368 52.2539 96.4867 52.2539 96.4867L58.048 75.0924C58.4196 73.5883 59.2369 72.2514 60.3789 71.2798C74.3389 60.6697 91.2908 50.2612 105.251 43.7362C105.459 43.6124 105.689 43.5386 105.927 43.5202C106.164 43.5018 106.403 43.5391 106.625 43.6295C106.848 43.72 107.049 43.8613 107.214 44.0435C107.379 44.2257 107.505 44.4443 107.582 44.6839L113.376 58.9758Z" fill="#263238"/>
<path d="M82.8175 76.8791C95.7991 68.9161 107.761 62.0915 111.68 59.9129L106.209 46.4216C106.171 46.3063 106.11 46.2013 106.03 46.1136C105.95 46.0259 105.853 45.9577 105.746 45.9137C105.639 45.8697 105.524 45.8509 105.409 45.8586C105.295 45.8664 105.183 45.9005 105.082 45.9586C97.4675 49.6095 90.0315 53.6669 82.8022 58.1155C75.9016 62.3529 67.4333 68.0719 60.5173 73.317C59.9802 73.7953 59.5984 74.4414 59.4261 75.1634L53.96 95.3704C57.8893 92.707 69.8565 84.8312 82.8175 76.8791Z" fill="#37474F"/>
<path d="M118.176 106.808C117.039 109.809 115.169 112.483 113.053 113.889C92.903 126.993 72.7527 139.359 52.6024 150.986C50.4713 152.211 48.6014 151.83 47.4795 150.223C55.6352 145.485 68.0942 138.143 82.8279 129.096C97.5615 120.049 110.02 112.08 118.176 106.808Z" fill="#455A64"/>
<path d="M125.18 102.244V107.734C125.18 110.365 123.679 113.415 121.824 114.553L110.953 121.231C109.104 122.363 107.598 121.16 107.598 118.507V117.38L113.038 113.856C115.169 112.462 117.039 109.787 118.161 106.775C121.091 104.918 123.463 103.371 125.18 102.244Z" fill="#263238"/>
<path d="M40.4717 154.254V159.749C40.4717 162.375 41.9727 163.562 43.8272 162.445L54.6776 155.773C56.527 154.64 58.0331 151.59 58.0331 148.96V147.821C56.223 148.878 54.4095 149.931 52.5926 150.98C50.4614 152.2 48.5916 151.825 47.4696 150.218C44.5393 151.906 42.1674 153.273 40.4717 154.254Z" fill="#263238"/>
<path d="M88.4585 100.032C92.2597 97.6359 96.0815 95.1631 99.9237 92.6141L92.9052 70.8276L86.3274 74.7819L85.9688 74.9943L88.4585 100.032Z" fill="#FAFAFA"/>
<path d="M79.3082 79.0466L72.7457 83.1751L65.7324 113.6C69.5883 111.421 73.4083 109.206 77.1925 106.955L79.6822 78.8232L79.3082 79.0466Z" fill="#FAFAFA"/>
<path d="M110.902 59.6403C109.642 60.3429 107.234 61.7046 103.791 63.6926C98.7606 59.2972 92.1161 57.2874 84.4521 57.8212C91.4501 53.6 99.0321 49.4987 105.046 46.6828C105.112 46.6453 105.184 46.6233 105.258 46.6183C105.332 46.6133 105.406 46.6255 105.475 46.654C105.544 46.6824 105.607 46.7266 105.659 46.7833C105.71 46.84 105.749 46.9079 105.774 46.9824L110.902 59.6403Z" fill="#455A64"/>
<path d="M219.329 164.973L208.212 158.208L216.096 153.366L219.908 155.708L219.329 164.973Z" fill="black"/>
<path d="M149.375 210.708L134.124 201.345V191.982L149.375 201.345V210.708Z" fill="black"/>
<path d="M142.188 206.781L144.652 201.574L138.786 197.968C136.921 196.83 134.442 196.961 131.711 198.633C125.922 202.184 121.23 211.356 121.225 219.112C121.225 223.17 122.516 226.035 124.575 227.337L124.662 227.386L130.671 231.079L133.269 225.588C138.197 221.596 141.998 213.698 142.188 206.781Z" fill="#37474F"/>
<path d="M142.188 206.781L144.652 201.574L138.786 197.968C136.921 196.83 134.442 196.961 131.711 198.633C125.922 202.184 121.23 211.356 121.225 219.112C121.225 223.17 122.516 226.035 124.575 227.337L124.662 227.386L130.671 231.079L133.269 225.588C138.197 221.596 141.998 213.698 142.188 206.781Z" fill="#263238"/>
<path d="M148.299 209.983C148.299 216.666 144.805 224.406 140.133 228.687C139.42 229.345 138.65 229.93 137.833 230.435C132.044 233.998 127.346 230.588 127.352 222.81C127.352 216.955 130.031 210.283 133.837 205.839C133.849 205.829 133.859 205.818 133.868 205.806C135.016 204.44 136.353 203.269 137.833 202.331C143.607 198.802 148.299 202.227 148.299 209.983Z" fill="#37474F"/>
<path d="M137.807 207.059C141.496 204.793 144.467 207.151 144.467 212.32C144.467 217.489 141.48 223.518 137.807 225.779C134.134 228.039 131.147 225.686 131.147 220.517C131.147 215.348 134.129 209.319 137.807 207.059Z" fill="#455A64"/>
<path d="M140.83 214.989C140.574 217.56 139.017 220.283 137.357 221.073C137.073 221.243 136.748 221.318 136.424 221.288C136.099 221.259 135.791 221.127 135.538 220.909C134.954 220.365 134.657 219.275 134.8 217.848C135.051 215.278 136.604 212.549 138.274 211.765C138.65 211.562 139.08 211.5 139.493 211.59V211.59C140.456 211.874 141.015 213.115 140.83 214.989Z" fill="#FAFAFA"/>
<path d="M140.236 214.657C139.98 217.228 138.422 219.951 136.757 220.741C136.381 220.943 135.951 221.002 135.538 220.909C134.954 220.365 134.657 219.275 134.8 217.848C135.051 215.278 136.604 212.549 138.274 211.765C138.65 211.562 139.08 211.5 139.493 211.59V211.59C140.077 212.13 140.369 213.219 140.236 214.657Z" fill="#E0E0E0"/>
<path d="M148.299 209.983C148.299 216.666 144.805 224.406 140.133 228.687C143.379 224.78 145.667 220.08 146.793 215.005C147.679 210.534 147.346 204.112 143.719 202.478C140.092 200.844 135.343 204.275 133.837 205.833C134.985 204.468 136.322 203.296 137.802 202.358C143.606 198.802 148.299 202.227 148.299 209.983Z" fill="#455A64"/>
<path d="M213.115 160.675L215.318 156.018L210.072 152.794C208.407 151.775 206.184 151.89 203.745 153.388C198.571 156.563 194.37 164.766 194.37 171.699C194.37 175.332 195.523 177.892 197.362 179.058L197.434 179.107L202.813 182.407L205.133 177.505C209.529 173.938 212.941 166.873 213.115 160.675Z" fill="#37474F"/>
<path d="M213.115 160.675L215.318 156.018L210.072 152.794C208.407 151.775 206.184 151.89 203.745 153.388C198.571 156.563 194.37 164.766 194.37 171.699C194.37 175.332 195.523 177.892 197.362 179.058L197.434 179.107L202.813 182.407L205.133 177.505C209.529 173.938 212.941 166.873 213.115 160.675Z" fill="#263238"/>
<path d="M218.575 163.551C218.575 169.542 215.45 176.454 211.27 180.283C210.633 180.87 209.947 181.395 209.221 181.852C204.041 185.032 199.841 181.982 199.846 175.049C199.846 169.809 202.243 163.845 205.645 159.874L205.676 159.842C206.7 158.619 207.896 157.572 209.221 156.737C214.374 153.595 218.575 156.617 218.575 163.551Z" fill="#37474F"/>
<path d="M209.196 160.937C212.495 158.916 215.164 161.024 215.164 165.648C215.164 170.272 212.495 175.659 209.196 177.68C205.896 179.7 203.232 177.598 203.232 172.974C203.232 168.35 205.901 162.957 209.196 160.937Z" fill="#455A64"/>
<path d="M211.895 168.028C211.665 170.326 210.276 172.767 208.786 173.475C208.533 173.627 208.243 173.695 207.953 173.669C207.664 173.644 207.388 173.527 207.162 173.333C206.649 172.854 206.373 171.884 206.501 170.61C206.726 168.311 208.115 165.871 209.605 165.163C209.942 164.98 210.327 164.926 210.697 165.011V165.011C211.578 165.218 212.059 166.356 211.895 168.028Z" fill="#FAFAFA"/>
<path d="M211.363 167.756C211.137 170.054 209.744 172.489 208.253 173.202C207.915 173.379 207.531 173.432 207.162 173.355C206.649 172.876 206.373 171.906 206.501 170.632C206.726 168.333 208.115 165.893 209.605 165.185C209.942 165.002 210.327 164.948 210.697 165.033V165.033C211.219 165.474 211.491 166.443 211.363 167.756Z" fill="#E0E0E0"/>
<path d="M218.576 163.551C218.576 169.542 215.451 176.454 211.27 180.283C214.171 176.787 216.213 172.583 217.213 168.044C218.007 164.047 217.725 158.306 214.483 156.857C211.24 155.408 206.993 158.464 205.646 159.858C206.67 158.635 207.866 157.588 209.191 156.754C214.375 153.594 218.576 156.617 218.576 163.551Z" fill="#455A64"/>
<path d="M160.86 175.245L121.496 210.708V223.453L79.5439 197.712L76.4445 188.213C76.2577 187.527 76.2756 186.797 76.4957 186.122C77.4639 182.854 79.3338 181.062 83.6678 177.456C90.84 171.492 111.019 156.127 114.667 153.317C114.667 153.317 120.748 157.56 133.284 164.047C145.819 170.534 160.86 175.245 160.86 175.245Z" fill="#DF4E3C"/>
<path opacity="0.15" d="M160.86 175.245L121.496 210.708V223.453L79.5439 197.712L76.4445 188.213C76.2577 187.527 76.2756 186.797 76.4957 186.122C77.4639 182.854 79.3338 181.062 83.6678 177.456C90.84 171.492 111.019 156.127 114.667 153.317C114.667 153.317 120.748 157.56 133.284 164.047C145.819 170.534 160.86 175.245 160.86 175.245Z" fill="white"/>
<path d="M126.383 225.125L120.794 228.557C120.416 228.761 119.998 228.867 119.574 228.867C119.15 228.867 118.733 228.761 118.355 228.557C103.089 220.801 89.7894 212.761 78.857 204.308C78.5011 204.064 78.2049 203.733 77.9929 203.343C77.781 202.952 77.6592 202.514 77.6378 202.064V200.376C77.6346 199.974 77.719 199.577 77.8843 199.216C78.0496 198.855 78.2914 198.54 78.5907 198.295L79.5435 197.712C93.0361 207.159 107.039 215.754 121.48 223.453L127.259 219.706L126.383 225.125Z" fill="#E0E0E0"/>
<path opacity="0.1" d="M126.383 225.125L120.794 228.557C120.416 228.761 119.998 228.867 119.574 228.867C119.15 228.867 118.733 228.761 118.355 228.557C103.089 220.801 89.7894 212.761 78.857 204.308C78.5011 204.064 78.2049 203.733 77.9929 203.343C77.781 202.952 77.6592 202.514 77.6378 202.064V200.376C77.6346 199.974 77.719 199.577 77.8843 199.216C78.0496 198.855 78.2914 198.54 78.5907 198.295L79.5435 197.712C93.0361 207.159 107.039 215.754 121.48 223.453L127.259 219.706L126.383 225.125Z" fill="black"/>
<path d="M78.8578 199.63C91.5621 208.518 104.746 216.608 118.34 223.856C118.666 224.06 119.032 224.181 119.408 224.209C119.785 224.238 120.163 224.173 120.513 224.02L121.465 223.431C107.03 215.739 93.032 207.151 79.5443 197.712L78.5914 198.295C78.0638 198.622 78.1816 199.216 78.8578 199.63Z" fill="#F5F5F5"/>
<path d="M121.485 223.453C107.042 215.754 93.0376 207.159 79.5437 197.712L76.4443 188.213C79.9962 190.828 83.5823 193.348 87.2025 195.773L87.387 196.242C87.387 196.242 93.7138 200.496 98.8521 203.649C103.99 206.803 107.735 208.84 107.735 208.84L107.541 208.126C110.783 209.88 115.404 212.304 118.709 213.905L121.485 223.453Z" fill="#DF4E3C"/>
<path d="M120.318 221.988C106.494 214.545 93.0758 206.278 80.1281 197.227L77.8125 190.12C80.7906 192.276 83.791 194.366 86.8135 196.389L87.4283 197.93C87.4283 197.93 94.0523 202.391 99.4365 205.697C104.821 209.003 110.143 211.917 110.143 211.917L109.667 210.131C112.481 211.637 115.301 213.077 118.125 214.45L120.318 221.988Z" fill="#263238"/>
<path d="M80.9422 197.167L87.7199 201.579C87.8121 201.634 87.8428 201.579 87.7916 201.399L86.142 196.737C86.0995 196.59 86.0154 196.461 85.9012 196.367L78.8418 191.59C78.7445 191.525 78.7137 191.628 78.7854 191.808L80.7117 196.83C80.7573 196.963 80.8371 197.08 80.9422 197.167V197.167Z" fill="#E0E0E0"/>
<path opacity="0.2" d="M82.0026 197.413L86.06 200.087C85.2182 199.388 84.5891 198.441 84.2516 197.364C83.8827 196.242 84.103 195.643 84.7331 196.035L80.6348 193.284C81.2803 193.682 82.1051 194.918 82.479 196.073C82.853 197.228 82.6532 197.81 82.0026 197.413Z" fill="black"/>
<path d="M80.1582 194.624C80.5322 195.768 81.357 197.015 82.0024 197.413C82.6479 197.81 82.8733 197.206 82.5147 196.056C82.1561 194.907 81.316 193.665 80.6705 193.268C80.025 192.87 79.7893 193.475 80.1582 194.624Z" fill="white"/>
<path d="M80.6808 195.218C80.8446 195.745 81.1511 196.209 81.562 196.552C81.8745 196.743 81.982 196.454 81.8027 195.904C81.6373 195.374 81.3291 194.908 80.9165 194.564C80.604 194.373 80.5015 194.667 80.6808 195.218Z" fill="#EBEBEB"/>
<path d="M81.1119 194.395C81.1844 194.632 81.3218 194.841 81.5064 194.994C81.6447 195.076 81.6908 194.951 81.6088 194.7C81.5377 194.464 81.4 194.257 81.2144 194.107C81.076 194.019 81.0299 194.15 81.1119 194.395Z" fill="#EBEBEB"/>
<path d="M84.2515 197.347C84.5891 198.424 85.2182 199.372 86.0599 200.07C86.6952 200.463 86.9104 199.863 86.5466 198.736C86.1829 197.609 85.3683 196.389 84.7331 196.013C84.0979 195.637 83.8827 196.225 84.2515 197.347Z" fill="white"/>
<path d="M84.7951 198.061C84.9588 198.59 85.2652 199.056 85.6762 199.401C85.9887 199.591 86.0963 199.303 85.917 198.752C85.7516 198.223 85.4434 197.757 85.0307 197.413C84.7182 197.222 84.6158 197.516 84.7951 198.061Z" fill="#EBEBEB"/>
<path d="M85.2252 197.244C85.2963 197.48 85.434 197.687 85.6196 197.837C85.758 197.925 85.8041 197.794 85.7221 197.549C85.6496 197.312 85.5122 197.103 85.3276 196.95C85.1893 196.868 85.1432 196.999 85.2252 197.244Z" fill="#EBEBEB"/>
<path d="M119.011 220.523L112.434 216.71C112.315 216.616 112.228 216.484 112.182 216.334L110.856 211.874C110.81 211.721 110.856 211.639 110.917 211.683L117.618 215.36C117.749 215.461 117.843 215.607 117.884 215.773L119.083 220.354C119.119 220.501 119.088 220.588 119.011 220.523Z" fill="#E0E0E0"/>
<path opacity="0.2" d="M117.648 219.286L113.729 217.075C114.364 217.467 114.58 216.868 114.216 215.746C113.852 214.624 113.038 213.393 112.402 213.023L116.291 215.142C115.645 214.75 115.425 215.354 115.778 216.503C116.132 217.653 116.998 218.894 117.648 219.286Z" fill="black"/>
<path d="M118.141 217.936C118.514 219.079 118.294 219.684 117.628 219.286C116.962 218.889 116.158 217.652 115.784 216.503C115.41 215.354 115.63 214.749 116.296 215.141C116.962 215.534 117.772 216.775 118.141 217.936Z" fill="white"/>
<path d="M117.828 218.028C118.007 218.573 117.9 218.873 117.592 218.682C117.178 218.339 116.87 217.872 116.706 217.342C116.527 216.797 116.634 216.503 116.942 216.694C117.355 217.036 117.663 217.5 117.828 218.028V218.028Z" fill="#EBEBEB"/>
<path d="M116.532 216.138C116.614 216.383 116.568 216.514 116.429 216.432C116.245 216.279 116.107 216.07 116.035 215.833C115.953 215.588 115.999 215.457 116.137 215.545C116.323 215.695 116.461 215.902 116.532 216.138V216.138Z" fill="#EBEBEB"/>
<path d="M114.241 215.746C114.605 216.868 114.39 217.467 113.755 217.075C113.12 216.683 112.31 215.441 111.946 214.352C111.583 213.262 111.798 212.631 112.428 213.023C113.058 213.415 113.857 214.624 114.241 215.746Z" fill="white"/>
<path d="M113.996 215.991C114.175 216.536 114.068 216.83 113.76 216.639C113.346 216.297 113.037 215.83 112.874 215.3C112.695 214.755 112.802 214.461 113.11 214.651C113.524 214.994 113.832 215.461 113.996 215.991V215.991Z" fill="#EBEBEB"/>
<path d="M112.704 214.096C112.781 214.341 112.735 214.472 112.597 214.39C112.414 214.235 112.277 214.027 112.202 213.791C112.12 213.546 112.172 213.415 112.31 213.502C112.494 213.654 112.632 213.861 112.704 214.096V214.096Z" fill="#EBEBEB"/>
<path d="M97.1869 206.923C93.5138 204.662 88.4164 201.029 88.4779 201.16C91.1544 203.3 93.9405 205.28 96.8232 207.091C97.2193 207.422 97.5151 207.869 97.6736 208.377L97.858 208.949L98.3191 209.232L98.1347 208.687C97.9605 208.143 98.0629 207.881 98.3601 208.061C101.833 210.185 111.085 215.218 111.024 215.027C110.963 214.837 101.29 209.466 97.6582 207.233L97.4636 206.634C97.3304 206.22 97.4072 206.008 97.6377 206.144C101.152 208.29 110.476 213.355 110.445 213.186C110.419 213.105 102.443 208.573 96.8078 205.12C91.1726 201.667 87.8683 199.281 87.8888 199.341C90.5955 201.495 93.4067 203.497 96.3109 205.338C96.6199 205.592 96.85 205.939 96.9718 206.334L97.1869 206.923Z" fill="#E0E0E0"/>
<path d="M235.984 147.413C235.584 148.682 235.21 149.733 234.959 150.359C233.858 153.083 232.633 154.591 230.277 156.351C227.92 158.11 220.031 164.488 220.031 164.488L219.309 164.956L218.258 160.653L217.505 157.565C217.126 156.018 215.968 155.561 214.647 156.421L203.97 163.284C202.608 164.161 201.327 166.193 200.779 168.366L198.13 178.802L149.36 210.686V210.653L148.12 206.149L147.28 203.104C146.803 201.394 145.43 200.926 143.832 201.961L132.172 209.482C130.538 210.534 129.027 212.865 128.386 215.321L127.249 219.706L121.47 223.453C120.697 220.768 119.677 217.255 118.704 213.91C118.546 213.171 118.618 212.397 118.909 211.705C120.195 208.208 122.377 206.105 127.346 201.901C135.42 195.114 157.06 178.202 160.84 175.212C160.84 175.212 166.306 160.958 168.704 154.058C171.102 147.157 171.491 147.886 175.364 146.084C179.237 144.281 202.203 135.043 207.756 136.013C213.31 136.982 217.531 142.037 221.286 140.675C225.041 139.314 234.493 136.236 237.167 135.909C239.242 135.686 237.428 142.886 235.984 147.413Z" fill="#DF4E3C"/>
<g opacity="0.1">
<path opacity="0.1" d="M107.546 207.418C109.964 200.964 123.494 190.468 129.139 186.204C130.302 185.359 131.46 184.499 132.633 183.671C127.039 188.219 121.403 192.712 116.065 197.592C113.931 199.538 111.896 201.603 109.969 203.78C109.067 204.907 108.058 206.018 107.546 207.418V207.418Z" fill="black"/>
</g>
<g opacity="0.1">
<path opacity="0.1" d="M87.8379 195.37C88.9957 189.88 92.5971 185.474 96.1115 181.46C99.7283 177.467 103.524 173.682 107.382 169.995C106.48 170.991 105.553 171.966 104.646 172.952C101.977 175.812 99.011 178.889 96.4496 181.803C92.9096 185.774 89.3543 190.033 87.8379 195.37Z" fill="black"/>
</g>
<path d="M114.677 153.317C114.677 153.317 120.758 157.56 133.294 164.047C145.829 170.534 160.86 175.245 160.86 175.245" fill="#DF4E3C"/>
<path d="M170.354 149.591L169.626 151.596L168.832 153.774C168.791 153.872 168.755 153.981 168.719 154.09L161.035 174.76C160.917 175.076 160.851 175.245 160.851 175.245C160.851 175.245 143.023 170.942 130.487 164.455C117.951 157.968 114.683 153.317 114.683 153.317L126.025 130.392C126.025 130.392 132.444 137.184 147.06 143.028C161.675 148.872 170.354 149.591 170.354 149.591Z" fill="#263238"/>
<path d="M157.925 172.81C152.475 171.351 140.22 167.805 131.383 163.235C124.473 159.662 120.22 156.672 117.992 154.836C117.497 154.364 117.162 153.731 117.039 153.036C116.916 152.341 117.011 151.623 117.311 150.991L125.287 134.869C125.892 133.649 127.116 133.464 128.156 134.286C135.902 140.403 156.947 148.638 166.363 150.229C167.644 150.446 168.31 151.536 167.833 152.816L161.066 171.084C160.816 171.717 160.364 172.237 159.79 172.553C159.216 172.868 158.556 172.96 157.925 172.81V172.81Z" fill="#37474F"/>
<path d="M167.172 151.541C167.068 151.38 166.932 151.245 166.773 151.146C166.615 151.048 166.438 150.987 166.255 150.969C158.104 149.591 141.747 143.399 132.233 137.865C133.849 139.35 135.377 140.939 136.808 142.625C140.768 147.26 144.026 152.494 147.31 157.674C149.071 160.371 150.654 163.193 152.049 166.122C152.729 167.662 153.318 169.247 153.811 170.866C155.41 171.329 156.885 171.732 158.094 172.064C158.235 172.101 158.379 172.12 158.524 172.119C158.926 172.113 159.317 171.985 159.651 171.749C159.986 171.514 160.249 171.18 160.41 170.79L167.182 152.522C167.247 152.367 167.28 152.199 167.278 152.03C167.276 151.861 167.24 151.694 167.172 151.541V151.541Z" fill="#455A64"/>
<path d="M211.941 137.5C210.617 136.819 209.213 136.328 207.766 136.04C202.218 135.082 179.221 144.319 175.374 146.117C172.049 147.669 171.275 147.358 169.626 151.596L170.353 149.592C170.353 149.592 161.675 148.856 147.064 143.001C132.454 137.146 126.024 130.365 126.024 130.365C127.131 127.87 128.181 127.881 131.045 126.552C135.036 124.706 166.06 114.466 172.669 115.398C174.514 115.671 176.33 116.128 178.094 116.765L211.941 137.5Z" fill="#DF4E3C"/>
<path opacity="0.4" d="M211.941 137.5C210.617 136.819 209.213 136.328 207.766 136.04C202.218 135.082 179.221 144.319 175.374 146.117C172.049 147.669 171.275 147.358 169.626 151.596L170.353 149.592C170.353 149.592 161.675 148.856 147.064 143.001C132.454 137.146 126.024 130.365 126.024 130.365C127.131 127.87 128.181 127.881 131.045 126.552C135.036 124.706 166.06 114.466 172.669 115.398C174.514 115.671 176.33 116.128 178.094 116.765L211.941 137.5Z" fill="white"/>
<path d="M235.988 147.413C235.584 148.682 235.21 149.733 234.964 150.359C233.867 153.083 232.638 154.591 230.286 156.351C227.853 158.186 220.04 164.488 220.04 164.488L219.318 164.962L218.278 160.675L217.525 157.587C217.146 156.04 215.988 155.583 214.666 156.438L203.99 163.306C202.628 164.183 201.347 166.214 200.794 168.388L198.145 178.829L149.385 210.702V210.675L148.145 206.176L147.305 203.126C146.828 201.416 145.455 200.947 143.857 201.982L132.172 209.482C130.543 210.534 129.031 212.865 128.391 215.327L127.254 219.684L121.48 223.431C120.701 220.746 119.682 217.227 118.709 213.883C118.555 213.152 118.627 212.389 118.913 211.705C120.199 208.208 122.382 206.105 127.351 201.901C135.425 195.109 157.064 178.208 160.84 175.212C160.84 175.212 160.906 175.043 161.024 174.727C162.003 172.184 166.572 160.207 168.709 154.058C168.744 153.949 168.78 153.84 168.821 153.742C169.113 152.908 169.369 152.195 169.615 151.563C171.28 147.325 172.038 147.636 175.363 146.084C179.211 144.286 202.207 135.049 207.756 136.007C209.202 136.295 210.606 136.786 211.931 137.467L212.561 137.788C215.865 139.51 218.709 141.601 221.27 140.675C225.005 139.324 234.482 136.242 237.151 135.909C239.241 135.686 237.428 142.886 235.988 147.413Z" fill="#DF4E3C"/>
<path d="M235.988 147.413C235.584 148.682 235.21 149.733 234.964 150.359C233.867 153.083 232.638 154.591 230.286 156.351C227.853 158.186 220.04 164.488 220.04 164.488L219.318 164.962L218.278 160.675L217.525 157.587C217.146 156.04 215.988 155.583 214.666 156.438L203.99 163.306C202.628 164.183 201.347 166.214 200.794 168.388L198.145 178.829L149.385 210.702V210.675L148.145 206.176L147.305 203.126C146.828 201.416 145.455 200.947 143.857 201.982L132.172 209.482C130.543 210.534 129.031 212.865 128.391 215.327L127.254 219.684L121.48 223.431C120.701 220.746 119.682 217.227 118.709 213.883C118.555 213.152 118.627 212.389 118.913 211.705C120.199 208.208 122.382 206.105 127.351 201.901C135.425 195.109 157.064 178.208 160.84 175.212C160.84 175.212 160.906 175.043 161.024 174.727C162.003 172.184 168.78 153.84 168.821 153.742C169.113 152.908 169.369 152.195 169.615 151.563C171.28 147.325 172.038 147.636 175.363 146.084C179.211 144.286 202.207 135.049 207.756 136.007C209.202 136.295 210.606 136.786 211.931 137.467L212.561 137.788C215.865 139.51 218.709 141.601 221.27 140.675C225.005 139.324 234.482 136.242 237.151 135.909C239.241 135.686 237.428 142.886 235.988 147.413Z" fill="#DF4E3C"/>
<path opacity="0.05" d="M235.988 147.413C235.584 148.682 235.21 149.733 234.964 150.359C233.867 153.083 232.638 154.591 230.286 156.351C227.853 158.186 220.04 164.488 220.04 164.488L219.318 164.962L218.278 160.675L217.525 157.587C217.146 156.04 215.988 155.583 214.666 156.438L203.99 163.306C202.628 164.183 201.347 166.214 200.794 168.388L198.145 178.829L149.385 210.702V210.675L148.145 206.176L147.305 203.126C146.828 201.416 145.455 200.947 143.857 201.982L132.172 209.482C130.543 210.534 129.031 212.865 128.391 215.327L127.254 219.684L121.48 223.431C120.701 220.746 119.682 217.227 118.709 213.883C118.555 213.152 118.627 212.389 118.913 211.705C120.199 208.208 122.382 206.105 127.351 201.901C135.425 195.109 157.064 178.208 160.84 175.212C160.84 175.212 160.906 175.043 161.024 174.727C162.003 172.184 168.78 153.84 168.821 153.742C169.113 152.908 169.369 152.195 169.615 151.563C171.28 147.325 172.038 147.636 175.363 146.084C179.211 144.286 202.207 135.049 207.756 136.007C209.202 136.295 210.606 136.786 211.931 137.467L212.561 137.788C215.865 139.51 218.709 141.601 221.27 140.675C225.005 139.324 234.482 136.242 237.151 135.909C239.241 135.686 237.428 142.886 235.988 147.413Z" fill="black"/>
<path d="M237.531 135.986C237.413 135.938 237.286 135.923 237.162 135.942C234.503 136.274 225.025 139.357 221.281 140.708C218.719 141.645 215.866 139.542 212.571 137.821L211.941 137.5L178.13 116.803C181.204 117.892 183.253 118.709 186.327 117.848C191.69 116.345 196.87 114.461 200.497 113.567C200.546 113.562 200.596 113.562 200.645 113.567C200.824 113.564 201.001 113.611 201.158 113.704L237.531 135.986Z" fill="#DF4E3C"/>
<path opacity="0.15" d="M237.531 135.986C237.413 135.938 237.286 135.923 237.162 135.942C234.503 136.274 225.025 139.357 221.281 140.708C218.719 141.645 215.866 139.542 212.571 137.821L211.941 137.5L178.13 116.803C181.204 117.892 183.253 118.709 186.327 117.848C191.69 116.345 196.87 114.461 200.497 113.567C200.546 113.562 200.596 113.562 200.645 113.567C200.824 113.564 201.001 113.611 201.158 113.704L237.531 135.986Z" fill="white"/>
<path d="M196.168 144.945L193.16 152.919C192.657 154.383 191.738 155.644 190.532 156.53L162.781 174.025C164.282 170.098 168.145 159.924 170.087 154.324C171.49 150.283 171.787 150.098 172.238 149.82C172.717 149.555 173.21 149.319 173.714 149.112C174.129 148.938 174.59 148.736 175.112 148.486C177.93 147.168 187.059 143.486 194.959 140.958C196.454 140.479 197.074 142.543 196.168 144.945Z" fill="#263238"/>
<path d="M187.597 144.292L168.765 169.39L164.216 172.255C166.029 167.489 169.078 159.395 170.742 154.586C172.059 150.801 172.331 150.637 172.592 150.479C173.032 150.231 173.488 150.012 173.955 149.826C174.38 149.646 174.856 149.434 175.399 149.178C177.341 148.263 182.187 146.269 187.597 144.292Z" fill="#455A64"/>
<path d="M190.113 156.797L190.533 156.531L190.604 156.482C190.936 151.813 190.893 147.123 190.476 142.462L190.021 142.625C190.434 147.338 190.465 152.079 190.113 156.797V156.797Z" fill="black"/>
<path d="M171.721 150.327C172.32 156.454 171.542 163.606 170.65 169.074L171.163 168.742C172.044 163.181 172.787 156.002 172.126 149.891C171.963 150.004 171.825 150.152 171.721 150.327V150.327Z" fill="black"/>
<path opacity="0.2" d="M202.961 146.258C201.309 147.327 199.786 148.607 198.427 150.071C197.06 151.509 195.83 153.077 194.216 154.199C195.933 153.257 197.29 151.716 198.673 150.348C203.443 145.392 207.843 144.553 213.986 142.723L211.158 143.306C208.33 143.954 205.507 144.733 202.961 146.258ZM218.279 160.675C224.344 156.547 230.277 152.102 235.984 147.418C229.913 151.552 223.986 155.991 218.279 160.675ZM192.772 168.9C192.915 164.804 193.013 160.648 192.3 156.601C192.564 160.687 192.564 164.787 192.3 168.872C192.157 171.841 191.988 174.809 191.686 177.761C181.85 183.992 171.655 190.583 161.783 197.086C162.218 194.172 162.413 191.214 162.582 188.273C162.715 184.085 162.808 179.831 162.044 175.702C162.349 179.871 162.373 184.057 162.116 188.23C161.978 191.236 161.809 194.248 161.506 197.244C156.952 200.245 152.47 203.235 148.12 206.149C152.475 203.426 156.947 200.599 161.44 197.718C161.334 198.731 161.209 199.74 161.066 200.746C161.317 199.689 161.517 198.627 161.691 197.56C171.675 191.187 181.885 184.542 191.634 178.072C191.529 179.078 191.404 180.082 191.26 181.084C191.511 180.032 191.716 178.97 191.885 177.903C194.519 176.153 197.113 174.421 199.667 172.707C197.119 174.297 194.541 175.918 191.932 177.571C192.398 174.717 192.623 171.803 192.772 168.9Z" fill="black"/>
<path d="M190.404 124.314L196.439 128.006L214.964 122.157L208.934 118.458L190.404 124.314Z" fill="white"/>
<path d="M227.316 129.728L221.378 126.084L201.752 131.264L207.695 134.902L227.316 129.728Z" fill="white"/>
<path opacity="0.1" d="M200.035 155.348C194.093 161.214 195.046 161.416 192.495 163.137C189.943 164.858 166.05 179.717 162.218 182.064C158.386 184.412 145.635 193.567 134.426 202.026C123.217 210.484 119.569 212.603 120.317 216.149C120.696 217.952 121.485 220.724 122.167 223.012L127.259 219.706L128.396 215.321C129.036 212.865 130.548 210.533 132.182 209.482L143.842 201.982C145.44 200.953 146.813 201.438 147.29 203.126L148.13 206.171L149.369 210.675V210.708L198.14 178.823L200.819 168.388C201.367 166.209 202.648 164.183 204.011 163.306L214.651 156.443C215.988 155.583 217.131 156.04 217.51 157.587L218.263 160.675L219.313 164.978L220.036 164.51C220.036 164.51 227.838 158.208 230.281 156.372C232.725 154.537 233.867 153.072 234.964 150.381C235.215 149.755 235.589 148.703 235.988 147.434C236.714 145.202 237.309 142.925 237.771 140.615C218.268 144.793 205.942 149.515 200.035 155.348Z" fill="black"/>
<path d="M141.946 169.417C135.245 173.747 118.616 189.112 113.078 195.37C107.377 201.813 105.343 207.434 105.343 207.434V209.188L100.594 206.427V204.716C100.594 204.716 102.643 199.096 108.335 192.647C113.662 186.655 129.257 172.157 136.393 167.238C138.227 168.001 140.097 168.731 141.946 169.417Z" fill="#FAFAFA"/>
<path d="M128.775 163.556C121.249 169.079 106.874 182.462 101.808 188.197C96.106 194.64 94.0722 200.631 94.0722 200.631V202.265L89.3232 199.177V197.505C89.3232 197.505 91.3724 191.884 97.0589 185.435C102.131 179.711 116.526 166.318 124.036 160.8C125.42 161.677 126.992 162.598 128.775 163.556Z" fill="#FAFAFA"/>
<path d="M203.463 155.828C198.796 158.355 197.828 160.414 197.167 162.908C196.506 165.403 197.305 172.609 197.305 172.609C197.305 172.609 198.33 164.286 201.752 160.506C205.651 156.225 213.458 152.167 213.458 152.167C213.458 152.167 207.09 153.867 203.463 155.828Z" fill="#DF4E3C"/>
<path d="M172.341 93.4861L171.619 91.0678C171.224 89.1179 178.724 93.7203 179.114 95.6702L176.701 102.587C176.618 102.795 176.477 102.97 176.296 103.088C175.784 103.437 173.811 104.608 173.642 104.722C173.508 104.814 173.356 104.871 173.198 104.889C173.04 104.907 172.88 104.886 172.73 104.826C172.581 104.767 172.447 104.672 172.339 104.548C172.23 104.424 172.15 104.275 172.106 104.112L168.975 92.7018C168.765 91.7323 170.492 92.3641 172.341 93.4861Z" fill="#DF4E3C"/>
<path opacity="0.15" d="M172.341 93.4861L171.619 91.0678C171.224 89.1179 178.724 93.7203 179.114 95.6702L176.701 102.587C176.618 102.795 176.477 102.97 176.296 103.088C175.784 103.437 173.811 104.608 173.642 104.722C173.508 104.814 173.356 104.871 173.198 104.889C173.04 104.907 172.88 104.886 172.73 104.826C172.581 104.767 172.447 104.672 172.339 104.548C172.23 104.424 172.15 104.275 172.106 104.112L168.975 92.7018C168.765 91.7323 170.492 92.3641 172.341 93.4861Z" fill="black"/>
<path d="M176.045 98.3061L174.042 104.216C173.965 104.433 173.826 104.618 173.644 104.745C173.461 104.872 173.246 104.934 173.028 104.922C172.81 104.91 172.602 104.824 172.433 104.678C172.265 104.531 172.144 104.331 172.09 104.107L169.426 94.2266L176.045 98.3061Z" fill="#DF4E3C"/>
<path opacity="0.35" d="M176.045 98.3061L174.042 104.216C173.965 104.433 173.826 104.618 173.644 104.745C173.461 104.872 173.246 104.934 173.028 104.922C172.81 104.91 172.602 104.824 172.433 104.678C172.265 104.531 172.144 104.331 172.09 104.107L169.426 94.2266L176.045 98.3061Z" fill="white"/>
<path d="M167.11 55.0437C169.928 53.3444 173.8 53.6003 178.078 56.2311C186.68 61.5088 193.647 74.3574 193.647 84.9239C193.647 90.1962 191.905 93.9054 189.087 95.6374L183.765 98.9054C180.947 100.626 177.059 100.376 172.761 97.7398C164.154 92.4566 157.182 79.6134 157.182 69.047C157.182 63.7801 158.913 60.0764 161.721 58.3444C162.909 57.6036 165.921 55.7627 167.11 55.0437Z" fill="#DF4E3C"/>
<path opacity="0.15" d="M170.938 96.4705C170.953 96.4846 170.97 96.4956 170.989 96.5032C171.563 96.9433 172.158 97.3523 172.772 97.7287C177.07 100.365 180.968 100.615 183.776 98.8888C184.954 98.1753 187.925 96.3562 189.098 95.6209C191.916 93.8888 193.658 90.1742 193.658 84.9074C193.658 84.1775 193.622 83.4368 193.555 82.6906C193.558 82.6634 193.558 82.6361 193.555 82.6089C186.05 87.2113 178.125 92.0479 170.938 96.4705Z" fill="black"/>
<path d="M183.787 98.8886C189.871 95.1541 189.871 83.0436 183.786 71.8392C177.702 60.6347 167.837 54.5792 161.753 58.3137C155.669 62.0482 155.67 74.1587 161.754 85.3631C167.839 96.5676 177.703 102.623 183.787 98.8886Z" fill="#DF4E3C"/>
<path opacity="0.35" d="M183.787 98.8886C189.871 95.1541 189.871 83.0436 183.786 71.8392C177.702 60.6347 167.837 54.5792 161.753 58.3137C155.669 62.0482 155.67 74.1587 161.754 85.3631C167.839 96.5676 177.703 102.623 183.787 98.8886Z" fill="white"/>
<path d="M181.23 81.1548C181.223 79.3387 180.875 77.5424 180.205 75.8716V75.8334C179.432 73.9271 178.304 72.3204 177.044 71.5361C174.887 70.1853 173.089 72.9576 172.802 76.2093C172.546 72.6199 170.784 67.6254 168.622 66.2855C167.367 65.5012 166.23 65.6973 165.446 66.6341C164.775 67.4511 164.36 68.8127 164.355 70.5829C164.329 76.0894 167.428 81.0622 169.99 86.2964L172.782 91.3563L175.482 89.7223C178.079 87.7724 181.204 86.6722 181.23 81.1548Z" fill="#FAFAFA"/>
</svg>
