<svg width="93" height="16" viewBox="0 0 93 16" fill="none" xmlns="http://www.w3.org/2000/svg">
<g clip-path="url(#clip0_741_64081)">
<path d="M3.612 15.443C3.226 15.641 2.788 15.294 2.866 14.851L3.696 10.121L0.172996 6.76501C-0.156004 6.45101 0.0149962 5.87701 0.455996 5.81501L5.354 5.11901L7.538 0.792012C7.735 0.402012 8.268 0.402012 8.465 0.792012L10.649 5.11901L15.547 5.81501C15.988 5.87701 16.159 6.45101 15.829 6.76501L12.307 10.121L13.137 14.851C13.215 15.294 12.777 15.641 12.391 15.443L8 13.187L3.611 15.443H3.612Z" fill="#FF7900"/>
</g>
<g clip-path="url(#clip1_741_64081)">
<path d="M22.612 15.443C22.226 15.641 21.788 15.294 21.866 14.851L22.696 10.121L19.173 6.76501C18.844 6.45101 19.015 5.87701 19.456 5.81501L24.354 5.11901L26.538 0.792012C26.735 0.402012 27.268 0.402012 27.465 0.792012L29.649 5.11901L34.547 5.81501C34.988 5.87701 35.159 6.45101 34.829 6.76501L31.307 10.121L32.137 14.851C32.215 15.294 31.777 15.641 31.391 15.443L27 13.187L22.611 15.443H22.612Z" fill="#FF7900"/>
</g>
<g clip-path="url(#clip2_741_64081)">
<path d="M42.612 15.443C42.226 15.641 41.788 15.294 41.866 14.851L42.696 10.121L39.173 6.76501C38.844 6.45101 39.015 5.87701 39.456 5.81501L44.354 5.11901L46.538 0.792012C46.735 0.402012 47.268 0.402012 47.465 0.792012L49.649 5.11901L54.547 5.81501C54.988 5.87701 55.159 6.45101 54.829 6.76501L51.307 10.121L52.137 14.851C52.215 15.294 51.777 15.641 51.391 15.443L47 13.187L42.611 15.443H42.612Z" fill="#FF7900"/>
</g>
<g clip-path="url(#clip3_741_64081)">
<path d="M61.612 15.443C61.226 15.641 60.788 15.294 60.866 14.851L61.696 10.121L58.173 6.76501C57.844 6.45101 58.015 5.87701 58.456 5.81501L63.354 5.11901L65.538 0.792012C65.735 0.402012 66.268 0.402012 66.465 0.792012L68.649 5.11901L73.547 5.81501C73.988 5.87701 74.159 6.45101 73.829 6.76501L70.307 10.121L71.137 14.851C71.215 15.294 70.777 15.641 70.391 15.443L66 13.187L61.611 15.443H61.612Z" fill="#FF7900"/>
</g>
<g clip-path="url(#clip4_741_64081)">
<path d="M80.612 15.443C80.226 15.641 79.788 15.294 79.866 14.851L80.696 10.121L77.173 6.76501C76.844 6.45101 77.015 5.87701 77.456 5.81501L82.354 5.11901L84.538 0.792012C84.735 0.402012 85.268 0.402012 85.465 0.792012L87.649 5.11901L92.547 5.81501C92.988 5.87701 93.159 6.45101 92.829 6.76501L89.307 10.121L90.137 14.851C90.215 15.294 89.777 15.641 89.391 15.443L85 13.187L80.611 15.443H80.612Z" fill="#FF7900"/>
</g>
<defs>
<clipPath id="clip0_741_64081">
<rect width="16" height="16" fill="white"/>
</clipPath>
<clipPath id="clip1_741_64081">
<rect width="16" height="16" fill="white" transform="translate(19)"/>
</clipPath>
<clipPath id="clip2_741_64081">
<rect width="16" height="16" fill="white" transform="translate(39)"/>
</clipPath>
<clipPath id="clip3_741_64081">
<rect width="16" height="16" fill="white" transform="translate(58)"/>
</clipPath>
<clipPath id="clip4_741_64081">
<rect width="16" height="16" fill="white" transform="translate(77)"/>
</clipPath>
</defs>
</svg>
