<svg width="92" height="16" viewBox="0 0 92 16" fill="none" xmlns="http://www.w3.org/2000/svg">
<g clip-path="url(#clip0_741_64082)">
<path d="M3.612 15.443C3.226 15.641 2.788 15.294 2.866 14.851L3.696 10.121L0.172996 6.76501C-0.156004 6.45101 0.0149962 5.87701 0.455996 5.81501L5.354 5.11901L7.538 0.792012C7.735 0.402012 8.268 0.402012 8.465 0.792012L10.649 5.11901L15.547 5.81501C15.988 5.87701 16.159 6.45101 15.829 6.76501L12.307 10.121L13.137 14.851C13.215 15.294 12.777 15.641 12.391 15.443L8 13.187L3.611 15.443H3.612Z" fill="#FF7900"/>
</g>
<g clip-path="url(#clip1_741_64082)">
<path d="M22.612 15.443C22.226 15.641 21.788 15.294 21.866 14.851L22.696 10.121L19.173 6.76501C18.844 6.45101 19.015 5.87701 19.456 5.81501L24.354 5.11901L26.538 0.792012C26.735 0.402012 27.268 0.402012 27.465 0.792012L29.649 5.11901L34.547 5.81501C34.988 5.87701 35.159 6.45101 34.829 6.76501L31.307 10.121L32.137 14.851C32.215 15.294 31.777 15.641 31.391 15.443L27 13.187L22.611 15.443H22.612Z" fill="#FF7900"/>
</g>
<g clip-path="url(#clip2_741_64082)">
<path d="M41.612 15.443C41.226 15.641 40.788 15.294 40.866 14.851L41.696 10.121L38.173 6.76501C37.844 6.45101 38.015 5.87701 38.456 5.81501L43.354 5.11901L45.538 0.792012C45.735 0.402012 46.268 0.402012 46.465 0.792012L48.649 5.11901L53.547 5.81501C53.988 5.87701 54.159 6.45101 53.829 6.76501L50.307 10.121L51.137 14.851C51.215 15.294 50.777 15.641 50.391 15.443L46 13.187L41.611 15.443H41.612Z" fill="#FF7900"/>
</g>
<g clip-path="url(#clip3_741_64082)">
<path d="M60.612 15.443C60.226 15.641 59.788 15.294 59.866 14.851L60.696 10.121L57.173 6.76501C56.844 6.45101 57.015 5.87701 57.456 5.81501L62.354 5.11901L64.538 0.792012C64.735 0.402012 65.268 0.402012 65.465 0.792012L67.649 5.11901L72.547 5.81501C72.988 5.87701 73.159 6.45101 72.829 6.76501L69.307 10.121L70.137 14.851C70.215 15.294 69.777 15.641 69.391 15.443L65 13.187L60.611 15.443H60.612Z" fill="#FF7900"/>
</g>
<g clip-path="url(#clip4_741_64082)">
<path d="M81.354 5.119L83.538 0.792C83.5799 0.704954 83.6455 0.631433 83.7272 0.57981C83.8088 0.528186 83.9034 0.500533 84 0.5C84.183 0.5 84.366 0.597 84.465 0.792L86.649 5.119L91.547 5.815C91.6691 5.83419 91.7808 5.89491 91.8633 5.98691C91.9459 6.07891 91.9941 6.19655 92 6.32C92.007 6.40219 91.9953 6.48489 91.9659 6.56194C91.9364 6.63899 91.89 6.7084 91.83 6.765L88.307 10.121L89.137 14.851C89.215 15.294 88.777 15.641 88.391 15.443L84 13.187L79.611 15.443C79.5651 15.4668 79.5159 15.4837 79.465 15.493C79.123 15.553 78.797 15.239 78.865 14.851L79.695 10.121L76.173 6.765C76.1182 6.7132 76.0747 6.65069 76.0451 6.58137C76.0155 6.51204 76.0005 6.43737 76.001 6.362C76.001 6.25544 76.0304 6.15095 76.086 6.06C76.1254 5.99407 76.1791 5.93783 76.2431 5.89542C76.3072 5.85302 76.3799 5.82553 76.456 5.815L81.354 5.119ZM84 12.027C84.0807 12.0267 84.1603 12.0459 84.232 12.083L87.918 13.977L87.224 10.02C87.2076 9.929 87.2138 9.83536 87.2421 9.74731C87.2703 9.65926 87.3197 9.57949 87.386 9.515L90.293 6.745L86.241 6.169C86.1571 6.15633 86.0775 6.12351 86.0091 6.07335C85.9406 6.02319 85.8853 5.95719 85.848 5.881L84.001 2.223L84 2.226V12.026V12.027Z" fill="#FF7900"/>
</g>
<defs>
<clipPath id="clip0_741_64082">
<rect width="16" height="16" fill="white"/>
</clipPath>
<clipPath id="clip1_741_64082">
<rect width="16" height="16" fill="white" transform="translate(19)"/>
</clipPath>
<clipPath id="clip2_741_64082">
<rect width="16" height="16" fill="white" transform="translate(38)"/>
</clipPath>
<clipPath id="clip3_741_64082">
<rect width="16" height="16" fill="white" transform="translate(57)"/>
</clipPath>
<clipPath id="clip4_741_64082">
<rect width="16" height="16" fill="white" transform="translate(76)"/>
</clipPath>
</defs>
</svg>
