<svg width="25" height="13" viewBox="0 0 25 13" fill="none" xmlns="http://www.w3.org/2000/svg">
<path d="M14.73 8.22751L15.4075 6.02751L15.89 5.89001L15.01 8.74751L11.1575 8.55751C11.14 9.43251 11.3475 10.2225 11.96 10.855C13.2125 10.855 14.465 10.855 15.715 10.855L16.2425 10.8925L17.1375 5.16751L16.115 5.14751L16.0525 5.34751L15.57 5.48501L15.7575 4.87251L13.615 4.58751L12.5775 5.40001L10.89 5.02751L9.955 3.73501L9.415 4.12501L9.68 5.23501L9.1825 5.59501L9.465 5.98501L9.9475 5.63751L10.9975 6.31251L11.5375 5.92251L11.445 5.79501L12.505 6.08501L13.2125 6.14501L13.2075 6.16751L12.69 6.31751L12.82 6.77251L13.07 6.70001L13.055 6.75751L9.9175 7.15251L9.37 10.49L10.4125 10.58L10.9775 7.97251L14.73 8.22751ZM1.1375 7.47251L2.3875 7.20751L2.0875 8.62251L1.345 8.70751L1.6 10.2275L2.0025 10.47L1.605 11.135L1.05 10.8L0.895 10.7075L0.865 10.53L0.2875 7.10501L0.25 6.87751L0.43 6.73501C1.275 6.07251 2.345 5.55251 3.5275 5.13751C4.6525 4.74251 5.8825 4.43501 7.1175 4.17501L9.6725 1.33251L9.7575 1.23751L9.885 1.21251C12.1 0.76501 14.135 0.63251 16.1525 0.68001C18.1725 0.72751 20.15 0.94751 22.2625 1.20501L22.4825 1.23251L22.5725 1.43501C22.965 2.32251 23.2675 3.23751 23.495 4.17501C23.6975 5.01001 23.84 5.86251 23.935 6.72751L24.4275 6.81001L24.7525 6.86501V7.19251V10.675V11.065H24.3625H23.25V10.2875H23.975V7.52251L23.5175 7.44501L23.2225 7.39501L23.195 7.10001C23.105 6.17001 22.96 5.25501 22.745 4.36001C22.5475 3.54251 22.2875 2.73751 21.9525 1.95251C19.93 1.70751 18.0325 1.50001 16.14 1.45501C14.2125 1.41001 12.27 1.53251 10.1675 1.94501L7.61 4.79001L7.5275 4.88251L7.4 4.91001C6.1575 5.16751 4.9175 5.47251 3.7875 5.87001C2.7625 6.23251 1.8375 6.66501 1.0925 7.20751L1.1375 7.47251ZM20.1525 8.35501C19.835 8.35501 19.545 8.48501 19.3375 8.69501C19.13 8.90251 19 9.19001 19 9.51001C19 9.82751 19.13 10.1175 19.3375 10.325C19.5475 10.535 19.835 10.6625 20.1525 10.6625C20.4725 10.6625 20.76 10.5325 20.9675 10.325C21.1775 10.1175 21.305 9.82751 21.305 9.51001C21.305 9.19001 21.175 8.90251 20.9675 8.69501C20.76 8.48501 20.4725 8.35501 20.1525 8.35501ZM20.1325 6.69251C19.355 6.69251 18.6525 7.00751 18.1425 7.51751C17.6325 8.02751 17.3175 8.73251 17.3175 9.51001C17.3175 10.2875 17.6325 10.99 18.1425 11.5C18.6525 12.01 19.3575 12.325 20.1325 12.325C20.91 12.325 21.615 12.01 22.125 11.5C22.635 10.99 22.95 10.285 22.95 9.51001C22.95 8.73001 22.6325 8.02751 22.125 7.51751C21.615 7.01001 20.9125 6.69251 20.1325 6.69251ZM21.32 8.32251C21.0175 8.02001 20.5975 7.83251 20.1325 7.83251C19.67 7.83251 19.25 8.02001 18.945 8.32251C18.6425 8.62501 18.4525 9.04501 18.4525 9.51001C18.4525 9.97251 18.6425 10.3925 18.945 10.695C19.2475 10.9975 19.6675 11.185 20.1325 11.185C20.5975 11.185 21.0175 10.9975 21.32 10.695C21.6225 10.3925 21.81 9.97001 21.81 9.51001C21.8125 9.04501 21.625 8.62751 21.32 8.32251ZM5.055 8.35501C4.735 8.35501 4.4475 8.48501 4.2375 8.69501C4.03 8.90251 3.9 9.19001 3.9 9.51001C3.9 9.82751 4.03 10.1175 4.2375 10.325C4.4475 10.535 4.735 10.6625 5.055 10.6625C5.3725 10.6625 5.6625 10.5325 5.87 10.325C6.08 10.1175 6.2075 9.82751 6.2075 9.51001C6.2075 9.19001 6.0775 8.90251 5.87 8.69501C5.6625 8.48501 5.375 8.35501 5.055 8.35501ZM5.055 6.69251C4.2775 6.69251 3.575 7.00751 3.065 7.51751C2.555 8.02751 2.24 8.73251 2.24 9.51001C2.24 10.2875 2.555 10.99 3.065 11.5C3.575 12.01 4.28 12.325 5.055 12.325C5.8325 12.325 6.5375 12.01 7.0475 11.5C7.5575 10.99 7.8725 10.285 7.8725 9.51001C7.8725 8.73001 7.5575 8.02751 7.0475 7.51751C6.5375 7.01001 5.835 6.69251 5.055 6.69251ZM6.2425 8.32251C5.94 8.02001 5.5175 7.83251 5.055 7.83251C4.5925 7.83251 4.1725 8.02001 3.8675 8.32251C3.5625 8.62501 3.375 9.04501 3.375 9.51001C3.375 9.97251 3.5625 10.3925 3.8675 10.695C4.17 10.9975 4.59 11.185 5.055 11.185C5.5175 11.185 5.94 10.9975 6.2425 10.695C6.545 10.3925 6.7325 9.97001 6.7325 9.51001C6.735 9.04501 6.5475 8.62751 6.2425 8.32251ZM16.315 4.70251L16.5525 2.92251L17.1825 2.95001C17.315 3.38501 17.5375 4.30251 17.4025 4.72751L16.315 4.70251ZM15.015 2.20751C15.595 2.20751 16.065 2.67751 16.065 3.25751C16.065 3.83501 15.595 4.30501 15.015 4.30501C14.435 4.30501 13.9675 3.83501 13.9675 3.25751C13.9675 2.67751 14.435 2.20751 15.015 2.20751Z" fill="#D64F3F"/>
</svg>
