<svg width="32" height="32" viewBox="0 0 32 32" fill="none" xmlns="http://www.w3.org/2000/svg">
<g clip-path="url(#clip0_275_63824)">
<rect width="31.25" height="31.25" fill="#52AB98"/>
<path d="M0 2.23828C0 1.00195 1.02734 0 2.29492 0H28.9551C30.2227 0 31.25 1.00195 31.25 2.23828V29.0117C31.25 30.248 30.2227 31.25 28.9551 31.25H2.29492C1.02734 31.25 0 30.248 0 29.0117V2.23828ZM9.6543 26.1602V12.0488H4.96484V26.1602H9.6543ZM7.31055 10.1211C8.94531 10.1211 9.96289 9.03906 9.96289 7.68359C9.93359 6.29883 8.94727 5.24609 7.3418 5.24609C5.73633 5.24609 4.6875 6.30078 4.6875 7.68359C4.6875 9.03906 5.70508 10.1211 7.2793 10.1211H7.31055ZM16.8965 26.1602V18.2793C16.8965 17.8574 16.9277 17.4355 17.0527 17.1348C17.3906 16.293 18.1621 15.4199 19.459 15.4199C21.1562 15.4199 21.834 16.7129 21.834 18.6113V26.1602H26.5234V18.0664C26.5234 13.7305 24.2109 11.7148 21.125 11.7148C18.6367 11.7148 17.5215 13.082 16.8965 14.0449V14.0938H16.8652C16.8756 14.0774 16.886 14.0612 16.8965 14.0449V12.0488H12.209C12.2676 13.373 12.209 26.1602 12.209 26.1602H16.8965Z" fill="white"/>
</g>
<defs>
<clipPath id="clip0_275_63824">
<rect width="31.25" height="31.25" fill="white"/>
</clipPath>
</defs>
</svg>
