<svg width="31" height="31" viewBox="0 0 31 31" fill="none" xmlns="http://www.w3.org/2000/svg">
<rect width="31" height="31" fill="#52AB98"/>
<path d="M9.73787 29.0624C21.4365 29.0624 27.8361 19.3691 27.8361 10.9778C27.8361 10.7065 27.8361 10.4314 27.8244 10.1601C29.0704 9.25819 30.1457 8.14155 31 6.8625C29.8362 7.37565 28.6028 7.71385 27.3401 7.86613C28.6702 7.07105 29.6665 5.82007 30.1436 4.34569C28.8939 5.08606 27.5261 5.60579 26.1001 5.88213C25.1414 4.86111 23.8727 4.18472 22.4907 3.95772C21.1086 3.73072 19.6903 3.96579 18.4553 4.62651C17.2204 5.28722 16.2378 6.33672 15.6597 7.61243C15.0817 8.88814 14.9404 10.3189 15.2578 11.683C12.7289 11.5562 10.2548 10.8992 7.99615 9.75469C5.73746 8.61016 3.74458 7.00364 2.14675 5.03932C1.3356 6.44029 1.08805 8.09747 1.45438 9.67433C1.8207 11.2512 2.77344 12.6295 4.11912 13.5294C3.11073 13.4952 2.12451 13.2244 1.24 12.7389V12.8261C1.24174 14.2937 1.75016 15.7158 2.67932 16.8518C3.60848 17.9878 4.90139 18.7682 6.3395 19.061C5.79363 19.2114 5.22976 19.2863 4.66356 19.2838C4.26441 19.285 3.86605 19.248 3.47394 19.1734C3.8804 20.4367 4.67184 21.5413 5.73742 22.3324C6.80299 23.1235 8.08932 23.5615 9.41625 23.5851C7.16208 25.3556 4.37759 26.3158 1.51125 26.3111C1.00618 26.3133 0.50147 26.2841 0 26.2239C2.90918 28.0786 6.28776 29.0634 9.73787 29.0624Z" fill="white"/>
</svg>
