<svg width="1920" height="461" viewBox="0 0 1920 461" fill="none" xmlns="http://www.w3.org/2000/svg">
<path fill-rule="evenodd" clip-rule="evenodd" d="M0 0L27 29C53 58 107 115 160 135C213 154 267 135 320 163C373 192 427 269 480 317C533 365 587 384 640 394C693 403 747 403 800 384C853 365 907 327 960 269C1013 211 1067 135 1120 115C1173 96 1227 135 1280 125C1333 115 1387 58 1440 77C1493 96 1547 192 1600 221C1653 250 1707 211 1760 202C1813 192 1867 211 1893 221L1920 231V461H1893C1867 461 1813 461 1760 461C1707 461 1653 461 1600 461C1547 461 1493 461 1440 461C1387 461 1333 461 1280 461C1227 461 1173 461 1120 461C1067 461 1013 461 960 461C907 461 853 461 800 461C747 461 693 461 640 461C587 461 533 461 480 461C427 461 373 461 320 461C267 461 213 461 160 461C107 461 53 461 27 461H0V0Z" fill="url(#paint0_linear_127_394)"/>
<defs>
<linearGradient id="paint0_linear_127_394" x1="960" y1="0" x2="960" y2="461" gradientUnits="userSpaceOnUse">
<stop stop-color="#2B6777" stop-opacity="0"/>
<stop offset="1" stop-color="#2B6777"/>
</linearGradient>
</defs>
</svg>
